<svg xmlns="http://www.w3.org/2000/svg" width="177" height="190" fill="none"><path d="M144.115 17.985s7.568-5.565 9.623-4.613c1.407.654-.251 2.516-2.343 4.273 2.15-1.381 4.242-2.448 5.1-2.05 1.317.612-.074 2.301-1.983 3.959.769-.298 1.386-.413 1.768-.241 1.799.837-1.046 3.661-3.771 5.695.126.007.25.035.366.084 2.903 1.344-6.009 5.947-6.009 5.947s-4.33 2.615-7.615 2.803l-4.743-11.041 9.607-4.817z" fill="#fff"/><path d="M139.248 34.015c-.033 0-.066-.01-.094-.029s-.049-.045-.063-.076l-4.748-11.035a.17.17 0 0 1-.004-.129c.016-.042.047-.076.087-.095l9.597-4.812c.45-.329 7.683-5.601 9.786-4.623.16.058.301.158.409.29a.93.93 0 0 1 .202.458c.084.617-.428 1.47-1.569 2.589 1.847-1.046 3.06-1.412 3.703-1.114.157.06.296.161.402.291s.177.286.205.452c.094.68-.523 1.653-1.94 2.96a1.73 1.73 0 0 1 1.119 0 1.05 1.05 0 0 1 .444.328c.116.147.19.323.215.508.151 1.449-2.615 3.781-4.101 4.927h.037c.188.061.353.177.474.333s.193.344.206.541c.037 1.857-5.994 5.026-6.684 5.382-.167.105-4.393 2.641-7.683 2.824v.031zm-4.524-11.129l4.639 10.779c3.196-.235 7.375-2.751 7.416-2.777 1.826-.941 6.538-3.661 6.507-5.073 0-.23-.163-.418-.482-.565-.096-.04-.199-.063-.303-.068-.035-.002-.068-.015-.096-.037s-.047-.051-.057-.085-.01-.069 0-.103.031-.063.059-.084c2.73-2.045 4.362-3.902 4.262-4.843-.018-.127-.07-.246-.151-.344s-.188-.173-.309-.215c-.309-.141-.858-.058-1.626.246-.039.014-.081.015-.119.003s-.073-.037-.096-.071-.028-.076-.022-.117.028-.077.059-.103c2.123-1.851 2.494-2.761 2.432-3.201-.022-.108-.072-.209-.144-.293s-.165-.147-.269-.183c-.382-.178-1.528-.146-4.932 2.04-.037.023-.081.032-.124.024s-.08-.031-.106-.066-.037-.079-.032-.123.025-.083.058-.113c2.426-2.04 2.86-3.028 2.798-3.504-.019-.11-.068-.213-.14-.298s-.167-.148-.273-.184c-1.611-.743-7.369 3.065-9.451 4.597h-.026l-9.472 4.759z" fill="#000"/><path d="M133.497 18.885s-26.453 17.259-63.868 13.786l5.68 17.552 1.511.523a55.35 55.35 0 0 0 25.732 2.432c5.141-.722 33.168-10.078 41.719-17.996l-10.774-16.297z" fill="#e84f35"/><path d="M137.477 21.374s3.943-7.965 7.196-7.672-1.836 6.893-1.836 6.893 2.092 1.768-.852 4.66" fill="#fff"/><path d="M141.864 25.396a.18.18 0 0 1-.038-.056c-.009-.021-.013-.044-.013-.067s.004-.046.013-.067a.18.18 0 0 1 .038-.056c1.046-1.046 1.569-1.998 1.522-2.913a2.19 2.19 0 0 0-.659-1.49c-.029-.033-.045-.076-.045-.12s.016-.087.045-.12c.973-1.26 3.374-4.817 2.804-6.119-.079-.155-.201-.284-.351-.371a.9.9 0 0 0-.497-.12c-3.091-.272-6.987 7.5-7.024 7.578a.17.17 0 0 1-.041.053c-.018.015-.038.026-.059.033s-.045.01-.067.008a.17.17 0 0 1-.065-.018c-.021-.01-.039-.024-.053-.042s-.026-.037-.033-.059a.17.17 0 0 1-.008-.067c.001-.023.008-.045.018-.065.162-.33 4.043-8.075 7.364-7.767a1.24 1.24 0 0 1 1.129.701c.712 1.616-2.175 5.586-2.751 6.349.409.441.645 1.015.664 1.616.037 1.02-.522 2.092-1.626 3.18-.016.021-.036.037-.059.049s-.049.017-.074.017-.052-.006-.075-.017-.043-.028-.059-.049z" fill="#000"/><path d="M130.129 174.282l5.716 12.672a7.08 7.08 0 0 0 1.836 2.453 1.27 1.27 0 0 0 .596.288c.22.041.448.023.659-.053l3.525-1.27c.191-.069.358-.191.48-.353s.196-.355.21-.557l.11-2.009a1.13 1.13 0 0 1 .235-.569c.13-.164.303-.288.5-.36s.409-.086.614-.043a1.13 1.13 0 0 1 .545.287l1.642 1.381c.163.139.36.233.571.273s.429.023.632-.048l23.937-8.624a1.1 1.1 0 0 0 .408-.258c.114-.115.202-.255.255-.409s.071-.318.052-.479-.073-.317-.16-.455c-.78-1.292-1.732-2.531-2.751-3.138-2.223-1.323-6.324-1.339-9.864-1.046a15.53 15.53 0 0 1-6.387-.795c-2.05-.708-3.929-1.837-5.517-3.316l-17.844 6.428z" fill="#001535"/><g fill="#000"><path d="M172.146 175.595l.345.523c.087.137.142.293.161.454a1.09 1.09 0 0 1-.308.888 1.07 1.07 0 0 1-.407.258l-23.938 8.635a1.23 1.23 0 0 1-.631.048c-.211-.04-.408-.134-.571-.273l-1.172-.989 26.521-9.544zm-28.917 10.428l-.079 1.439c-.014.202-.087.396-.21.557s-.289.284-.48.353l-3.525 1.271c-.211.075-.439.093-.659.052a1.27 1.27 0 0 1-.596-.288c-.358-.316-.684-.666-.973-1.046l6.522-2.338zm10.477-16.516c-.36-1.166-.523-3.138.602-3.415.852-.199 1.935.988 2.458 2.693.361 1.177.523 3.17-.601 3.421s-2.103-1.543-2.459-2.699zm.33-.099c.523 1.637 1.464 2.615 2.05 2.458.847-.188.633-2.061.35-2.976-.523-1.637-1.48-2.589-2.05-2.463-.842.193-.632 2.06-.35 2.981z"/><path d="M156.013 172.164c-.848-.743.109-2.411.978-3.311 1.218-1.26 2.698-1.783 3.368-1.192.852.748-.1 2.416-.973 3.315s-2.526 1.93-3.373 1.188zm1.229-3.076c-.785.811-1.611 2.281-.999 2.819.523.45 1.841-.083 2.892-1.171.795-.816 1.611-2.275.994-2.819-.523-.45-1.836.089-2.887 1.171zm-27.113 5.195l3.096 6.861c.601-.1 1.19-.256 1.762-.465a9.29 9.29 0 0 0 5-4.049c1.131-1.903 1.544-4.147 1.167-6.327l-11.025 3.98zm-118.041 1.694h-1.224c-.046 0-.09-.018-.122-.05s-.051-.077-.051-.122.018-.09.051-.122a.17.17 0 0 1 .122-.051h1.224c1.642-.007 3.233-.572 4.51-1.604s2.166-2.467 2.519-4.07l10.878-50.517c.004-.022.012-.044.024-.063s.029-.035.048-.048a.16.16 0 0 1 .064-.024c.023-.004.046-.001.068.005a.2.2 0 0 1 .062.026.16.16 0 0 1 .047.048c.012.019.02.04.024.062a.17.17 0 0 1-.002.068l-10.878 50.511c-.368 1.681-1.299 3.186-2.637 4.268a7.57 7.57 0 0 1-4.727 1.683zm26.554-.001h-1.224c-.046 0-.09-.018-.122-.05s-.051-.076-.051-.122a.17.17 0 0 1 .173-.173h1.224c1.642-.007 3.233-.572 4.51-1.604s2.166-2.467 2.519-4.07l10.878-50.516c.002-.025.01-.048.022-.07s.029-.039.048-.054.042-.024.066-.029a.18.18 0 0 1 .073 0 .18.18 0 0 1 .066.03.16.16 0 0 1 .048.055c.012.022.019.045.021.069s-.001.049-.009.072l-10.878 50.511a7.58 7.58 0 0 1-2.637 4.268 7.57 7.57 0 0 1-4.727 1.683z"/><path d="M67.19 175.976h-1.224a7.57 7.57 0 0 1-4.727-1.683c-1.338-1.082-2.269-2.587-2.637-4.268l-10.878-50.511c-.008-.023-.011-.048-.009-.072s.009-.048.021-.069a.18.18 0 0 1 .048-.055c.02-.015.042-.025.066-.03s.048-.005.072 0 .046.015.066.029.036.033.048.054.019.045.022.07l10.878 50.516a7.23 7.23 0 0 0 2.514 4.088c1.279 1.037 2.874 1.605 4.52 1.612h1.219c.046 0 .09.019.122.051s.05.076.05.122-.018.09-.05.122-.076.05-.122.05v-.026zm27.098.001h-1.224c-1.721-.008-3.388-.601-4.727-1.683a7.57 7.57 0 0 1-2.637-4.269l-11.307-52.911c-.008-.045.002-.091.027-.129s.064-.065.109-.075c.022-.005.045-.005.068-.001s.044.014.063.026.035.029.048.048.021.04.026.063l11.286 52.911a7.23 7.23 0 0 0 2.518 4.092c1.281 1.036 2.878 1.604 4.527 1.609h1.224c.046 0 .09.018.122.05s.05.077.05.122-.018.09-.05.122a.17.17 0 0 1-.122.051v-.026z"/><path d="M82.556 154.79H22.595c-.046 0-.09-.018-.122-.05s-.05-.076-.05-.122.018-.09.05-.122.076-.051.122-.051h59.961c.046 0 .09.019.122.051s.051.076.051.122-.018.09-.051.122-.076.05-.122.05z"/></g><path d="M45.227 33.09c-7.196-5.204-22.489-10.643-35.386 3.269S-2.58 83.611 8.617 98.809s27.509 38.247 76.038 13.645c0 0-3.138-29.172-7.28-37.875-7.144-14.937-19.074-32.033-32.149-41.489z" fill="#fff"/><path d="M32.867 120.843c-11.046-4.268-17.646-12.73-24.403-21.929C3.072 91.592-.092 79.689.002 67.1.101 54.025 3.637 42.776 9.704 36.243c11.909-12.829 26.626-9.79 35.616-3.29 13.922 10.068 25.758 28.064 32.196 41.552 4.116 8.629 7.264 37.655 7.322 37.927a.18.18 0 0 1-.021.101c-.017.031-.042.056-.073.072-15.904 8.054-35.213 14.68-51.876 8.237zm-4.132-93.145c-6.245 0-12.866 2.406-18.781 8.781C-3.298 50.751-1.944 84.176 8.741 98.715c6.705 9.121 13.237 17.557 24.246 21.814 13.478 5.204 30.334 2.537 51.468-8.169-.225-2.045-3.295-29.403-7.254-37.697-6.417-13.452-18.216-31.38-32.086-41.427-4.409-3.19-10.214-5.538-16.38-5.538z" fill="#000"/><path d="M74.235 160.857l-3.572 13.436a7.22 7.22 0 0 0-.126 3.06 1.28 1.28 0 0 0 .285.6c.146.172.335.302.547.378l3.53 1.239a1.05 1.05 0 0 0 .595.029c.197-.048.376-.153.514-.301l1.36-1.49c.15-.146.338-.247.542-.291s.417-.032.614.038a1.12 1.12 0 0 1 .502.355c.131.163.214.36.24.567l.403 2.092c.039.211.132.409.27.573s.317.289.519.363l24.01 8.42c.154.056.318.076.48.059a1.08 1.08 0 0 0 .458-.156c.139-.086.257-.203.344-.341a1.08 1.08 0 0 0 .162-.456c.209-1.49.256-3.054-.152-4.184-.889-2.432-4.053-5.036-6.993-7.034-1.794-1.219-3.312-2.802-4.455-4.645a15.48 15.48 0 0 1-2.181-6.056l-17.897-6.255z" fill="#001535"/><g fill="#000"><path d="M105.993 188.403c0 .215-.047.429-.079.638a1.08 1.08 0 0 1-.161.456c-.088.138-.205.255-.344.341a1.08 1.08 0 0 1-.458.156 1.09 1.09 0 0 1-.48-.058l-24.011-8.421a1.23 1.23 0 0 1-.79-.936l-.288-1.501 26.61 9.325zm-29.01-10.167l-.973 1.046c-.139.148-.317.253-.514.301a1.05 1.05 0 0 1-.595-.029l-3.53-1.239c-.213-.075-.402-.205-.548-.377a1.28 1.28 0 0 1-.284-.601 7.46 7.46 0 0 1-.099-1.412l6.543 2.311zm18.334-1.574c-.784-.387-.873-1.987-.204-3.661.46-1.135 1.611-2.767 2.615-2.27.784.387.873 1.988.204 3.661-.444 1.12-1.579 2.783-2.615 2.27zm.12-3.514c-.643 1.569-.523 2.939.031 3.206.779.381 1.794-1.198 2.155-2.092.643-1.569.497-2.94-.042-3.206-.785-.387-1.794 1.223-2.15 2.092h.005z"/><path d="M95.229 176.537c-.188-1.114 1.606-1.805 2.85-1.951 1.736-.204 3.216.319 3.363 1.198.188 1.119-1.616 1.814-2.851 1.956s-3.159-.084-3.363-1.203zm2.887-1.611c-1.114.131-2.683.748-2.547 1.569.11.675 1.48 1.098 2.981.92 1.13-.136 2.684-.753 2.553-1.569-.115-.674-1.48-1.093-2.987-.915v-.005zm-23.881-14.069l-1.93 7.275c.529.3 1.084.552 1.658.753 2.074.772 4.355.777 6.433.016a9.28 9.28 0 0 0 4.9-4.168l-11.061-3.876z"/></g><path d="M67.684 69.182s53.089-.675 64.59 24.011 23.336 71.698 23.336 71.698l-31.934 12.51s-13.525-62.415-28.765-76.881c-6.543-6.202-38.388-12.756-38.388-12.756l11.161-18.582z" fill="#fff"/><g fill="#000"><path d="M123.508 177.436c-.136-.623-13.687-62.53-28.717-76.771-6.433-6.098-37.985-12.646-38.304-12.714-.027-.005-.052-.017-.074-.034s-.038-.039-.05-.064a.17.17 0 0 1-.015-.08c.001-.027.009-.054.023-.078l11.161-18.598c.015-.025.037-.046.062-.061s.055-.022.084-.023A151.87 151.87 0 0 1 95.7 71.764c13.462 2.667 30.757 8.54 36.73 21.359 11.376 24.418 23.227 71.253 23.347 71.723a.18.18 0 0 1-.015.121c-.019.038-.051.067-.09.083l-31.934 12.51c-.023.009-.048.013-.073.011s-.049-.009-.071-.021a.15.15 0 0 1-.055-.048c-.015-.02-.026-.043-.031-.067zM56.795 87.664c3.138.659 31.955 6.799 38.231 12.75 14.68 13.912 27.917 72.859 28.765 76.75l31.604-12.379c-.748-2.929-12.248-47.813-23.289-71.52-5.91-12.683-23.1-18.509-36.479-21.166a153.6 153.6 0 0 0-27.86-2.746l-10.972 18.31zm79.516 76.639c-.131-.607-13.321-60.887-28.352-75.133-.029-.032-.045-.074-.045-.118a.17.17 0 0 1 .16-.171c.044-.003.086.01.12.037 15.11 14.319 28.326 74.704 28.457 75.311.009.045.001.092-.024.131s-.063.067-.107.078-.094 0-.133-.025-.066-.065-.076-.111z"/><path d="M121.662 169.507c-.015-.043-.012-.09.007-.131a.17.17 0 0 1 .098-.088l32.018-11.323c.043-.015.091-.013.133.007s.074.056.089.1.012.092-.008.133-.056.074-.099.089l-32.018 11.323c-.044.014-.091.01-.132-.011s-.072-.056-.088-.099zm-4.168-57.707c2.379 13.205 2.51 27.039-.293 40.061l-7.646-23.922 7.939-16.139z"/></g><path d="M47.204 86.748l-.868 30.334s43.466-15.627 38.963 2.385-15.167 41.656-15.167 41.656l32.729 9.827s22.274-44.287 12.515-67.367-37.849-33.508-68.172-16.835z" fill="#fff"/><path d="M102.861 171.124c-.048 0 1.448.439-32.771-9.822-.023-.008-.043-.021-.061-.037s-.032-.036-.042-.058a.18.18 0 0 1-.015-.07c0-.024.004-.048.014-.07.105-.241 10.7-23.844 15.167-41.631.69-2.766.261-4.879-1.287-6.276-7.322-6.626-37.133 3.991-37.452 4.095-.026.01-.055.013-.082.008s-.054-.014-.077-.031a.17.17 0 0 1-.053-.063c-.012-.025-.018-.053-.018-.081l.868-30.334c0-.03.009-.06.024-.085s.038-.047.065-.061c15.198-8.368 30.925-10.392 44.287-5.753a40.3 40.3 0 0 1 24.131 22.682c5.057 11.972 1.381 29.696-2.615 42.457a186.04 186.04 0 0 1-9.937 25.057c-.017.023-.039.041-.064.054a.18.18 0 0 1-.082.019zm-32.484-10.11l32.379 9.728c1.318-2.672 21.804-44.977 12.447-67.09a39.94 39.94 0 0 0-23.922-22.489c-13.247-4.602-28.843-2.584-43.932 5.68l-.858 30.004c3.06-1.082 30.334-10.459 37.562-3.943 1.647 1.491 2.092 3.713 1.391 6.616-4.226 16.997-14.068 39.277-15.067 41.494zm13.028-4.633c-.041-.021-.072-.056-.087-.099s-.012-.091.008-.132c.126-.266 12.609-26.918 17.447-46.274 3.959-15.836-27.682-7.615-42.169-2.385a.17.17 0 0 1-.131-.007c-.041-.02-.073-.055-.088-.098s-.013-.091.007-.133.055-.075.098-.091c15.622-5.623 46.667-13.394 42.619 2.798-4.849 19.387-17.348 46.07-17.474 46.342-.02.041-.056.072-.099.087a.17.17 0 0 1-.131-.008zm20.469-103.376l-16.218 2.578.968-15.345 15.25 12.766z" fill="#000"/><path d="M101.31 95.519H29.659a33.22 33.22 0 0 1-11.851-32.054c2.327-12.29 11.862-24.209 30.888-30.229 5.795-1.825 14.644-1.407 20.747-.586 9.879 1.323 15.026 2.777 19.178 7.583 11.662 13.525 13.551 42.593 12.688 55.286z" fill="#e84f35"/><path d="M54.455 84.605s1.967 1.82 6.616.931 13.075-.549 15.319 9.571H51.223l3.232-10.502z" fill="#fff"/><g fill="#000"><path d="M76.391 95.279H51.225c-.027 0-.053-.006-.077-.018s-.045-.029-.061-.05-.027-.046-.032-.072-.004-.053.003-.079l3.232-10.502c.008-.028.024-.054.044-.074s.047-.036.075-.043.058-.008.086-.001.055.021.077.041c0 0 1.972 1.747 6.469.884 3.002-.575 13.002-1.569 15.517 9.707.007.025.007.052.002.077s-.017.049-.033.07-.037.036-.061.047-.049.016-.075.015zm-24.937-.345h24.722c-2.526-10.753-12.165-9.785-15.073-9.231-3.891.743-5.936-.366-6.558-.805l-3.091 10.036z"/><path d="M50.869 95.823c-.027.001-.054-.005-.079-.017s-.046-.03-.062-.052a.17.17 0 0 1-.03-.075c-.004-.027-.001-.055.009-.08l4.032-12.432c-9.895-1.695-15.857-6.632-16.365-13.561-.565-7.772 5.931-16.087 14.79-18.927.022-.007.044-.009.067-.007s.045.008.065.019.038.025.053.042.026.037.032.059a.19.19 0 0 1 .008.067c-.002.023-.008.045-.019.065s-.025.038-.042.053-.037.026-.059.032c-8.713 2.793-15.104 10.952-14.55 18.572.523 6.799 6.428 11.647 16.276 13.284.025.003.048.012.069.025s.038.031.051.052.021.045.024.069 0 .049-.008.073l-4.095 12.625c-.014.034-.036.062-.066.083s-.065.032-.101.032zm38.91-9.315c-5.261-9.372-7.055-19.288-5.324-29.465.003-.023.01-.046.022-.066s.027-.038.046-.052a.17.17 0 0 1 .063-.029c.023-.005.046-.006.069-.002a.19.19 0 0 1 .065.025c.02.012.037.029.049.049s.022.041.027.064a.16.16 0 0 1-.001.069c-1.715 10.099.063 19.937 5.282 29.241.015.02.025.042.031.066s.006.049.001.073-.015.047-.03.067-.033.036-.055.048-.045.019-.07.022-.049-.001-.073-.009-.044-.022-.062-.039-.032-.038-.041-.061z"/></g><g fill="#cad5ff"><path d="M90.036 89.887v5.753H51.68c0-1.526.606-2.989 1.685-4.068s2.542-1.685 4.068-1.685h32.604z"/><path d="M151.853 62.482l-16.976 32.264c-.138.264-.345.484-.6.638s-.546.235-.844.235H82.358c-.281 0-.558-.073-.803-.212s-.45-.337-.596-.578-.227-.515-.235-.796.055-.56.185-.809l16.982-32.258c.138-.264.345-.484.6-.639s.546-.235.844-.235h51.06c.282-.003.56.068.807.205s.453.336.6.576a1.63 1.63 0 0 1 .238.797c.009.282-.055.561-.186.811z"/></g><path d="M118.141 80.635c-1.569 0-2.322-1.297-1.674-2.845a4.63 4.63 0 0 1 1.558-1.887 4.62 4.62 0 0 1 2.302-.828c1.569 0 2.312 1.318 1.668 2.845a4.62 4.62 0 0 1-1.554 1.887 4.61 4.61 0 0 1-2.3.828zm2.186-5.23c-.76.061-1.49.325-2.113.765s-1.116 1.039-1.428 1.735c-.523 1.297 0 2.369 1.355 2.369a4.25 4.25 0 0 0 3.535-2.499c.544-1.276-.005-2.353-1.349-2.353v-.016zm-56.46 17.661a.73.73 0 0 1-.215.517.73.73 0 0 1-.518.215h-5.355a.73.73 0 1 1 0-1.464h5.371a.73.73 0 0 1 .716.732zm4.408 0a.73.73 0 0 1-.215.518c-.137.137-.324.215-.518.215h-.873a.73.73 0 1 1 0-1.464h.868a.73.73 0 0 1 .282.054.74.74 0 0 1 .399.396c.037.089.056.185.056.281zm63.604-3.153H89.595c-.046 0-.09-.018-.122-.05s-.05-.076-.05-.122.018-.09.05-.122.076-.05.122-.05h42.284c.045 0 .089.018.122.05s.05.076.05.122-.018.09-.05.122-.077.05-.122.05z" fill="#000"/><path d="M68.88 35.114c-.873 1.198-2.557 1.825-4.885 1.825-7.934 0-9.163-4.608-9.21-4.644l-.031-.157a68.57 68.57 0 0 1 14.691.523c.078.426.068.863-.029 1.285s-.279.819-.536 1.168z" fill="#fff"/><path d="M63.995 37.111c-8.289 0-9.362-4.901-9.414-4.937-.005-.024-.004-.049.002-.073s.016-.046.031-.066.033-.036.055-.048.045-.02.069-.022a69.23 69.23 0 0 1 14.733.523c.036.006.069.022.095.048s.044.058.051.094c.086.454.077.921-.026 1.371s-.299.874-.575 1.244c-.9 1.208-2.636 1.867-5.021 1.867zm-9.032-4.817c.052.037 1.286 4.472 9.032 4.472 2.27 0 3.907-.607 4.744-1.752a2.99 2.99 0 0 0 .554-2.212c-4.746-.665-9.549-.835-14.33-.507z" fill="#000"/><path d="M56.876 31.735l-2.359-12.107-.115-.455c1.004-10.13 15.204-19.508 16.773-5.104.371 3.389 2.327 10.763-4.634 12.813h-.052l.774 5.915c1.009 3.18-9.215 2.301-10.387-1.062z" fill="#fff"/><g fill="#000"><path d="M56.731 31.792c0-.052.052.288-2.364-12.134-.084-.282-.115-.45-.115-.45-.002-.017-.002-.035 0-.052.622-6.239 6.339-12.625 11.328-12.646 1.857 0 5.047.988 5.753 7.542a37.45 37.45 0 0 0 .167 1.255c.523 3.661 1.396 9.817-4.832 11.71l.753 5.753c.267.832-.178 1.506-1.266 1.867-2.625.9-8.53-.225-9.424-2.845zm.329-.105c.842 2.374 6.496 3.478 9.017 2.615.905-.303 1.255-.8 1.046-1.47l-.779-5.941c-.005-.037.002-.075.02-.108s.046-.059.079-.076h.078-.037c6.072-1.789 5.23-7.782 4.707-11.365l-.172-1.271c-.523-4.681-2.437-7.233-5.439-7.233-4.299 0-10.329 5.816-10.983 12.311 0 .052.047.199.11.413l2.353 12.123z"/><path d="M71.345 15.271a15.99 15.99 0 0 1 2.249-8.342c2.516-4.268-3.509-10.193-10-4.733 0 0-1.951-4.184-7.28-.957s0 6.025 0 6.025-7.662-.465-6.924 4.336 4.043 6.49 4.043 6.49l4.184-2.322s3.054-1.02 1.402-4.738c0 0 6.438 4.278 11.657.309l.669 3.933z"/></g><path d="M57.944 17.3s-.089-3.415-2.866-4.011-3.964 4.785.523 6.877" fill="#fff"/><g fill="#000"><path d="M55.527 20.328c-2.72-1.271-3.525-3.771-2.918-5.586.413-1.219 1.396-1.857 2.5-1.616 2.882.617 3.007 4.137 3.007 4.184.001.022-.003.045-.011.066s-.02.04-.036.056-.034.029-.055.038-.043.013-.065.013-.046-.002-.067-.01-.041-.02-.058-.035-.03-.035-.039-.056a.17.17 0 0 1-.014-.067c0-.031-.12-3.284-2.73-3.839-1.13-.246-1.825.56-2.092 1.386-.56 1.668.199 3.98 2.735 5.162a.18.18 0 0 1 .088.098c.016.042.014.09-.004.132s-.06.073-.105.086a.18.18 0 0 1-.135-.013zm11.299 9.116c-5.481-.445-6.799-3.457-6.799-3.457 2.053.836 4.282 1.145 6.485.9h-.031l.345 2.557z"/><path d="M66.823 29.617c-5.528-.439-6.883-3.431-6.935-3.556a.17.17 0 0 1-.011-.097c.006-.033.021-.063.044-.087s.052-.041.084-.05a.16.16 0 0 1 .097.004c3.535 1.328 6.114.936 6.396.889.031-.005.063-.002.093.01s.055.031.074.057.03.055.033.087-.003.063-.017.092l.324 2.458c.003.025.001.051-.007.075s-.021.046-.038.065-.039.033-.063.042-.049.013-.075.011zm-6.391-3.305c.565.8 2.238 2.568 6.192 2.939l-.282-2.165a13.54 13.54 0 0 1-5.91-.774zm6.335-5.058c-.043-.015-.078-.047-.098-.088a.17.17 0 0 1-.007-.131c.015-.043.049-.079.091-.098s.09-.022.134-.007c.356.131.983.361 1.308.105.209-.167.157-.523.047-.732a9.8 9.8 0 0 0-.607-.915 4.87 4.87 0 0 1-.581-2.364c-.002-.022 0-.045.007-.066s.018-.041.032-.058.033-.031.053-.041a.16.16 0 0 1 .065-.017c.046-.003.09.012.126.041s.057.071.063.116a4.64 4.64 0 0 0 .523 2.207 10.03 10.03 0 0 1 .628.952c.11.18.156.392.129.601s-.124.403-.276.549c-.445.356-1.156.131-1.637-.052zm3.296-3.63a.64.64 0 0 1-.936.314c-.107-.067-.192-.165-.243-.28s-.067-.243-.046-.368a.64.64 0 0 1 .166-.332c.087-.092.199-.155.323-.183a.64.64 0 0 1 .37.028c.079.029.151.073.212.131a.63.63 0 0 1 .155.691zm-2.108-1.819a.15.15 0 0 1-.026-.061.17.17 0 0 1 0-.066.15.15 0 0 1 .026-.061c.013-.018.029-.034.048-.046 1.444-.962 2.5-.157 2.542-.12.018.013.034.03.045.05a.18.18 0 0 1 .022.064c.003.023.001.045-.005.067s-.017.042-.031.06c-.028.036-.069.059-.114.065a.17.17 0 0 1-.127-.034 1.81 1.81 0 0 0-1.091-.284c-.385.024-.752.169-1.048.415-.019.013-.04.022-.062.026s-.046.005-.068 0-.044-.013-.063-.026-.035-.029-.048-.048zm-2.771 1.909a.64.64 0 0 1-.824.369.64.64 0 0 1-.369-.824.65.65 0 0 1 .826-.371c.157.062.284.183.353.338a.64.64 0 0 1 .013.488zm-2.107-1.8c-.013-.019-.022-.04-.026-.062s-.005-.045 0-.068.013-.044.026-.063a.17.17 0 0 1 .048-.048 2.15 2.15 0 0 1 2.542-.12c.018.014.033.031.044.051s.018.042.021.064.001.046-.005.067a.18.18 0 0 1-.031.06c-.014.018-.031.033-.051.044s-.042.018-.064.021a.17.17 0 0 1-.067-.005c-.022-.006-.042-.017-.06-.031a1.82 1.82 0 0 0-2.134.136c-.038.025-.085.033-.13.025s-.085-.034-.111-.072zm4.459 7.851a2.01 2.01 0 0 1-1.412-.768c-.024-.039-.032-.086-.022-.13s.038-.083.077-.108a.17.17 0 0 1 .13-.022c.044.01.083.038.108.077a1.71 1.71 0 0 0 1.124.607 1.21 1.21 0 0 0 .994-.602.18.18 0 0 1 .112-.069c.045-.008.091.002.128.027.019.013.036.029.048.048s.021.041.025.063.003.046-.002.068-.015.043-.029.061a1.52 1.52 0 0 1-1.281.748z"/></g><path d="M13.75 86.435s11.705 8.765 25.078 4.707 24.633 3.101 25.627 8.755.324 12.84-6.47 18.561c0 0-11.658 6.574-26.15-2.171-7.719-4.66-19.136-20.114-19.136-20.114l1.051-9.738z" fill="#fff"/><g fill="#000"><path d="M57.863 118.552c-.016-.016-.029-.034-.038-.055s-.013-.043-.013-.065a.17.17 0 0 1 .013-.066c.009-.02.021-.039.038-.055 6.956-5.857 7.322-13.242 6.412-18.404-.398-2.244-2.453-4.707-5.502-6.564-5.544-3.394-12.991-4.184-19.916-2.055-12.249 3.734-23.226-3.332-24.984-4.54l-1.009 9.414c-.001.023-.007.045-.018.065s-.025.038-.043.053-.038.025-.06.031-.045.007-.068.003c-.045-.005-.086-.028-.114-.063s-.042-.08-.037-.125l1.046-9.722c.002-.031.012-.06.03-.085s.042-.045.07-.057.059-.017.089-.013.059.016.083.035c.12.084 11.788 8.661 24.921 4.66 7.019-2.139 14.566-1.355 20.198 2.092 3.138 1.919 5.23 4.461 5.659 6.799.931 5.23.523 12.761-6.532 18.723-.032.027-.072.042-.114.041s-.081-.017-.111-.046z"/><path d="M143.027 95.792H62.298a.17.17 0 0 1-.122-.051c-.032-.033-.051-.076-.051-.122a.17.17 0 0 1 .051-.122c.033-.032.076-.05.122-.05h80.729c.046 0 .09.018.122.05a.17.17 0 0 1 .051.122.17.17 0 0 1-.051.122c-.032.032-.076.051-.122.051zm-37.094 68.501l-32.284-11.328c-.04-.018-.071-.05-.088-.09a.17.17 0 0 1 .078-.22.17.17 0 0 1 .125-.014l32.284 11.322c.043.016.078.048.098.089a.17.17 0 0 1 .007.131c-.015.043-.047.079-.088.099s-.088.024-.132.011zm28.572-127.067a1.93 1.93 0 0 1-1.371-3.293 1.93 1.93 0 0 1 2.104-.421c.353.146.654.393.866.711s.326.691.326 1.073a1.93 1.93 0 0 1-.565 1.361c-.36.361-.849.566-1.36.569zm0-3.515a1.57 1.57 0 0 0-1.449.968c-.119.287-.15.602-.089.907a1.57 1.57 0 0 0 2.139 1.143c.287-.119.532-.32.704-.578a1.57 1.57 0 0 0-1.305-2.441z"/></g></svg>