<svg xmlns="http://www.w3.org/2000/svg" width="234" height="194" fill="none"><style><![CDATA[.B{fill:#000}.C{fill:#fff}.D{fill:#cad5ff}.E{fill:#001535}.F{fill:#e84f35}]]></style><path d="M124.101 25.891l-3.117-4.151s-4.225-6.917-5.954-6.473c-2.046.529 3.271 7.466 3.271 7.466-1.181-1.482-2.659-.657-1.977.746-.988-1.057-2.426-.109-1.645 1.047 0 0-1.562.079-.702 2.174.767 1.851 1.998 3.475 3.573 4.714.963.707 2.302 1.26 2.579 4.022" class="C"/><path d="M119.957 35.452c-.257-2.624-1.482-3.138-2.515-3.908-1.596-1.256-2.844-2.902-3.622-4.778-.42-1.023-.425-2.065.598-2.357-.121-.212-.164-.459-.119-.699s.172-.456.361-.61c.192-.143.423-.226.662-.239a1.21 1.21 0 0 1 .682.169 1.06 1.06 0 0 1 .048-.608c.076-.194.207-.36.377-.479a1.16 1.16 0 0 1 1.043-.059c-1.216-1.69-3.459-5.045-3.019-6.295a.73.73 0 0 1 .199-.317c.092-.087.206-.148.33-.177 1.783-.464 5.697 5.826 6.136 6.547l3.108 4.136c.026.034.038.077.032.12a.16.16 0 0 1-.119.136c-.02.005-.042.007-.063.003s-.042-.011-.06-.022-.034-.026-.047-.044l-3.117-4.146c-1.167-1.912-4.447-6.764-5.786-6.424a.4.4 0 0 0-.307.277c-.42 1.216 2.505 5.435 3.667 6.918.026.033.038.076.032.118s-.026.081-.06.107a.16.16 0 0 1-.118.033c-.042-.005-.08-.027-.106-.06-.593-.731-1.226-.835-1.572-.618s-.39.682-.138 1.196c.018.035.022.076.013.114s-.033.072-.066.094-.073.032-.112.027-.076-.024-.102-.053a.99.99 0 0 0-1.339-.242c-.076.067-.137.148-.181.239s-.07.19-.075.291a.77.77 0 0 0 .045.297.76.76 0 0 0 .157.256c.015.024.023.053.023.082s-.008.057-.023.081-.03.049-.053.065-.052.024-.081.024c-.029.049-1.344.04-.563 1.976.755 1.823 1.966 3.421 3.518 4.64 1.26.924 2.377 1.482 2.644 4.136.005.023.006.046.002.069s-.014.045-.027.064-.031.035-.051.047-.042.019-.065.022-.047 0-.069-.007-.042-.019-.059-.035-.031-.035-.04-.057-.013-.045-.013-.068l.01.02z" class="B"/><path d="M124.101 26.307s-.336-6.606-1.601-7.12c-1.012-.41-1.867 1.27-1.783 4.941" class="C"/><path d="M124.097 26.464c-.041 0-.08-.016-.11-.045s-.047-.067-.048-.109c-.128-2.51-.652-6.626-1.482-6.977-1.364-.549-1.591 3.335-1.562 4.813.005.023.003.047-.003.07s-.017.044-.032.063-.035.033-.056.043-.045.015-.069.015-.047-.005-.069-.015-.041-.025-.056-.043-.027-.04-.033-.063-.007-.047-.003-.07c-.044-1.922.262-5.821 2.006-5.114 1.325.539 1.67 6.572 1.705 7.258.001.021-.002.042-.009.062s-.018.038-.032.054-.032.028-.051.037-.04.014-.061.014l-.035.005z" class="B"/><path d="M169.28 46.541l-1.522 1.976c-4.121 4.882-9.21 7.703-14.734 8.573a25.7 25.7 0 0 1-8.707-.163 33.9 33.9 0 0 1-11.256-4.402c-6.843-4.111-13.385-10.777-18.702-19.799l12.467-8.983c11.765 18.712 27.472 14.201 38.6 3.513.252.494-.919-1.853 2.47 5.01l1.384 14.275z" class="F"/><path d="M167.758 48.502c-4.121 4.882-9.21 7.703-14.735 8.573a153.99 153.99 0 0 1 6.276-18.559l8.459 9.986zm54.97 25.358s-4.17 5.677-7.411 6.033-11.192-13.741-11.192-13.741l18.603 7.708z" class="B"/><path d="M207.762 70.179l-2.465 16.049-9.285 60.549v.005l-4.699 30.625h-26.954l14.364-107.227h29.039z" class="C"/><g class="B"><path d="M191.313 177.569H164.36c-.024 0-.047-.005-.068-.014s-.04-.023-.055-.041-.027-.037-.034-.06-.009-.045-.006-.068L178.56 70.164a.16.16 0 0 1 .053-.099c.029-.025.067-.039.106-.039h29.043a.16.16 0 0 1 .066.015c.021.01.039.024.054.041s.026.037.033.059a.17.17 0 0 1 .005.067L191.472 177.43c-.006.038-.025.073-.054.098s-.066.04-.105.041zm-26.771-.321h26.633l16.4-106.906h-28.713l-14.32 106.906z"/><path d="M205.294 86.228l-9.285 60.549-5.267-59.427 14.552-1.122z"/></g><path d="M188.008 70.179l18.564 107.232h26.286L218.499 70.179h-30.491z" class="C"/><path d="M232.85 177.569h-26.282a.16.16 0 0 1-.103-.037c-.029-.025-.049-.059-.055-.097L187.847 70.213a.15.15 0 0 1 .002-.07c.006-.023.017-.044.032-.062a.16.16 0 0 1 .055-.042c.022-.01.045-.014.069-.014h30.486c.04 0 .078.013.108.039s.05.061.055.1l14.359 107.222c.003.023.001.046-.006.068s-.018.043-.034.06-.034.031-.055.041a.18.18 0 0 1-.068.014zm-26.143-.321h25.96L218.338 70.342h-30.141l18.51 106.906z" class="B"/><path d="M222.722 73.86s-14.823-4.941-26.682 1.122-19.335 3.192-19.335 3.192-3.557-1.645-7.975-7.506a56.28 56.28 0 0 1-5.657-9.467c-8.721-18.168-2.303-30.635 2.826-34.311 6.759-4.857 23.89-5.089 32.705 6.211 13.074 16.8 24.118 40.759 24.118 40.759z" class="F"/><path d="M179.073 44.756a73.4 73.4 0 0 1-3.385 19.596c-1.161 3.681-2.08 4.492-6.957 6.315a51.65 51.65 0 0 1-3.528-5.401c3.953-6.255 6.942-13.835 8.949-21.014.232-.83.365-1.69 1.146-2.169s1.976-.721 2.767-.272c.934.553 1.033 1.858 1.008 2.945z" class="B"/><path d="M155.466 193.671l32.567-.108a1.42 1.42 0 0 0 1.408-1.27c.124-1.231-.469-5.198-1.047-8.637l-1.028-6.246h-17.255s1.927 7.249-5.153 6.656-8.894.534-10.125 3.562c-.58 1.483-.847 3.069-.785 4.66.006.371.159.724.424.983a1.41 1.41 0 0 0 .994.4z" class="E"/><path d="M172.922 177.41s11.691 5.099 15.471 6.246l-1.028-6.246h-14.443zm16.526 13.87a6.79 6.79 0 0 1 0 .988 1.42 1.42 0 0 1-1.403 1.275l-32.567.109c-.372 0-.729-.145-.995-.405a1.42 1.42 0 0 1-.428-.983v-.89l35.393-.094z" class="B"/><path d="M197.037 193.671l32.572-.108c.35 0 .687-.13.947-.364a1.41 1.41 0 0 0 .456-.906c.124-1.231-.464-5.198-1.042-8.637l-1.028-6.246h-17.264s1.927 7.249-5.154 6.656-8.894.534-10.124 3.562c-.579 1.483-.848 3.069-.791 4.66a1.41 1.41 0 0 0 1.428 1.383z" class="E"/><path d="M214.5 177.41s11.686 5.099 15.471 6.246l-1.028-6.246H214.5zm16.51 13.87a6.79 6.79 0 0 1 0 .988c-.035.349-.198.671-.457.907a1.42 1.42 0 0 1-.946.368l-32.572.109c-.37-.001-.726-.147-.991-.406a1.42 1.42 0 0 1-.427-.982v-.89l35.393-.094z" class="B"/><path d="M165.514 87.349s.84 3.325-2.031 3.459c-6.122.232-9.26 3.103-7.906 3.192 2.293.153 10.376-.203 15.021 0 .771.035 1.794-1.749 2.565-1.719.928.035 2.47 1.779 3.384 1.759 1.878-.04 2.797-3.231 2.797-3.231l-13.83-3.459z" class="C"/><path d="M176.534 94.183c-.524 0-1.146-.45-1.808-.919-.569-.405-1.157-.825-1.562-.84-.306 0-.746.405-1.166.81s-.934.929-1.403.909c-4.704-.208-12.709.148-15.021 0-.435-.03-.465-.306-.465-.39 0-.86 3.182-2.93 8.366-3.128 1.788-.069 2.263-1.547 1.877-3.236-.007-.027-.007-.056.001-.083s.021-.052.042-.071.045-.034.072-.04.056-.006.083.002l13.835 3.434c.021.005.041.014.059.028s.032.03.042.049.017.04.02.062 0 .044-.007.064c-.04.133-.988 3.306-2.965 3.35zm-10.806-6.616c.311 1.833-.336 3.306-2.229 3.38-5.351.203-8.054 2.332-8.059 2.811 0 .049.139.059.163.064 2.239.143 10.377-.203 15.016 0 .312 0 .737-.415 1.147-.815.494-.494.949-.924 1.398-.909s1.107.45 1.74.904 1.2.855 1.62.855c1.512-.03 2.387-2.322 2.594-2.965l-13.39-3.325z" class="B"/><path d="M199.142 34.568a105.85 105.85 0 0 1-4.126 24.874c-3.35 11.696-8.622 22.863-14.823 33.165l-17.966-5.435c8.77-18.332 13.059-36.208 13.103-52.598l23.812-.005z" class="F"/><path d="M168.553 71.879c-.04-.014-.073-.044-.092-.083s-.021-.084-.006-.124c4.447-12.733 6.685-25.2 6.719-37.103 0-.021.003-.042.011-.062a.16.16 0 0 1 .034-.053c.015-.015.032-.027.052-.035s.04-.013.062-.013c.043 0 .084.017.115.048s.048.072.048.115c-.035 11.923-2.298 24.444-6.735 37.212-.015.041-.045.074-.084.092s-.083.021-.124.007zm19.295 6.462c-.019-.009-.036-.022-.05-.037s-.024-.034-.031-.053-.01-.041-.009-.062.007-.041.016-.06a126.82 126.82 0 0 0 7.11-18.732 110.14 110.14 0 0 0 2.382-9.951c0-.024.006-.047.016-.068s.026-.04.044-.055.04-.026.063-.032.047-.007.07-.002.045.014.064.028.036.032.047.052a.16.16 0 0 1 .021.067c.002.024-.001.047-.009.07a110.81 110.81 0 0 1-2.391 9.981c-1.868 6.437-4.244 12.715-7.106 18.776a.16.16 0 0 1-.038.06c-.017.017-.038.03-.061.037a.17.17 0 0 1-.071.007.16.16 0 0 1-.067-.025z" class="B"/><path d="M166.997 8.187s-6.498 13.341 4.042 13.218l.627 3.024 2.397 3.736 6.196-4.378-1.527-6.685-2.337-10.633-9.398 1.72z" class="C"/><g class="B"><path d="M173.928 28.254l-2.421-3.795-.598-2.891c-2.517 0-4.253-.756-5.208-2.268-2.401-3.79.988-10.87 1.146-11.182.012-.023.029-.043.049-.058s.045-.026.07-.031l9.388-1.72c.02-.004.041-.004.061-.001s.04.012.057.023.031.026.043.044.018.037.022.057l2.342 10.633 1.522 6.685c.007.031.005.063-.006.093s-.029.056-.053.075l-6.197 4.378c-.034.023-.077.031-.117.022s-.077-.032-.1-.067zm-2.11-3.889l2.288 3.572 5.969-4.22-1.483-6.582-2.307-10.48-9.161 1.675c-.356.771-3.31 7.357-1.131 10.796.914 1.438 2.604 2.149 5.064 2.12.038-.002.075.01.104.034s.048.057.054.094l.603 2.989z"/><path d="M165.016 9.393c1.705 1.734 3.301 1.937 9.7.692 0 0-2.081 5.435 3.073 5.06l1.107 2.406s5.04-1.863 2.525-10.287-10.144-3.928-10.144-3.928-3.84-4.19-7.367-3.177-.524 7.575 1.106 9.235z"/></g><path d="M179.746 14.531a2.41 2.41 0 0 1-.407 1.342c-.265.397-.643.707-1.084.89s-.927.231-1.396.137-.899-.323-1.237-.661-.568-.768-.661-1.237a2.41 2.41 0 0 1 .137-1.396c.183-.441.492-.819.89-1.084s.864-.407 1.342-.407a2.42 2.42 0 0 1 2.416 2.416z" class="C"/><g class="B"><path d="M177.329 17.111a2.58 2.58 0 0 1-1.433-.435c-.424-.283-.754-.686-.95-1.157a2.57 2.57 0 0 1-.146-1.49 2.58 2.58 0 0 1 .705-1.321c.361-.361.821-.606 1.321-.706a2.58 2.58 0 0 1 3.082 2.53 2.58 2.58 0 0 1-2.579 2.58zm0-4.832c-.445 0-.881.132-1.252.38a2.25 2.25 0 0 0-.958 2.313 2.26 2.26 0 0 0 .617 1.154 2.25 2.25 0 0 0 1.154.617 2.26 2.26 0 0 0 2.313-.958 2.26 2.26 0 0 0 .379-1.252 2.25 2.25 0 0 0-2.253-2.253zm-6.29 9.121c1.3-.114 2.594-.86 3.879-1.977-.266.831-.715 1.591-1.313 2.226a5.84 5.84 0 0 1-2.146 1.441l-.42-1.69z"/><path d="M171.285 23.135l-.405-1.69c-.006-.023-.007-.046-.002-.069s.013-.045.027-.064.031-.034.052-.046.043-.018.066-.019c1.162-.104 2.397-.736 3.785-1.937.028-.023.062-.036.098-.038s.072.009.101.03a.17.17 0 0 1 .062.085c.011.034.009.071-.004.105a6.01 6.01 0 0 1-1.358 2.282c-.617.65-1.372 1.153-2.209 1.474-.022.008-.044.012-.067.011s-.046-.008-.066-.018a.15.15 0 0 1-.051-.044c-.014-.018-.024-.039-.029-.062zm-.049-1.586l.321 1.334c1.328-.547 2.391-1.589 2.965-2.905a6.88 6.88 0 0 1-3.286 1.571zm.255-7.279a.63.63 0 0 1-.752.626c-.123-.024-.236-.084-.325-.172s-.15-.201-.175-.324-.012-.25.035-.366a.63.63 0 0 1 .585-.392.63.63 0 0 1 .632.627zm-3.961-.47a.63.63 0 0 1-1.077.454c-.089-.088-.15-.201-.175-.324s-.012-.25.035-.366a.63.63 0 0 1 .585-.392.63.63 0 0 1 .632.627z"/></g><path d="M166.414 12.047a1.38 1.38 0 0 1 1.101-.242c.19.039.37.118.527.231a1.38 1.38 0 0 1 .388.426" class="C"/><path d="M168.296 12.555a1.22 1.22 0 0 0-.339-.387 1.21 1.21 0 0 0-.983-.209 1.2 1.2 0 0 0-.467.216c-.035.025-.078.036-.121.03a.16.16 0 0 1-.106-.064c-.025-.035-.035-.078-.028-.12s.029-.08.062-.107c.173-.129.372-.22.583-.267a1.53 1.53 0 0 1 .64-.007c.212.043.412.13.588.255a1.53 1.53 0 0 1 .432.473.15.15 0 0 1 .029.056c.005.02.006.042.003.063s-.011.041-.022.059a.17.17 0 0 1-.044.045c-.017.013-.037.023-.057.028s-.043.007-.064.003-.042-.011-.06-.022-.034-.027-.046-.044z" class="B"/><path d="M170.133 12.659c.156-.115.335-.195.524-.236a1.39 1.39 0 0 1 1.103.227c.158.113.29.257.389.424" class="C"/><g class="B"><path d="M172.026 13.173c-.085-.152-.201-.284-.34-.387a1.23 1.23 0 0 0-.47-.212 1.22 1.22 0 0 0-.984.214c-.016.013-.035.022-.055.027s-.041.007-.062.004-.041-.01-.059-.02a.15.15 0 0 1-.046-.041c-.026-.034-.038-.077-.032-.12s.028-.081.061-.107a1.55 1.55 0 0 1 .583-.268c.211-.048.43-.05.642-.008a1.54 1.54 0 0 1 .589.254 1.56 1.56 0 0 1 .435.472c.012.018.021.037.026.058a.17.17 0 0 1 .001.064.16.16 0 0 1-.023.059c-.011.018-.026.034-.044.046a.16.16 0 0 1-.118.027c-.041-.007-.079-.029-.104-.062zm-4.253 2.969a.6.6 0 0 1-.422-.884c.063-.112.161-.201.279-.253l.444-.188c.285-.129.517-.352.657-.632.134-.284.167-.604.094-.909-.01-.042-.004-.086.019-.123s.058-.064.1-.074c.02-.005.042-.006.062-.003s.041.011.059.022.034.026.046.043.021.037.025.057a1.64 1.64 0 0 1-.118 1.127 1.69 1.69 0 0 1-.815.791c-.144.064-.292.104-.415.173-.317.178-.218.494.069.544a1.24 1.24 0 0 0 .598-.04.16.16 0 0 1 .133.011c.02.011.038.027.051.045s.024.04.029.062a.16.16 0 0 1 0 .069c-.005.023-.014.044-.028.062s-.031.034-.051.046-.042.018-.065.021c-.244.073-.502.085-.751.035zm-.066 2.115a1.55 1.55 0 0 1-1.028-.494c-.014-.016-.024-.034-.03-.054s-.01-.041-.008-.062.007-.041.017-.06a.15.15 0 0 1 .038-.049c.016-.014.035-.024.055-.03s.04-.009.061-.007.042.007.06.017a.16.16 0 0 1 .049.038 1.3 1.3 0 0 0 .81.385 1.66 1.66 0 0 0 .638-.128 1.64 1.64 0 0 0 .538-.366c.015-.015.033-.027.052-.036s.041-.013.062-.013a.15.15 0 0 1 .062.013c.02.009.037.02.052.036.029.03.046.071.046.114s-.017.083-.046.114c-.187.188-.41.336-.655.437a1.97 1.97 0 0 1-.773.147zM49.482 183.72c-.042 0-.082-.016-.112-.046a.16.16 0 0 1-.046-.112v-47.568a.16.16 0 0 1 .046-.112c.03-.029.07-.046.112-.046.021-.001.042.003.062.011s.038.019.053.034.027.032.036.051.013.041.013.062v47.568a.15.15 0 0 1-.013.062c-.009.02-.02.037-.036.052a.16.16 0 0 1-.053.034c-.02.007-.041.011-.062.01z"/><path d="M66.665 190.964c-.043 0-.085-.017-.115-.047s-.048-.073-.048-.116v-.331c-.001-1.789-.712-3.504-1.977-4.769a6.75 6.75 0 0 0-4.768-1.98H33.911c-1.789.002-3.505.714-4.77 1.979a6.76 6.76 0 0 0-1.98 4.77v.331c.001.021-.003.043-.011.062s-.019.038-.034.053a.16.16 0 0 1-.052.036c-.019.008-.04.012-.062.012-.043 0-.085-.017-.115-.047s-.048-.073-.048-.116v-.331c.003-1.874.749-3.671 2.074-4.997s3.122-2.071 4.997-2.074h25.847c1.874.003 3.671.749 4.995 2.075s2.069 3.122 2.071 4.996v.331c.001.021-.003.043-.011.062s-.019.038-.034.053-.032.028-.052.036-.04.012-.062.012z"/><path d="M66.664 190.964c-.043 0-.085-.017-.115-.047s-.048-.073-.048-.116v-.331c-.001-1.789-.712-3.504-1.977-4.769a6.75 6.75 0 0 0-4.768-1.98H49.484a6.76 6.76 0 0 0-6.745 6.749v.331c0 .043-.017.085-.048.116s-.072.047-.115.047c-.021 0-.042-.004-.062-.012s-.037-.021-.052-.036-.026-.033-.034-.053-.011-.041-.011-.062v-.331c.001-1.874.746-3.671 2.071-4.996s3.121-2.072 4.995-2.075h10.273c1.874.003 3.67.749 4.995 2.075s2.069 3.122 2.071 4.996v.331c.001.021-.003.043-.011.062s-.019.038-.034.053a.16.16 0 0 1-.052.036c-.02.008-.041.012-.062.012z"/></g><g class="D"><path d="M29.491 190.945a2.42 2.42 0 0 1-1.495 2.236 2.41 2.41 0 0 1-1.399.138 2.42 2.42 0 0 1-1.902-1.902 2.42 2.42 0 0 1 .138-1.399 2.43 2.43 0 0 1 .892-1.087 2.42 2.42 0 0 1 1.345-.408c.318 0 .633.063.927.185a2.41 2.41 0 0 1 1.31 1.31c.122.294.184.609.184.927z"/><path d="M27.071 193.593a2.65 2.65 0 0 1-2.452-1.639c-.201-.485-.253-1.019-.15-1.534a2.65 2.65 0 0 1 .728-1.358c.372-.371.845-.624 1.36-.725a2.65 2.65 0 0 1 2.723 1.132 2.65 2.65 0 0 1 .243 2.49c-.133.322-.329.614-.575.86a2.65 2.65 0 0 1-.861.574 2.64 2.64 0 0 1-1.015.2zm0-4.837a2.19 2.19 0 0 0-1.216.368c-.36.241-.641.583-.806.983a2.19 2.19 0 0 0 .474 2.385c.306.306.696.515 1.121.599a2.19 2.19 0 0 0 2.247-.93 2.19 2.19 0 0 0 .369-1.217c0-.58-.231-1.137-.641-1.547s-.967-.641-1.548-.641z"/></g><path d="M28.184 190.945c0 .22-.065.435-.187.617a1.11 1.11 0 0 1-1.141.473c-.216-.043-.414-.149-.569-.304s-.261-.354-.304-.569-.021-.44.063-.643.227-.376.409-.499a1.11 1.11 0 0 1 1.404.139 1.11 1.11 0 0 1 .326.786z" class="C"/><g class="D"><path d="M44.999 190.945a2.42 2.42 0 0 1-1.495 2.236 2.41 2.41 0 0 1-1.399.138 2.42 2.42 0 0 1-1.902-1.902 2.42 2.42 0 0 1 .138-1.399 2.43 2.43 0 0 1 .892-1.087 2.42 2.42 0 0 1 1.345-.408c.318 0 .633.063.927.185s.561.3.785.525.403.491.525.785.184.609.184.927z"/><path d="M42.575 193.593a2.65 2.65 0 0 1-2.452-1.639c-.201-.485-.253-1.019-.15-1.534a2.65 2.65 0 0 1 .728-1.358c.371-.371.845-.624 1.36-.725a2.65 2.65 0 0 1 2.723 1.132 2.65 2.65 0 0 1 .243 2.49c-.133.322-.329.614-.575.86a2.65 2.65 0 0 1-.861.574 2.64 2.64 0 0 1-1.015.2zm0-4.837a2.19 2.19 0 0 0-2.019 1.354 2.19 2.19 0 0 0 .478 2.384c.306.306.696.514 1.121.598a2.19 2.19 0 0 0 2.246-.932 2.19 2.19 0 0 0 .369-1.216c-.001-.581-.233-1.137-.644-1.548s-.968-.64-1.55-.64z"/></g><path d="M43.683 190.945c.001.221-.064.437-.186.621a1.11 1.11 0 0 1-.5.414c-.204.085-.429.108-.646.066a1.12 1.12 0 0 1-.573-.305c-.157-.156-.264-.355-.307-.572s-.022-.441.063-.645a1.11 1.11 0 0 1 .411-.502c.184-.123.4-.189.621-.189a1.12 1.12 0 0 1 1.117 1.112z" class="C"/><g class="D"><path d="M69.084 190.945a2.42 2.42 0 0 1-1.493 2.236c-.442.183-.929.232-1.398.139s-.901-.324-1.24-.662a2.42 2.42 0 0 1-.664-1.238c-.094-.469-.047-.956.136-1.399s.492-.82.89-1.087a2.42 2.42 0 0 1 1.344-.411 2.44 2.44 0 0 1 .928.183 2.43 2.43 0 0 1 .787.525c.225.225.404.492.526.786a2.42 2.42 0 0 1 .185.928z"/><path d="M66.661 193.593a2.65 2.65 0 0 1-2.452-1.639c-.201-.485-.253-1.019-.15-1.534s.356-.988.727-1.358.845-.624 1.36-.725a2.65 2.65 0 0 1 2.723 1.132 2.65 2.65 0 0 1-.334 3.348 2.65 2.65 0 0 1-1.875.776zm0-4.837a2.19 2.19 0 0 0-2.019 1.354 2.19 2.19 0 0 0 .478 2.384c.306.306.696.514 1.121.598a2.19 2.19 0 0 0 2.246-.932 2.19 2.19 0 0 0 .368-1.216c-.001-.581-.233-1.137-.644-1.548s-.969-.64-1.55-.64z"/></g><path d="M67.778 190.945a1.11 1.11 0 0 1-.686 1.027 1.11 1.11 0 0 1-.642.063c-.216-.043-.414-.149-.569-.304s-.261-.354-.304-.569-.021-.44.063-.643.227-.376.409-.499.398-.187.618-.187a1.11 1.11 0 0 1 1.112 1.112z" class="C"/><path d="M121.143 192.362a1.32 1.32 0 0 1-.397.919c-.248.242-.581.377-.928.376l-30.422-.109c-.327.002-.642-.119-.885-.339s-.394-.521-.424-.847c-.119-1.146.435-4.857.988-8.069l.959-5.83h16.118s-1.803 6.769 4.813 6.216l2.693-.139c4.447-.054 5.791 1.068 6.764 3.459l.03.084c.514 1.366.749 2.821.692 4.279z" class="E"/><path d="M103.51 178.482s-10.915 4.764-14.448 5.836l.963-5.836h13.484zm-15.423 12.956a6.55 6.55 0 0 0 0 .944 1.32 1.32 0 0 0 1.309 1.191l30.422.104c.346-.001.678-.137.925-.379a1.33 1.33 0 0 0 .399-.916v-.83l-33.056-.114z" class="B"/><path d="M41.237 98.214s-6.715 30.546 9.136 30.047 36.53 0 36.53 0L82.9 178.478h27.043s15.377-72.585-2.471-78.638c-11.453-3.879-66.235-1.626-66.235-1.626z" class="C"/><path d="M109.943 178.646H82.901c-.022-.001-.044-.006-.064-.015s-.038-.023-.053-.04-.026-.036-.033-.057-.01-.044-.007-.066l3.988-50.044c-2.021-.049-21.445-.494-36.352 0-3.019.104-5.435-.929-7.219-3.053-6.295-7.58-2.125-26.994-2.08-27.176.008-.035.026-.066.053-.089s.06-.037.096-.039c.548-.025 54.95-2.209 66.305 1.64 7.481 2.539 10.179 16.587 8.029 41.757-1.146 12.441-2.961 24.812-5.435 37.058-.009.04-.033.075-.067.098s-.075.032-.116.026zm-26.865-.326h26.737c.711-3.459 14.769-72.501-2.387-78.322-11.038-3.745-63.122-1.744-66.062-1.63-.341 1.66-3.899 19.646 2.041 26.795 1.695 2.041 4.042 3.029 6.962 2.935 15.668-.494 36.332 0 36.54 0a.16.16 0 0 1 .064.017c.02.01.038.023.052.039a.17.17 0 0 1 .033.057.18.18 0 0 1 .009.065L83.08 178.32zm16.51-65.924s7.614 13.227.687 57.662l-8.213-2.07s.988-49.742 7.525-55.592zm4.791 51.95a60.42 60.42 0 0 1 4.106-33.105c1.275-2.965 2.841-5.93 3.37-9.122.954-5.786-1.734-12.239-6.848-16.444-5.534-4.551-12.506-5.801-17.378-6.043-.023.004-.047.003-.07-.003a.16.16 0 0 1-.063-.033c-.018-.015-.033-.034-.043-.056s-.015-.045-.015-.069.005-.047.015-.069.025-.041.043-.056.04-.026.063-.033.047-.007.07-.003c4.941.247 11.963 1.482 17.57 6.117 5.199 4.274 7.906 10.871 6.958 16.741-.534 3.241-2.115 6.24-3.39 9.2a60.08 60.08 0 0 0-4.086 32.928c.007.042-.003.086-.028.121s-.063.059-.106.066-.08-.01-.111-.035a.16.16 0 0 1-.057-.103z" class="B"/><path d="M27.575 129.808h44.099v-1.868c-2.055-.059-4.023-.841-5.559-2.207s-2.542-3.23-2.841-5.264L52.325 48.364a4.02 4.02 0 0 0-4.58-3.37H4.875l12.427 83.505 10.273 1.309z" class="C"/><path d="M71.674 129.971H27.555l-10.292-1.335c-.034-.003-.067-.019-.092-.043s-.041-.056-.047-.09L4.693 44.998c-.003-.023-.001-.046.006-.068s.019-.043.034-.06.034-.031.055-.041.044-.014.067-.014h42.869c1.093-.161 2.205.116 3.093.773s1.48 1.638 1.646 2.73l10.954 72.105a8.63 8.63 0 0 0 8.261 7.338c.041.001.08.018.109.048s.045.069.045.11v1.868c.004.022.002.046-.004.068s-.017.043-.032.06-.034.031-.055.041a.17.17 0 0 1-.067.014zm-44.085-.327h43.922v-1.551a8.95 8.95 0 0 1-8.4-7.599l-10.95-72.106a3.86 3.86 0 0 0-4.398-3.231H5.053l12.387 83.174 10.149 1.314z" class="B"/><g class="D"><path d="M71.65 135.994H27.872a16.75 16.75 0 0 1-16.656-14.329L.261 49.564a4.02 4.02 0 0 1 3.388-4.471 4.02 4.02 0 0 1 4.562 3.266l10.954 72.105c.307 2.087 1.357 3.992 2.956 5.367s3.641 2.125 5.75 2.114H71.65a4.01 4.01 0 0 1 1.582.265c.504.193.964.486 1.353.861s.698.825.909 1.322a4.02 4.02 0 0 1 .32 1.572c0 .54-.109 1.074-.32 1.572a4.02 4.02 0 0 1-.909 1.321c-.389.375-.849.668-1.353.862a4.03 4.03 0 0 1-1.582.264v.01z"/><path d="M71.65 136.227H27.872a16.98 16.98 0 0 1-16.884-14.512L.034 49.609a4.25 4.25 0 0 1 .826-3.095 4.25 4.25 0 0 1 5.867-.89 4.25 4.25 0 0 1 1.707 2.711l10.955 72.106c.299 2.032 1.321 3.889 2.878 5.227a8.53 8.53 0 0 0 5.6 2.061h43.778a4.25 4.25 0 0 1 4.249 4.25 4.25 4.25 0 0 1-4.249 4.249h.005zm-67.99-91c-.993.151-1.886.69-2.483 1.499S.329 48.546.478 49.54l10.954 72.106c.578 3.938 2.559 7.534 5.577 10.129s6.872 4.012 10.852 3.992H71.64a3.79 3.79 0 0 0 2.68-1.11c.711-.71 1.11-1.674 1.11-2.679a3.79 3.79 0 0 0-3.79-3.79H27.872a8.98 8.98 0 0 1-8.934-7.679L7.984 48.404c-.074-.493-.245-.967-.503-1.393s-.597-.798-.999-1.094-.858-.508-1.342-.626-.987-.14-1.48-.064z"/></g><path d="M84.65 98.481H32.422c-3.708-1.242-7.11-3.258-9.979-5.915s-5.14-5.894-6.662-9.496c-2.22-5.165-2.852-10.874-1.813-16.4 1.976-10.46 10.095-20.609 26.282-25.728 9.309-2.965 31.495.217 38.378 7.14C88.81 58.315 84.65 98.481 84.65 98.481z" fill="#6680ff"/><path d="M45.165 84.647s1.675 1.546 5.633.786 11.113-.465 13.035 8.148H42.418l2.747-8.933z" class="C"/><g class="B"><path d="M63.82 93.817H42.405c-.036.001-.072-.007-.105-.023s-.061-.039-.083-.068-.036-.063-.042-.099-.003-.073.008-.107l2.752-8.938a.23.23 0 0 1 .06-.097c.028-.027.062-.046.099-.057s.077-.011.114-.002.073.027.102.052c0 0 1.66 1.453 5.435.736 2.574-.494 11.147-1.349 13.306 8.321.007.034.007.07-.001.104s-.024.066-.046.093-.051.049-.083.063-.067.022-.102.021zm-21.104-.459h20.812c-2.164-8.973-10.253-8.163-12.699-7.693-3.162.608-4.911-.222-5.549-.637l-2.564 8.331z"/><path d="M42.048 94.237a.23.23 0 0 1-.078-.043c-.023-.019-.042-.043-.056-.069s-.022-.056-.025-.086.001-.06.01-.088l3.385-10.46c-8.4-1.482-13.465-5.682-13.894-11.602-.494-6.651 5.065-13.761 12.639-16.192.059-.017.122-.011.177.018s.096.077.115.135c.009.029.013.059.01.089s-.011.059-.025.086-.033.05-.056.07-.05.034-.078.043c-7.382 2.367-12.797 9.269-12.328 15.723.42 5.746 5.435 9.838 13.781 11.221.033.006.063.019.091.038a.23.23 0 0 1 .067.072c.017.028.027.06.031.093s0 .066-.011.098L42.344 94.09c-.009.03-.024.057-.044.081s-.045.043-.072.057-.058.022-.089.024-.062-.003-.091-.014zm33.09-7.931c-4.487-7.99-6.013-16.444-4.541-25.126.012-.059.046-.112.096-.147s.111-.05.171-.041.114.045.149.095.049.112.039.172c-1.458 8.573.054 16.923 4.487 24.824.029.053.035.116.019.174a.23.23 0 0 1-.108.138.2.2 0 0 1-.085.029c-.03.003-.061.002-.09-.007s-.056-.023-.08-.042-.043-.043-.057-.07z"/></g><path d="M25.802 98.214s-6.71 30.546 9.136 30.047 36.535 0 36.535 0l-4.002 50.217h27.038s15.381-72.585-2.471-78.638c-11.454-3.879-66.236-1.626-66.236-1.626z" class="C"/><path d="M94.506 178.646H67.468c-.022-.001-.044-.006-.065-.015s-.039-.023-.054-.04-.027-.036-.034-.057-.011-.044-.01-.066l3.987-50.044c-2.016-.049-21.444-.494-36.352 0-3.024.104-5.435-.929-7.219-3.053-6.295-7.58-2.125-26.994-2.08-27.176.008-.035.027-.067.055-.09s.062-.037.098-.038c.549-.025 54.945-2.209 66.3 1.64 7.481 2.539 10.184 16.587 8.029 41.757-1.155 12.442-2.977 24.812-5.46 37.058-.008.036-.028.068-.057.09a.16.16 0 0 1-.101.034zm-26.865-.326h26.736c.712-3.459 14.769-72.501-2.387-78.322-11.034-3.745-63.123-1.744-66.058-1.63-.346 1.66-3.899 19.646 2.036 26.795 1.7 2.041 4.042 3.029 6.962 2.935 15.668-.494 36.337 0 36.54 0 .044.005.086.024.119.055.015.016.026.036.033.057s.009.044.007.066l-3.987 50.044zm-56.544 15.525c-.021.001-.042-.003-.062-.011s-.038-.019-.053-.034-.027-.032-.036-.052-.012-.04-.012-.061V98.481a.16.16 0 0 1 .048-.115c.031-.03.072-.048.115-.048a.16.16 0 0 1 .115.048c.03.031.048.072.048.115v95.201a.16.16 0 0 1-.011.063.17.17 0 0 1-.035.054c-.015.015-.034.027-.054.035s-.042.012-.063.011zm184.011 0c-.021.001-.042-.003-.062-.011a.16.16 0 0 1-.053-.034c-.015-.014-.027-.032-.035-.052s-.013-.04-.013-.061V98.481c0-.043.018-.085.048-.115s.072-.048.115-.048.085.017.116.048.048.072.048.115v95.201c0 .021-.004.043-.011.063a.16.16 0 0 1-.036.054c-.015.015-.033.027-.053.035s-.042.012-.064.011z" class="B"/><path d="M204.112 94.02H3.527v4.457h200.585V94.02z" class="C"/><path d="M204.107 98.634H3.498c-.042 0-.082-.017-.112-.046s-.046-.07-.046-.112v-4.447c-.001-.021.003-.042.01-.062s.019-.038.034-.053.032-.027.052-.035.04-.012.062-.012h200.609c.043 0 .085.017.116.048s.047.072.047.115v4.447c0 .021-.004.042-.012.062s-.021.037-.036.052-.033.026-.053.034a.16.16 0 0 1-.062.011zM3.686 98.313h200.258v-4.131H3.686v4.131z" class="B"/><path d="M100.537 192.362c-.006.347-.149.677-.397.919a1.32 1.32 0 0 1-.927.376l-30.422-.109c-.327.002-.643-.119-.885-.339s-.394-.521-.425-.847c-.119-1.146.44-4.857.988-8.069l.964-5.83h16.118s-1.803 6.769 4.813 6.216l2.051-.124c4.941-.173 6.379.939 7.412 3.459.035.074.064.153.094.232.467 1.32.676 2.717.618 4.116z" class="E"/><path d="M82.906 178.482s-10.915 4.764-14.453 5.836l.964-5.836h13.489zm-15.421 12.956a6.7 6.7 0 0 0 0 .944c.032.327.184.629.427.849a1.32 1.32 0 0 0 .887.342l30.417.104c.346-.001.679-.137.927-.379a1.33 1.33 0 0 0 .402-.916v-.83l-33.061-.114z" class="B"/><g class="D"><path d="M75.429 89.133v4.902H42.793a4.88 4.88 0 0 1 1.428-3.455 4.88 4.88 0 0 1 3.454-1.432l27.754-.015z"/><path d="M128.031 65.826l-14.447 27.453a1.39 1.39 0 0 1-1.231.741H68.906c-.239 0-.475-.061-.683-.179s-.383-.287-.507-.492a1.39 1.39 0 0 1-.04-1.365l14.448-27.453c.118-.224.296-.411.512-.541s.465-.2.718-.2h43.447c.24 0 .475.061.683.179a1.38 1.38 0 0 1 .507.492c.124.205.193.438.2.677s-.048.476-.16.688z"/></g><path d="M99.342 81.281c-1.354 0-1.976-1.126-1.438-2.436a3.95 3.95 0 0 1 3.301-2.317c1.349 0 1.976 1.122 1.433 2.441-.292.645-.752 1.2-1.332 1.607a3.95 3.95 0 0 1-1.964.705zm1.863-4.447c-.645.051-1.264.275-1.793.648a3.6 3.6 0 0 0-1.211 1.472c-.45 1.077 0 1.977 1.141 1.977a3.61 3.61 0 0 0 2.999-2.115c.45-1.057 0-1.967-1.136-1.967v-.015zM53.16 91.85c0 .082-.016.163-.047.238s-.077.144-.135.202-.127.104-.202.135a.62.62 0 0 1-.238.047h-4.571a.62.62 0 0 1-.238-.047c-.075-.031-.144-.077-.202-.135s-.104-.127-.135-.202a.62.62 0 0 1-.047-.238c-.001-.082.015-.163.046-.239a.62.62 0 0 1 .338-.337c.076-.031.157-.047.239-.046h4.571a.62.62 0 0 1 .442.181c.058.058.104.127.135.203a.62.62 0 0 1 .046.239zm3.752 0c0 .082-.016.163-.047.238s-.077.144-.135.202a.62.62 0 0 1-.44.182h-.746c-.164-.001-.321-.068-.437-.184a.62.62 0 0 1-.181-.439.61.61 0 0 1 .046-.238.62.62 0 0 1 .571-.384h.741c.082-.001.164.014.241.045s.146.076.204.135a.62.62 0 0 1 .183.443zm58.91-2.668H75.058a.16.16 0 0 1-.115-.048c-.03-.031-.048-.072-.048-.115a.16.16 0 0 1 .048-.115c.031-.03.072-.048.115-.048h40.764a.16.16 0 0 1 .115.048c.03.031.048.072.048.115a.16.16 0 0 1-.048.115c-.031.03-.072.048-.115.048z" class="B"/><path d="M47.215 39.683L45.204 29.38l-.099-.385c3.217-6.675 6.71-15.965 14.275-4.343 0 0 1.977 9.161-3.953 10.905h-.025l.287 2.169.371 2.861c.855 2.683-7.852 1.932-8.845-.904z" class="C"/><g class="B"><path d="M47.062 39.712L45.056 29.41a3.86 3.86 0 0 1-.094-.381c-.012-.034-.012-.07 0-.104 1.868-3.879 4.21-9.719 7.669-9.956 2.105-.138 4.343 1.69 6.888 5.593.002.018.002.036 0 .054 0 .094 1.922 9.235-3.953 11.063l.642 4.897c.227.712-.153 1.295-1.087 1.606-2.258.726-7.283-.237-8.059-2.471zm.306-.094c.716 2.011 5.514 2.965 7.654 2.233.761-.252 1.057-.667.875-1.23l-.662-5.06c-.004-.034.003-.069.02-.099s.043-.054.074-.069h.074c5.544-1.63 3.953-10.124 3.829-10.683-2.471-3.785-4.635-5.549-6.582-5.435-3.315.222-5.707 6.246-7.372 9.719 0 .064.039.173.084.321l2.006 10.302z"/><path d="M59.412 25.071s-.386-1.542-2.54-3.202-5.233-1.626-5.109 1.833-2.713 2.47-2.713 2.47 1.196.988-.929 1.196-4.175-2.1-4.175-2.1-2.159-7.54 6.285-7.155a7.33 7.33 0 0 0 2.904-1.02c.885-.542 1.645-1.265 2.229-2.122 1.833-2.861 4.734-.356 3.755 2.861 0 0 1.383-3.108 4.235-.494s-.894 6.656-3.943 7.733z"/></g><path d="M48.13 27.374s-.074-2.905-2.441-3.409-3.37 4.071.45 5.85" class="C"/><g class="B"><path d="M46.062 29.958c-2.322-1.077-3.009-3.217-2.471-4.768.351-1.043 1.191-1.586 2.144-1.384 2.471.524 2.569 3.533 2.569 3.563 0 .043-.016.084-.046.115s-.07.05-.112.053c-.021.001-.042-.003-.062-.011s-.038-.019-.053-.034-.027-.032-.035-.052a.16.16 0 0 1-.012-.062c0-.03-.104-2.787-2.312-3.256a1.52 1.52 0 0 0-1.774 1.171c-.494 1.413.168 3.375 2.317 4.373a.16.16 0 0 1 .053.037c.015.016.026.034.034.055a.14.14 0 0 1 .009.064.16.16 0 0 1-.017.062c-.008.022-.021.042-.038.059s-.038.029-.06.036-.046.009-.07.006-.045-.013-.065-.026zm9.618 7.748c-4.664-.376-5.781-2.965-5.781-2.965a11.23 11.23 0 0 0 5.519.766h-.025l.287 2.199z"/><path d="M55.682 37.869c-.044 0-4.729-.282-5.929-3.039-.013-.029-.017-.061-.012-.092s.02-.06.041-.083.05-.039.081-.045a.16.16 0 0 1 .092.008 11.06 11.06 0 0 0 5.435.756c.029-.004.058-.001.085.01s.05.029.068.052.029.051.032.08-.001.058-.013.085l.272 2.085c.004.022.002.045-.004.067s-.017.042-.031.059-.033.031-.053.041-.043.015-.065.015zm-5.401-2.797c.494.692 1.927 2.144 5.213 2.471l-.237-1.808a11.58 11.58 0 0 1-4.976-.662zm5.309-3.642a.16.16 0 1 1 .109-.301c.336.124.835.287 1.122 0 .366-.346.064-.934-.168-1.324-.544-.909-.568-1.581-.563-2.718 0-.021.004-.042.012-.062s.02-.037.036-.052.033-.026.053-.034.041-.011.062-.011a.16.16 0 0 1 .062.012c.02.008.037.02.052.036s.026.033.034.053.011.041.011.062c0 1.072 0 1.7.494 2.55.341.578.603 1.26.114 1.72-.376.415-.954.242-1.428.069zm2.873-3.606a.59.59 0 0 1-.538.38.6.6 0 0 1-.332-.091c-.099-.062-.178-.153-.225-.26a.6.6 0 0 1 .111-.65.59.59 0 0 1 .642-.145.59.59 0 0 1 .197.122c.057.053.102.118.134.189a.59.59 0 0 1 .01.454zm-3.658-.495a.5.5 0 0 1-.268.301.49.49 0 0 1-.202.043c-.069 0-.138-.015-.202-.043-.097-.036-.181-.101-.242-.185s-.095-.185-.098-.289.024-.206.079-.294a.52.52 0 0 1 .23-.2c.095-.042.2-.056.302-.038s.197.065.273.136a.52.52 0 0 1 .128.569zm-1.995-1.196c-.015-.015-.027-.032-.036-.052s-.013-.04-.013-.062.004-.042.013-.062.02-.037.036-.052c.332-.338.761-.562 1.228-.642s.946-.011 1.371.198c.018.01.034.024.047.041s.022.036.028.056.007.041.004.062-.01.041-.02.059c-.022.037-.057.064-.099.076a.16.16 0 0 1-.123-.016c-.044 0-1.043-.603-2.224.415-.032.023-.071.033-.11.03s-.075-.021-.102-.05zm6.408.287c-.035-.035-.86-.835-2.258-.143a.16.16 0 0 1-.118 0c-.038-.015-.069-.043-.087-.08s-.022-.079-.01-.118.037-.073.072-.094a2.26 2.26 0 0 1 2.629.212.15.15 0 0 1 .035.051c.008.019.012.04.012.06s-.004.041-.012.061a.15.15 0 0 1-.035.051c-.015.015-.032.027-.052.036a.16.16 0 0 1-.175-.036z"/><path d="M55.793 33.723c-.232-.047-.452-.141-.647-.276s-.359-.308-.485-.509c-.019-.039-.022-.083-.008-.124a.16.16 0 0 1 .082-.093c.019-.009.039-.015.06-.016s.042.002.062.009a.15.15 0 0 1 .053.032c.015.014.028.031.037.05.208.309.526.527.889.608a.99.99 0 0 0 .879-.415.16.16 0 0 1 .114-.046c.043 0 .083.017.114.046.015.015.027.032.036.052a.15.15 0 0 1 .013.062.15.15 0 0 1-.013.062c-.009.02-.02.037-.036.052a1.31 1.31 0 0 1-1.151.509zm176.19 137.298h-26.539c-.043 0-.084-.017-.115-.047s-.048-.072-.048-.116c0-.021.004-.042.013-.061s.02-.037.035-.052.033-.027.053-.034.041-.011.062-.011h26.539c.021 0 .042.003.062.011s.038.019.053.034.027.032.036.052.012.04.012.061c0 .044-.017.085-.048.116s-.072.047-.115.047zm-39.667-.799h-26.973c-.043 0-.085-.018-.116-.048s-.047-.072-.047-.115a.16.16 0 0 1 .012-.062c.008-.02.021-.037.036-.052s.033-.026.053-.034.041-.011.062-.011h26.973c.022 0 .043.003.062.011s.038.019.053.034.028.032.036.052a.16.16 0 0 1 .012.062c0 .043-.017.084-.047.115s-.072.048-.116.048zm37.644-12.62c-.025-.001-.049-.007-.071-.018a.17.17 0 0 1-.057-.046c-12.491-16.015-14.26-33.778-13.549-45.859.776-13.084 4.551-22.512 4.591-22.606.012-.034.035-.063.066-.081s.067-.027.103-.022.068.021.093.047.041.06.044.096l8.938 68.306c.005.034-.002.069-.019.099s-.043.055-.075.069c-.02.01-.042.015-.064.015zm-9.012-67.812c-2.46 7.069-3.921 14.446-4.344 21.919-.701 11.903 1.018 29.35 13.119 45.162l-8.775-67.081zm-53.315 63.321h-.054a.16.16 0 0 1-.085-.068c-.02-.031-.028-.069-.024-.105l7.174-53.557a.16.16 0 0 1 .149-.138.15.15 0 0 1 .105.025c.031.021.053.052.063.089.079.297 7.979 29.548-7.195 53.685a.15.15 0 0 1-.057.052c-.024.013-.05.018-.076.018zm7.219-52.87l-6.962 51.97c13.188-21.612 8.103-47.113 6.962-51.956v-.014zM120.923 38.99a.15.15 0 0 1-.035-.051c-.009-.019-.013-.04-.013-.061s.004-.041.013-.06a.15.15 0 0 1 .035-.051l8.667-10.238c.014-.015.032-.027.051-.036s.041-.013.062-.013a.15.15 0 0 1 .062.013c.02.009.037.02.052.036a.17.17 0 0 1 0 .227l-8.667 10.238c-.031.029-.072.045-.115.044s-.082-.018-.112-.049zm-1.143-3.958a1.28 1.28 0 0 1-1.255-1.529c.049-.248.171-.476.35-.655a1.28 1.28 0 0 1 1.395-.277 1.29 1.29 0 0 1 .574.471c.141.21.216.458.216.711a1.29 1.29 0 0 1-.098.49 1.28 1.28 0 0 1-1.182.79zm0-2.238a.96.96 0 0 0-.638 1.646.96.96 0 0 0 1.626-.687.96.96 0 0 0-.291-.689.98.98 0 0 0-.321-.206.96.96 0 0 0-.376-.064zm24.531 24.118a33.89 33.89 0 0 1-11.256-4.403c3.295-3.488 10.979-.474 11.256 4.403zm50.701 2.534c-1.149 3.989-2.503 7.916-4.057 11.765-1.615-1.196-2.525-3.622-2.154-6.241.494-3.488 3.059-6.003 5.732-5.623.161.025.321.058.479.099zm-12.907 28.397l-16.073-8.603a.17.17 0 0 1-.059-.036c-.017-.016-.031-.036-.039-.057s-.013-.045-.012-.069.007-.046.018-.067.026-.039.044-.053a.16.16 0 0 1 .132-.031c.023.005.045.014.064.028l16.074 8.602c.037.02.066.054.079.095s.009.085-.01.123-.054.066-.095.079-.085.009-.123-.01zm-14.672-2.061a1.28 1.28 0 0 1-.713-.214c-.211-.14-.376-.34-.473-.574s-.123-.492-.074-.74a1.28 1.28 0 0 1 .35-.656c.18-.179.408-.301.657-.35a1.28 1.28 0 0 1 1.314.547c.141.211.215.459.214.713a1.29 1.29 0 0 1-.376.899 1.28 1.28 0 0 1-.899.376zm0-2.238a.96.96 0 0 0-.678.281c-.18.18-.28.423-.28.678s.1.498.28.678a.96.96 0 0 0 1.356 0 .96.96 0 0 0-.678-1.637zM96.09 170.222l-27.646-4.151c-.021-.003-.041-.011-.059-.021s-.034-.026-.046-.043a.16.16 0 0 1-.026-.056c-.005-.021-.006-.042-.003-.063s.011-.04.021-.058.025-.034.042-.046.036-.022.057-.027.042-.005.062-.002l27.646 4.145c.042.008.079.031.104.065a.16.16 0 0 1 .03.118.16.16 0 0 1-.064.105c-.034.025-.076.038-.119.034zm14.985 2.376l-14.69-3.587c-.039-.013-.071-.039-.091-.075s-.026-.077-.016-.117.033-.074.067-.097.075-.033.115-.027l14.695 3.587c.041.012.077.039.099.075a.17.17 0 0 1 .02.123c-.011.042-.037.078-.075.1a.16.16 0 0 1-.123.018zm-25.988-13c-.02-.007-.038-.017-.054-.031a.17.17 0 0 1-.038-.049c-.009-.019-.014-.04-.016-.061a.14.14 0 0 1 .009-.061c1.902-5.485 3.874-11.153 4.734-16.993.988-6.577.371-12.392-1.789-17.294-2.51-5.682-7.412-9.941-12.738-11.117-4.299-.944-9.388-.045-14.156.677-5.074.77-10.322 1.561-15.51 1.106-6.147-.543-13.835-3.498-16.948-10.173-.017-.039-.018-.083-.003-.123s.044-.072.082-.09c.019-.009.039-.014.06-.016s.042.002.062.009a.16.16 0 0 1 .054.032c.016.013.028.03.037.049 3.063 6.552 10.628 9.458 16.686 9.991 5.149.455 10.376-.336 15.431-1.102 4.872-.736 9.956-1.625 14.275-.672 5.435 1.196 10.411 5.525 12.96 11.296 2.189 4.941 2.797 10.816 1.818 17.457-.87 5.865-2.841 11.552-4.748 17.047-.005.021-.015.042-.028.06s-.031.033-.05.044-.041.018-.063.021-.045 0-.066-.007zM33.025 79.534l-1.603 11.339.455.064 1.604-11.339-.455-.064z"/></g><path d="M41.816 85.635a.99.99 0 0 1-.61.913.99.99 0 0 1-1.077-.214.99.99 0 0 1-.214-1.077c.075-.181.201-.335.364-.444a.99.99 0 0 1 1.248.123.99.99 0 0 1 .289.699z" class="C"/><path d="M22.244 74.972a8.3 8.3 0 0 1-6.463 8.093 28.29 28.29 0 0 1-1.813-16.4 8.3 8.3 0 0 1 8.276 8.306zm98.198 113.141c-.649.45-1.408.714-2.196.763a4.33 4.33 0 0 1-2.275-.485c-.7-.366-1.286-.916-1.695-1.591s-.627-1.45-.628-2.24c4.447-.054 5.791 1.068 6.765 3.459l.029.094zm-20.552.148a4.33 4.33 0 0 1-2.204 1.334 4.34 4.34 0 0 1-2.572-.155 4.33 4.33 0 0 1-2.794-4.05 4.4 4.4 0 0 1 .074-.815c4.941-.173 6.379.939 7.412 3.459l.084.227z" class="B"/></svg>