<svg xmlns="http://www.w3.org/2000/svg" width="228" height="219" fill="none"><style><![CDATA[.B{fill:#000}.C{fill:#fff}.D{fill:#cad5ff}]]></style><path d="M174.988 50.01s4.702-11.032 2.001-13.848-13.183.956-13.183.956l-2.642 8.87 13.478 3.927" class="C"/><path d="M174.923 50.166a.17.17 0 0 1-.085-.22c.045-.11 4.628-10.967 2.036-13.673-2.471-2.582-11.967.64-12.932 1.001l-2.562 8.63 13.318 3.877c.042.013.077.041.097.08s.026.084.013.125c-.006.021-.015.041-.029.058a.17.17 0 0 1-.05.041c-.019.01-.04.017-.062.018s-.043-.001-.064-.008l-13.478-3.922c-.042-.013-.077-.041-.098-.08s-.025-.084-.012-.125l2.636-8.87c.008-.025.02-.047.038-.067s.038-.034.062-.043c.436-.155 10.622-3.777 13.364-.916s-1.782 13.573-2.002 14.009c-.017.034-.045.061-.08.076s-.073.019-.11.009z" class="B"/><path d="M182.573 24.58l10.862 18.747c-3.091 2.268-6.726 3.679-10.538 4.088s-7.664-.197-11.166-1.757c-2.683-1.207-5.096-2.943-7.094-5.103a21.71 21.71 0 0 1-4.481-7.506 21.73 21.73 0 0 1-1.158-8.665c.206-2.937 1.007-5.801 2.354-8.419a21.7 21.7 0 0 1 5.483-6.809c2.27-1.874 4.898-3.267 7.724-4.095a21.71 21.71 0 0 1 17.001 2.061c2.547 1.478 4.766 3.459 6.522 5.821L182.573 24.58z" class="C"/><path d="M180.573 47.704a21.72 21.72 0 0 1-8.916-1.896 21.97 21.97 0 0 1-7.094-5.113s-.025 0-.035-.03a21.89 21.89 0 0 1-4.545-7.565c-.985-2.804-1.389-5.779-1.186-8.745a21.88 21.88 0 0 1 7.896-15.378 21.88 21.88 0 0 1 16.594-4.846 21.88 21.88 0 0 1 8.363 2.818c2.567 1.498 4.802 3.503 6.569 5.893.024.036.034.079.028.122s-.029.081-.063.108L182.809 24.62l10.772 18.626c.021.035.028.077.02.117a.16.16 0 0 1-.065.099c-3.753 2.77-8.299 4.258-12.963 4.243zm-15.855-7.29a21.84 21.84 0 0 0 7.074 5.093c3.452 1.538 7.247 2.141 11.005 1.75s7.347-1.762 10.409-3.977L182.424 24.66c-.021-.035-.028-.075-.021-.115s.029-.075.061-.1l15.359-11.537c-2.013-2.674-4.618-4.845-7.611-6.343s-6.292-2.283-9.639-2.292c-4.185.002-8.279 1.222-11.782 3.512a21.55 21.55 0 0 0-7.945 9.383c-1.682 3.832-2.211 8.072-1.523 12.2s2.562 7.967 5.395 11.048z" class="B"/><path d="M185.848 25l10.641 18.371c2.673-1.996 4.848-4.583 6.355-7.559a21.63 21.63 0 0 0 2.33-9.596 21.13 21.13 0 0 0-4.157-12.628L185.848 25z" class="D"/><path d="M196.348 43.452l-10.637-18.366c-.021-.035-.028-.076-.02-.116a.16.16 0 0 1 .065-.099l15.169-11.417c.036-.026.08-.037.123-.03s.082.03.108.065a21.23 21.23 0 0 1 4.187 12.728 21.78 21.78 0 0 1-2.35 9.671 21.77 21.77 0 0 1-6.41 7.614c-.019.013-.04.022-.062.026s-.045.004-.067 0a.17.17 0 0 1-.061-.027.16.16 0 0 1-.045-.049zm-10.272-18.406l10.472 18.081c2.612-1.983 4.733-4.538 6.202-7.47s2.244-6.161 2.268-9.44c.018-4.453-1.384-8.796-4.003-12.398l-14.939 11.227z" class="B"/><path d="M164.645 40.555a21.72 21.72 0 0 0 13.871 6.874c5.311.51 10.624-.952 14.926-4.108L182.57 24.58l-17.925 15.975z" class="C"/><path d="M180.571 47.699c-3.015-.001-5.998-.623-8.762-1.828a21.93 21.93 0 0 1-7.302-5.176.17.17 0 0 1 0-.24l17.941-15.97c.018-.017.04-.029.063-.036s.049-.009.074-.005.048.013.068.027.037.033.05.054l10.856 18.741c.02.036.026.078.017.117s-.033.075-.067.098a21.69 21.69 0 0 1-12.938 4.218zm-15.709-7.134a21.56 21.56 0 0 0 13.668 6.722c5.222.503 10.448-.916 14.699-3.99L182.573 24.84l-17.711 15.725z" class="B"/><path d="M158.883 25.825a21.66 21.66 0 0 0 5.758 14.729l17.931-15.975-21.513-8.27a21.59 21.59 0 0 0-2.176 9.516z" fill="#ed6d4f"/><path d="M164.522 40.665c-2.987-3.237-4.928-7.3-5.57-11.657a21.9 21.9 0 0 1 1.973-12.768c.018-.038.049-.069.088-.084s.083-.016.122-.001l21.513 8.275c.027.009.051.025.07.047s.031.048.036.076.003.057-.007.084-.027.05-.049.068l-17.941 15.97c-.033.029-.075.044-.119.042s-.085-.02-.116-.052zm-3.367-24.145c-1.847 3.867-2.5 8.196-1.877 12.436s2.497 8.198 5.379 11.369l17.621-15.685-21.123-8.12z" class="B"/><path d="M226.501.15h-14.629a1.34 1.34 0 0 0-1.341 1.341v9.971a1.34 1.34 0 0 0 1.341 1.341h14.629a1.34 1.34 0 0 0 1.341-1.341V1.491A1.34 1.34 0 0 0 226.501.15z" class="C"/><g class="B"><path d="M226.501 12.968h-14.629a1.5 1.5 0 0 1-1.501-1.501V1.501A1.5 1.5 0 0 1 211.872 0h14.629a1.5 1.5 0 0 1 1.501 1.501v9.966a1.5 1.5 0 0 1-1.501 1.501zM211.872.315c-.312.001-.611.126-.832.348a1.18 1.18 0 0 0-.344.833v9.966c.002.311.126.61.346.83a1.18 1.18 0 0 0 .83.346h14.629c.312 0 .611-.124.831-.344s.345-.52.345-.831V1.496a1.18 1.18 0 0 0-.344-.833c-.221-.221-.52-.346-.832-.348h-14.629z"/><path d="M188.742 12.472c-.03-.032-.047-.074-.047-.118s.017-.086.047-.118l6.655-5.884a.17.17 0 0 1 .11-.04h15.009c.044 0 .086.017.117.048s.048.073.048.117a.17.17 0 0 1-.048.117c-.03.031-.073.048-.117.048h-14.934l-6.604 5.844c-.017.015-.036.026-.057.033a.16.16 0 0 1-.064.009c-.022-.001-.043-.007-.063-.017s-.037-.023-.052-.04zm36.077-9.035h-11.727a.17.17 0 0 1-.071-.003c-.023-.006-.045-.017-.064-.033a.16.16 0 0 1-.043-.057.17.17 0 0 1-.016-.07.17.17 0 0 1 .016-.07c.01-.022.025-.041.043-.057s.04-.027.064-.033a.17.17 0 0 1 .071-.003h11.752c.024-.004.048-.003.072.003s.045.017.063.033a.17.17 0 0 1 .044.057.17.17 0 0 1 0 .14.17.17 0 0 1-.044.057c-.018.016-.04.027-.063.033s-.048.007-.072.003h-.025zm-.001 3.207h-11.727c-.022 0-.043-.004-.063-.013s-.039-.02-.054-.036-.027-.034-.036-.054a.17.17 0 0 1 0-.126c.009-.02.021-.038.036-.054s.034-.027.054-.036.041-.013.063-.013h11.752c.022-.001.044.003.064.011a.15.15 0 0 1 .054.036c.015.016.028.034.036.054s.012.042.011.064-.004.048-.014.069a.17.17 0 0 1-.043.057c-.018.016-.039.027-.062.034a.17.17 0 0 1-.071.005zm.001 3.202h-6.349c-.044 0-.086-.017-.117-.048s-.048-.073-.048-.117a.17.17 0 0 1 .012-.063c.009-.02.021-.038.036-.054s.034-.027.054-.036.041-.013.063-.013h6.349c.022-.001.043.003.064.011s.039.02.054.036.028.034.036.054.011.042.011.064c0 .044-.018.086-.049.117s-.073.048-.116.048z"/></g><path d="M161.168 43.431s1.501-8.385 2.777-9.106 3.147.63 2.501 6.339c0 0 3.933.385 3.502 4.458" class="C"/><path d="M169.978 45.357h-.025c-.061-.009-.117-.04-.156-.089a.25.25 0 0 1-.054-.172 3.69 3.69 0 0 0-.065-1.491c-.123-.487-.341-.945-.645-1.346a4.25 4.25 0 0 0-2.597-1.361.23.23 0 0 1-.088-.027c-.028-.015-.052-.035-.071-.059s-.034-.052-.043-.082a.22.22 0 0 1-.008-.092c.5-4.643-.706-5.828-1.086-6.079a1 1 0 0 0-1.08-.03c-.846.5-2.082 5.743-2.657 8.946-.013.061-.049.114-.1.149s-.114.05-.175.041a.23.23 0 0 1-.086-.034c-.026-.017-.049-.039-.067-.064s-.03-.054-.036-.085-.007-.062-.001-.093c.155-.87 1.571-8.505 2.886-9.271a1.46 1.46 0 0 1 1.571.045c1.171.766 1.646 3.057 1.321 6.299 1.04.178 1.987.708 2.682 1.501a4.21 4.21 0 0 1 .733 1.51c.14.547.168 1.118.082 1.677-.007.057-.035.109-.078.147s-.099.058-.157.058zM37.034 50.026c-3.502-2.672-5.678-10.146-4.608-12.077.084-.182.235-.324.421-.399a.78.78 0 0 1 .58-.001c-1.501-4.358-.925-4.918-.735-5.108a.72.72 0 0 1 .806-.085 1.69 1.69 0 0 1 .645.5c-.42-1.811-.185-2.306.045-2.502.11-.088.244-.142.384-.155a.73.73 0 0 1 .406.08c.525.195 1.141 1.001 1.866 2.461-.195-1.056-.145-1.716.155-2.001a.71.71 0 0 1 .383-.16.72.72 0 0 1 .407.08c1.591.595 3.142 6.554 3.597 8.46 1.111-2.351 5.674-2.171 5.293 0s2.001 6.169 2.001 6.209a.17.17 0 0 1 .021.067c.002.024 0 .048-.008.07a.17.17 0 0 1-.036.061c-.016.018-.036.032-.058.041l-11.412 4.468c-.025.01-.052.015-.079.013s-.053-.01-.076-.023zm.13-.315l11.147-4.368c-.455-.806-2.311-4.233-1.956-6.264.325-1.881-4.318-1.856-4.833.67a.17.17 0 0 1-.16.13.16.16 0 0 1-.103-.037c-.029-.024-.049-.056-.057-.093-.5-2.266-2.116-8.265-3.502-8.79-.315-.12-.42 0-.45 0-.19.175-.385.846.37 3.397.011.04.006.083-.013.12s-.052.065-.091.079-.082.013-.12-.004-.069-.046-.086-.084c-1.256-2.952-2.001-3.757-2.421-3.907-.315-.115-.415 0-.45 0-.175.155-.37.765.265 3.002.01.039.006.08-.011.115s-.047.064-.084.08a.16.16 0 0 1-.205-.06 2.62 2.62 0 0 0-1.001-1.071c-.325-.12-.425 0-.46 0-.19.195-.5 1.076.956 5.163.011.033.012.069.001.103s-.032.063-.06.083-.063.032-.098.032-.069-.012-.098-.033a.89.89 0 0 0-.24-.14c-2.126-.73-.33 8.64 3.762 11.877z" class="B"/><path d="M22.043 48.34a4.83 4.83 0 0 1-6.269-2.662L6.654 23.135c-.486-1.188-.481-2.52.014-3.703a4.84 4.84 0 0 1 2.627-2.61L48.74.866a4.84 4.84 0 0 1 6.284 2.702l9.121 22.549c.478 1.183.466 2.507-.032 3.682s-1.442 2.103-2.625 2.582L22.043 48.34z" class="C"/><path d="M15.624 45.743L6.503 23.195c-.496-1.225-.488-2.596.022-3.814s1.483-2.186 2.704-2.69L48.679.731C49.29.487 49.942.366 50.6.374s1.307.147 1.911.406 1.151.636 1.609 1.107.82 1.028 1.063 1.639l9.121 22.544c.495 1.227.484 2.6-.03 3.819s-1.492 2.184-2.716 2.685L22.108 48.53c-1.23.487-2.602.467-3.817-.055s-2.174-1.504-2.667-2.731zm33.18-44.727L9.355 16.976c-1.145.471-2.057 1.377-2.534 2.52s-.482 2.428-.012 3.574l9.121 22.549a4.65 4.65 0 0 0 6.049 2.567L61.427 32.23c1.142-.463 2.055-1.361 2.536-2.496s.492-2.415.031-3.558L54.873 3.628c-.461-1.149-1.358-2.069-2.495-2.558s-2.422-.509-3.573-.053z" class="B"/><path d="M15.655 21.498a1.12 1.12 0 0 1-.61 1.436c-.203.082-.425.103-.64.058s-.411-.151-.564-.307-.257-.354-.298-.569-.017-.437.069-.639.229-.373.412-.493.398-.183.617-.18.432.069.613.193.321.298.402.501z" class="D"/><path d="M20.267 19.632c.088.206.112.434.069.655s-.15.422-.309.581-.361.266-.581.309-.448.019-.654-.068-.382-.235-.505-.423-.186-.408-.182-.633.074-.442.203-.626.309-.325.518-.406a1.13 1.13 0 0 1 1.441.61z" fill="#6680ff"/><path d="M24.876 17.781c.088.207.112.435.07.655s-.15.423-.309.582-.361.267-.582.309-.449.019-.655-.069-.382-.235-.504-.424-.185-.409-.181-.633.076-.443.205-.626.31-.324.52-.404c.272-.103.573-.098.841.016s.481.327.595.594z" class="D"/><path d="M29.054 23.995l5.228 12.928a.54.54 0 0 1-.3.7l-3.002 1.216a.53.53 0 0 1-.409-.002.53.53 0 0 1-.286-.293l-5.228-12.923a.55.55 0 0 1 .002-.424.55.55 0 0 1 .303-.297l3.002-1.211c.132-.045.277-.039.405.017s.23.159.285.288z" fill="#ffa186"/><path d="M48.725 8.411l7.885 19.482c.026.065.039.135.038.205s-.016.14-.044.204-.068.123-.119.172-.11.088-.175.114l-3.002 1.216c-.136.054-.288.053-.423-.004s-.242-.165-.297-.301l-7.875-19.467c-.027-.065-.041-.135-.04-.206s.014-.141.042-.206.067-.124.118-.174.11-.089.176-.115l3.002-1.221c.066-.029.138-.044.211-.045s.145.014.211.042.127.069.178.122.09.114.115.182z" class="D"/><path d="M42.416 14.189l6.759 16.71c.053.131.051.278-.004.409s-.16.233-.291.287l-3.002 1.221a.54.54 0 0 1-.701-.295l-6.759-16.71c-.055-.136-.053-.288.004-.423s.165-.242.301-.297l3.002-1.206a.55.55 0 0 1 .691.305z" fill="#ffc176"/><path d="M37.428 23.284L41.721 33.9c.055.136.053.288-.004.423a.55.55 0 0 1-.301.297l-3.002 1.211a.54.54 0 0 1-.7-.295l-4.298-10.631a.53.53 0 0 1 .295-.696l3.002-1.221c.066-.029.138-.045.21-.046s.144.013.211.04a.54.54 0 0 1 .295.3zm-14.009 8.211l3.412 8.44a.54.54 0 0 1-.295.7l-3.002 1.221a.54.54 0 0 1-.7-.3l-3.407-8.43c-.053-.13-.08-.269-.079-.41s.03-.279.085-.408.135-.246.235-.345a1.05 1.05 0 0 1 .349-.228l2.031-.825a1.07 1.07 0 0 1 .805.013c.256.109.459.315.566.572z" class="D"/><path d="M.164 23.54l3.627-.385-3.627.385z" class="C"/><path d="M.166 23.704c-.041 0-.081-.015-.112-.043s-.05-.066-.053-.107.009-.086.036-.12.066-.055.109-.06l3.632-.385c.022-.003.044-.001.065.005a.16.16 0 0 1 .098.082.16.16 0 0 1 .017.063c.004.043-.009.086-.036.12s-.066.055-.109.06l-3.632.385H.166z" class="B"/><path d="M.73 18.736l3.377 1.756L.73 18.736z" class="C"/><path d="M4.035 20.642L.658 18.881c-.038-.02-.067-.055-.08-.096s-.01-.086.01-.124c.01-.02.024-.037.041-.051s.036-.025.057-.031.043-.009.065-.007.043.009.062.019l3.372 1.756c.02.009.038.023.052.04a.16.16 0 0 1 .038.123.16.16 0 0 1-.021.062c-.02.038-.055.067-.096.08s-.086.01-.124-.01z" class="B"/><path d="M4.25 15.465l1.806 3.217-1.806-3.217z" class="C"/><path d="M5.915 18.782L4.104 15.57c-.022-.039-.028-.084-.016-.127s.04-.079.078-.101.084-.028.127-.016.079.04.101.078L6.2 18.622a.17.17 0 0 1-.06.225c-.019.011-.04.017-.062.02s-.044.001-.064-.005-.04-.016-.057-.03-.031-.03-.042-.049z" class="B"/><path d="M48.11 45.343s-.18-5.428 1.216-8.21c1.241-2.501-2.421-2.757-3.792.5l-1.326 2.827s-2.266.185-1.731 3.832" class="C"/><path d="M48.109 45.507a.17.17 0 0 1-.165-.16c0-.225-.165-5.503 1.231-8.29a1.32 1.32 0 0 0 .105-1.316c-.525-.756-2.622-.35-3.597 1.966l-1.326 2.837a.18.18 0 0 1-.056.064c-.024.017-.051.027-.079.031a1.74 1.74 0 0 0-1.111.665c-.5.645-.666 1.646-.47 3.002.006.043-.006.087-.032.121s-.065.058-.108.064a.17.17 0 0 1-.19-.14c-.21-1.431 0-2.501.55-3.242a2.09 2.09 0 0 1 1.236-.765l1.286-2.747c.711-1.701 2.001-2.411 2.872-2.502 1.176-.12 1.911.746 1.216 2.131-1.361 2.712-1.196 8.075-1.196 8.13.001.022-.003.043-.011.064s-.019.039-.034.055-.033.029-.052.038-.041.014-.063.014l-.005-.02z" class="B"/><path d="M53.023 174.827c.155 2.602 3.112 6.334 2.096 8.73-.64 1.526-3.177 3.383-4.678 2.947-3.232-.96-5.503-7.699-5.974-11.036-.225-1.702-.255-6.845-.255-6.845s-2.126 1.231-2.572.701c-1.221-1.451-3.222-5.544-3.752-7.455-.881-3.157 14.039-7.194 14.039-7.194l3.962 13.923s-2.957 4.548-2.867 6.229z" fill="#001535"/><path d="M52.877 174.536c-.711-.045-1.276-.315-1.256-.61s.61-.5 1.321-.445 1.271.315 1.251.61-.61.49-1.316.445zm.516-1.801c-.711-.045-1.271-.315-1.256-.61s.61-.5 1.321-.445 1.271.315 1.251.61-.605.491-1.316.445zm.68-1.496c-.71-.045-1.271-.315-1.256-.61s.61-.5 1.321-.445 1.271.315 1.251.61-.61.49-1.316.445zm88.125-62.562l-1.231 10.476-7.119-6.254c5.863-2.006 8.35-4.222 8.35-4.222zM97.95 130.85H81.66l.1-.215c0-2.747 1.851-13.463 14.754-12.593a215.65 215.65 0 0 1 1.436 12.808z" class="B"/><path d="M104.43 119.277c3.272 3.522 6.352 7.218 9.225 11.072 6.215 8.203 11.59 17.009 16.045 26.286a80.41 80.41 0 0 1 4.948 13.078c4.423 16.54 6.134 33.161 6.469 35.182l23.9-6.159c.725-22.864-1.246-39.364-6.91-55.889-3.217-9.401-7.629-18.812-13.433-29.408l-5.173-9.161c-4.928 5.209-9.756 5.003-16.885 7.505-3.863 1.351-11.237 5.558-16.17 6.729-.52.11-1.516.59-2.016.765z" class="C"/><g class="B"><path d="M113.656 130.349c6.215 8.203 11.59 17.009 16.045 26.286 7.845-20.642-5.964-38.668-5.964-38.668l-10.081 12.382z"/><path d="M140.954 204.895c-1.626-12.748-3.347-23.6-6.469-35.157-4.533-16.81-18.611-38.053-30.173-50.346-.02-.02-.033-.044-.041-.071a.17.17 0 0 1-.001-.081c.007-.027.02-.052.038-.073s.042-.036.069-.045c.5-.17 1.5-.65 2.031-.78 3.002-.711 6.919-2.557 10.376-4.188 4.888-2.301 5.714-2.676 11.247-4.172 4.373-1.176 7.825-2.107 11.352-5.834.018-.019.039-.034.064-.043s.05-.012.076-.009.051.012.072.026.04.034.053.056c11.007 18.967 17.01 32.11 20.733 45.368 4.002 14.259 5.443 28.963 4.803 49.175a.16.16 0 0 1-.037.098c-.022.028-.054.048-.088.057l-23.9 6.154c-.022.007-.046.008-.069.005s-.046-.012-.065-.025-.036-.03-.048-.05-.02-.042-.023-.065zm-36.232-85.553c11.557 12.353 25.555 33.521 30.083 50.306 3.107 11.507 4.833 22.334 6.454 35.022l23.599-6.074c1.281-41.025-6.443-61.378-25.385-94.058-3.542 3.663-7.004 4.593-11.357 5.769-5.478 1.501-6.289 1.846-11.187 4.152-3.502 1.636-7.414 3.503-10.441 4.208-.43.09-1.226.465-1.766.675z"/></g><path d="M51.184 151.943c2.166 7.909 4.208 15.764 7.004 23.544 10.972-1.341 22.989-1.321 33.856-4.213 6.404-1.701 12.413-4.417 17.571-9.005a58.59 58.59 0 0 0 8.125-8.69c9.791-13.133 7.47-25.361 4.798-44.147a187.25 187.25 0 0 1-20.352.345c-.716 0-1.751-.11-2.337-.085a68.45 68.45 0 0 0-7.655.77c-.821.13-1.636.28-2.431.441-1.554.351-3.081.816-4.568 1.39 1.941 16.696 2.887 25.236 1.636 29.774-2.276 8.225-11.767 3.252-35.647 9.876z" class="C"/><path d="M58.026 175.542c-2.822-7.86-4.923-15.98-7.004-23.56-.006-.02-.008-.042-.005-.063s.009-.042.02-.061.025-.035.042-.048.037-.022.058-.028a125.34 125.34 0 0 1 23.164-4.067c5.794-.555 9.286-.891 11.142-3.192 2.902-3.587 1.861-12.563-.42-32.22-.004-.037.004-.075.024-.107s.05-.056.086-.068c1.491-.582 3.025-1.049 4.588-1.396a64.56 64.56 0 0 1 10.116-1.21c.585-.03 1.631.06 2.346.085a185.49 185.49 0 0 0 20.338-.356c.042-.003.084.011.116.038s.054.065.059.107c3.342 23.455 5.743 36.293-12.983 52.973-13.949 12.437-34.021 11.132-51.532 13.263a.17.17 0 0 1-.091-.022c-.027-.016-.05-.04-.064-.068zm-6.639-23.489c2.116 7.744 4.153 15.569 6.904 23.254 17.426-2.107 37.388-.851 51.201-13.168 18.511-16.51 16.24-29.263 12.898-52.532-6.728.48-13.478.592-20.218.335-.7 0-1.756-.11-2.321-.085-3.382.14-6.747.543-10.066 1.205a30.19 30.19 0 0 0-4.423 1.346c2.286 19.662 3.322 28.643.34 32.335-1.946 2.407-5.503 2.747-11.367 3.312a124.54 124.54 0 0 0-22.949 3.998z" class="B"/><path d="M33.406 49.925c1.036 8.43 3.447 15.82 7.264 21.928 2.512 4.068 5.761 7.631 9.581 10.506 6.079 4.558 13.763 7.505 23.084 8.505 0 0 7.194 10.707 8.325 15.164 1.451 5.729.525 21.103 0 24.865 3.097-8.815 15.259-11.286 23.319-12.157 10.621-1.136 27.842-3.637 35.522-12.383-1.066-5.413-2.002-10.941-3.377-16.299 3.448-.353 6.856-1.033 10.176-2.031 8.8-2.692 15.929-7.715 20.943-15.429 4.067-6.254 8.505-13.113 9.595-22.114L157.037 41.1c-2.417 16.56-13.704 30.244-30.624 21.568-9.391-4.808-22.264-5.814-42.361.821-18.051 5.954-30.359-4.032-32.775-20.588-5.543 2.507-12.293 4.508-17.871 7.024z" fill="#e84f35"/><path d="M176.099 206.952c-1.101 3.182-7.935 5.173-11.292 5.503-1.706.155-6.839-.045-6.839-.045s1.13 2.181.58 2.602c-1.501 1.155-5.683 2.966-7.61 3.422-3.202.74-6.579-14.339-6.579-14.339l13.979-3.627s4.503 3.432 6.209 3.407c2.601-.03 6.464-2.822 8.815-1.706 1.496.69 3.242 3.302 2.737 4.783z" fill="#001535"/><path d="M164.253 203.989c-.075.711-.376 1.261-.666 1.226s-.465-.63-.39-1.336.375-1.256.665-1.225.466.63.391 1.335zm-1.778-.594c-.075.71-.375 1.26-.665 1.225s-.465-.63-.39-1.335.375-1.256.665-1.226.475.63.39 1.336zm-1.464-.746c-.075.71-.37 1.26-.666 1.225s-.465-.63-.39-1.336.375-1.255.666-1.225.465.63.39 1.336z" class="B"/><path d="M110.707 46.438s1.316 5.884-3.867 7.114l-.331.07 1.892 4.603c1.17 4.002-7.645 5.608-8.391 1.526l-1.821-8.575.13-.075c-1.371-2.366-1.271-5.643-1.116-7.44.2-2.357 2.697-5.078 8.38-4.383 5.778.71 1.886 4.303 5.968 4.838 1.076.14 1.351 1.971-.845 2.321z" class="C"/><g class="B"><path d="M102.022 62.043a2.91 2.91 0 0 1-1.409-.816c-.383-.4-.644-.902-.752-1.445l-1.841-8.575c-.007-.031-.005-.063.007-.093s.032-.055.058-.072c-.971-1.776-1.326-4.263-1.056-7.395a4.53 4.53 0 0 1 1.741-3.117c1.096-.89 3.172-1.861 6.824-1.416 3.257.4 3.557 1.721 3.828 2.887.21.926.395 1.726 2.146 1.956.264.034.506.163.682.363a1.1 1.1 0 0 1 .274.723c0 .59-.421 1.281-1.636 1.501.165 1.001.76 6.004-4.003 7.144l-.135.03 1.816 4.433a2.53 2.53 0 0 1 .019 1.43 2.54 2.54 0 0 1-.759 1.212c-1.301 1.296-3.903 1.861-5.804 1.251zM98.39 51.261l1.791 8.455c.104.482.341.925.684 1.279a2.63 2.63 0 0 0 1.257.722c1.786.57 4.248.05 5.478-1.151.319-.282.55-.651.665-1.06a2.23 2.23 0 0 0-.014-1.251c-.34-1.171-1.866-4.548-1.881-4.578-.01-.023-.015-.048-.015-.074s.007-.05.019-.073.028-.042.048-.058.043-.026.068-.031l.325-.065c4.968-1.181 3.792-6.689 3.737-6.919-.006-.045.002-.091.025-.13.013-.02.03-.036.05-.048s.042-.02.065-.022c1.131-.18 1.526-.75 1.501-1.226a.77.77 0 0 0-.665-.736c-1.976-.26-2.206-1.251-2.427-2.206-.255-1.111-.5-2.261-3.542-2.632-3.537-.435-5.528.5-6.579 1.341a4.21 4.21 0 0 0-1.105 1.28c-.278.497-.452 1.045-.511 1.612-.27 3.152.095 5.618 1.091 7.344a.16.16 0 0 1 .019.126.16.16 0 0 1-.079.1h-.005z"/><path d="M108.722 40.835s2.502-.761 0-4.503c-1.611-2.451-5.033-3.712-11.607-1.746s-1.051 9.006-1.051 9.006-1.551-1.146-3.922.14-1.001 4.973 4.002 6.364l3.427-.93a8.36 8.36 0 0 0-2.101-5.729s4.242-6.399 11.251-2.602z"/></g><path d="M99.706 49.686a2.07 2.07 0 0 1-.91 2.114 2.07 2.07 0 0 1-2.302-.032 2.07 2.07 0 0 1-.851-2.139 2.07 2.07 0 0 1 1.651-1.604c.54-.098 1.096.022 1.548.333s.762.789.863 1.328z" class="C"/><path d="M95.469 50.456c-.078-.435-.025-.884.151-1.289s.47-.749.842-.988.807-.362 1.249-.354a2.24 2.24 0 0 1 1.235.4c.363.252.643.607.805 1.019s.198.862.103 1.294a2.24 2.24 0 0 1-.633 1.133 2.25 2.25 0 0 1-1.156.591 2.23 2.23 0 0 1-2.596-1.807zm1.851-2.271c-.371.069-.713.245-.983.508a1.91 1.91 0 0 0-.535.968c-.079.368-.046.752.093 1.102a1.9 1.9 0 0 0 .69.865 1.91 1.91 0 0 0 1.054.337 1.9 1.9 0 0 0 1.063-.306c.316-.205.565-.499.714-.845a1.91 1.91 0 0 0 .125-1.099c-.045-.247-.138-.482-.273-.693a1.89 1.89 0 0 0-.519-.535 1.9 1.9 0 0 0-1.429-.303zm8.972-4.969c.024.134.008.273-.046.398a.7.7 0 0 1-.259.306c-.114.075-.249.112-.385.11a.69.69 0 0 1-.665-.834.69.69 0 0 1 .193-.351c.098-.095.222-.159.356-.184a.69.69 0 0 1 .518.11.68.68 0 0 1 .188.194.72.72 0 0 1 .1.251z" class="B"/><path d="M106.025 41.371s-2.202-.445-2.537 2.056l2.537-2.056z" class="C"/><g class="B"><path d="M103.447 43.591c-.022-.002-.043-.009-.062-.02a.16.16 0 0 1-.049-.042c-.014-.017-.024-.037-.029-.058s-.008-.043-.005-.065a2.56 2.56 0 0 1 .29-1.015 2.57 2.57 0 0 1 .676-.811 2.44 2.44 0 0 1 1.766-.37c.023.001.047.008.068.019s.039.026.053.045.025.04.03.063.006.047.001.07-.014.045-.028.064a.18.18 0 0 1-.052.047.16.16 0 0 1-.068.021.16.16 0 0 1-.069-.009 2.15 2.15 0 0 0-1.501.32 2.22 2.22 0 0 0-.582.713 2.24 2.24 0 0 0-.244.888.17.17 0 0 1-.068.11c-.037.026-.082.037-.127.03zm4.793 4.944a3.17 3.17 0 0 1-1.4-.29c-.039-.021-.067-.057-.08-.099a.16.16 0 0 1 .015-.126c.022-.039.056-.067.099-.079s.087-.007.126.014c.06.03 1.586.815 3.752-.56.037-.023.082-.031.125-.021a.17.17 0 0 1 .103.073c.011.018.019.039.022.06s.003.043-.002.064-.013.041-.026.059-.029.033-.047.044a4.98 4.98 0 0 1-2.687.861zm-1.716 5.088c-1 .215-2.316.04-3.727-.26 1.275 1.405 2.961 2.372 4.818 2.762l-1.091-2.501z"/><path d="M107.561 56.305a9.12 9.12 0 0 1-4.903-2.812c-.023-.026-.037-.059-.04-.094s.004-.07.022-.1.045-.054.077-.067.067-.017.101-.01c1.141.24 2.587.5 3.658.26.037-.01.076-.006.111.012s.06.047.074.083l1.09 2.502a.17.17 0 0 1 .012.089c-.005.03-.018.059-.037.082a.16.16 0 0 1-.075.05c-.029.009-.06.011-.09.004zm-4.292-2.657a8.67 8.67 0 0 0 4.047 2.256l-.905-2.076a9.1 9.1 0 0 1-3.142-.2v.02zM64.131 174.877l-4.573-24.955c-.004-.021-.004-.043 0-.065s.013-.041.025-.06.028-.033.046-.045a.16.16 0 0 1 .06-.025c.044-.007.089.003.125.028a.17.17 0 0 1 .07.107l4.573 24.96c.007.043-.003.088-.028.123s-.064.06-.107.067-.087-.002-.123-.028-.06-.064-.067-.107zm75.651 21.363c-.004-.043.009-.086.036-.119s.066-.056.109-.061l24.83-2.466c.044-.005.088.008.122.036s.056.067.061.111-.008.088-.036.122a.17.17 0 0 1-.112.061l-24.83 2.466a.17.17 0 0 1-.18-.15zm-8.895-124.672c6.199 9.756 6.229 18.441 6.229 18.441 3.448-.353 6.856-1.033 10.176-2.031-5.564-9.946-16.405-16.41-16.405-16.41zm25.941 7.38a7.42 7.42 0 0 0 1.171 4.003c4.088-2.74 7.572-6.288 10.236-10.426a7.5 7.5 0 0 0-3.769-1.093c-1.331-.023-2.644.307-3.805.958a7.5 7.5 0 0 0-3.833 6.534v.025zM40.672 71.853c2.512 4.068 5.761 7.631 9.581 10.507a7.41 7.41 0 0 0 .931-3.612c-.002-1.245-.313-2.471-.906-3.566s-1.449-2.025-2.492-2.707a7.5 7.5 0 0 0-3.479-1.197 7.51 7.51 0 0 0-3.63.6l-.005-.025zm38.839 19.473c-10.802 0-17.936-2.306-22.199-4.413l.21-.42c4.873 2.406 13.573 5.083 27.312 4.183l.03.47c-1.851.145-3.637.18-5.353.18z"/></g><path d="M99.616 86.133c1.541 4.858 7.815 7.194 14.008 5.228s9.976-7.505 8.435-12.348-7.814-7.189-14.008-5.223-9.971 7.495-8.435 12.343z" class="C"/><path d="M35.244 55.204c-.003-.031-.001-.062.008-.092s.023-.058.043-.082.044-.044.071-.059.057-.024.088-.027l17.631-2.071c.031-.004.062-.002.093.006s.058.022.083.041.045.043.061.07.025.057.029.088.001.062-.008.092-.023.058-.043.082-.044.044-.071.059-.057.024-.088.027l-17.631 2.071c-.031.004-.062.002-.093-.006s-.058-.022-.083-.041-.045-.043-.061-.07-.025-.057-.029-.088z" class="B"/><path d="M47.094 48.689a1.66 1.66 0 0 0 1.025 1.535 1.66 1.66 0 0 0 1.81-.36 1.66 1.66 0 0 0 .36-1.81 1.66 1.66 0 0 0-1.535-1.025 1.66 1.66 0 0 0-1.661 1.661z" class="C"/><path d="M173.267 55.304l-16.115-4.313c-.042-.013-.078-.041-.099-.079s-.027-.083-.016-.126.039-.077.076-.098.082-.028.124-.017l16.115 4.313c.021.006.04.015.058.028s.031.03.042.048.018.04.021.061.002.044-.004.065-.015.041-.028.058-.03.032-.049.043-.039.018-.061.021-.043.002-.064-.004z" class="B"/><path d="M160.836 47.705a1.28 1.28 0 0 0 1.528 1.262 1.28 1.28 0 0 0 1.009-1.005 1.28 1.28 0 0 0-.073-.741c-.097-.235-.26-.435-.471-.576a1.28 1.28 0 0 0-1.993 1.06zm-21.771-22.42h-14.454c-.732 0-1.326.594-1.326 1.326v9.851c0 .732.594 1.326 1.326 1.326h14.454c.732 0 1.326-.594 1.326-1.326v-9.851c0-.732-.594-1.326-1.326-1.326z" class="C"/><g class="B"><path d="M139.072 37.953h-14.454a1.5 1.5 0 0 1-1.501-1.501v-9.851a1.5 1.5 0 0 1 1.501-1.501h14.454a1.5 1.5 0 0 1 1.501 1.501v9.851a1.5 1.5 0 0 1-1.501 1.501zm-14.454-12.508a1.16 1.16 0 0 0-.821.34c-.217.218-.34.513-.34.821v9.851c0 .308.123.603.34.821a1.16 1.16 0 0 0 .821.34h14.454a1.16 1.16 0 0 0 .821-.34c.217-.218.34-.513.34-.821v-9.851c0-.308-.123-.603-.34-.821a1.16 1.16 0 0 0-.821-.34h-14.454z"/><path d="M155.235 31.704h-14.839c-.044 0-.086-.017-.117-.048s-.049-.073-.049-.117.018-.086.049-.117.073-.048.117-.048h14.774l6.504-5.779a.16.16 0 0 1 .056-.033c.021-.007.042-.01.064-.009s.043.007.063.017.037.023.052.04.025.036.032.056.01.043.009.064-.007.043-.017.063-.023.037-.039.052l-6.569 5.813c-.024.025-.056.04-.09.045z"/><use href="#B"/><use href="#B" y="-3.162"/><path d="M132.543 28.537h-6.269c-.043 0-.085-.017-.116-.048s-.049-.073-.049-.117.018-.086.049-.117.073-.048.116-.048h6.269c.044 0 .086.017.117.048s.048.073.048.117-.017.086-.048.117-.073.048-.117.048z"/></g><defs ><path id="B" d="M137.892 34.866h-11.618c-.043 0-.085-.017-.116-.048s-.049-.073-.049-.117.018-.086.049-.117.073-.048.116-.048h11.618c.043 0 .085.017.116.048s.049.073.049.117-.018.086-.049.117-.073.048-.116.048z"/></defs></svg>