<svg xmlns="http://www.w3.org/2000/svg" width="212" height="214" fill="none"><style><![CDATA[.B{fill:#000}.C{fill:#fff}.D{fill:#6680ff}]]></style><path d="M70.133 203.102v9.667a1.08 1.08 0 0 0 1.076 1.076h3.098a1.13 1.13 0 0 0 .646-.23l2.465-1.806a.59.59 0 0 1 .801 0l1.376 1.806a.63.63 0 0 0 .227.175.62.62 0 0 0 .282.055H96.04a1.2 1.2 0 0 0 .737-.288c.206-.177.346-.419.396-.686.474-2.939-1.098-5.312-3.984-5.79l-3.669-.349v-3.643l-19.387.013z" fill="#001535"/><path d="M96.041 214H80.106c-.119.004-.237-.019-.345-.068a.77.77 0 0 1-.279-.215l-1.377-1.806c-.111-.146-.381-.133-.602.031l-2.461 1.801a1.26 1.26 0 0 1-.735.257h-3.098a1.22 1.22 0 0 1-1.217-1.217v-9.68c0-.038.015-.074.041-.101s.063-.041.1-.041h19.414c.039 0 .076.015.103.043s.043.064.043.103v3.506l3.541.336c2.899.478 4.577 2.926 4.094 5.958A1.33 1.33 0 0 1 96.041 214zm-17.705-2.262l1.377 1.802c.048.057.108.102.177.132s.143.044.217.04h15.935a1.04 1.04 0 0 0 .647-.251c.181-.156.302-.369.345-.603.443-2.908-1.08-5.17-3.846-5.621l-3.656-.346c-.036-.004-.068-.021-.092-.048s-.037-.062-.036-.098v-3.496H70.28v9.521a.93.93 0 0 0 .93.929h3.098a.95.95 0 0 0 .562-.204l2.465-1.801a.71.71 0 0 1 .509-.181c.187.008.363.089.491.225z" fill="#ffae44"/><g class="B"><path d="M82.897 203.103l-12.757 4.023v-4.023h12.757z"/><path d="M69.992 207.321v-4.36h13.841l-13.841 4.36zm.288-4.072v3.678l11.677-3.678H70.28zm-.147 8.714v.806a1.08 1.08 0 0 0 1.076 1.076h3.098a1.13 1.13 0 0 0 .646-.231l2.271-1.664-7.091.013z"/><path d="M74.316 214h-3.098c-.323 0-.632-.128-.861-.357s-.356-.537-.356-.86v-.961h7.684l-2.625 1.921a1.26 1.26 0 0 1-.744.257zm-4.037-1.89v.659a.93.93 0 0 0 .93.93h3.098a.95.95 0 0 0 .562-.204l1.912-1.398-6.502.013zm8.057-.146l1.266 1.664a.63.63 0 0 0 .227.175.62.62 0 0 0 .282.055h15.935a1.23 1.23 0 0 0 .73-.296c.205-.176.346-.414.403-.677a6.06 6.06 0 0 0 .08-.921H78.336z"/><path d="M96.041 214H80.106a.77.77 0 0 1-.345-.068c-.108-.049-.204-.123-.279-.215l-1.443-1.895h19.33v.146c-.004.314-.029.628-.075.939A1.38 1.38 0 0 1 96.041 214zm-17.395-1.89l1.089 1.43a.48.48 0 0 0 .394.172h15.935c.236-.015.459-.107.638-.261s.303-.362.353-.593a5.72 5.72 0 0 0 .071-.748h-18.48zM42.82 122.15s9.738 10.149 17.705 8.999 3.683-11.456 3.683-11.456L42.82 122.15z"/></g><path d="M8.715 184.999l-8.286 5.878c-.08.048-.148.115-.198.194a.59.59 0 0 0-.088.263c-.008.093.006.187.041.274s.09.164.161.225l2.43 2.43a1.11 1.11 0 0 0 .624.297l3.019.469c.354.053.602.301.567.567l-.305 2.248a.64.64 0 0 0 .04.284c.034.091.089.172.159.238l11.256 11.248c.201.18.457.289.726.31a1.23 1.23 0 0 0 .765-.195c2.408-1.771 2.979-4.542 1.288-6.901l-1.253-1.739 2.585-2.563-13.531-13.527z" fill="#001535"/><path d="M18.035 209.715L6.779 198.467a.76.76 0 0 1-.239-.646l.301-2.249c.027-.181-.173-.362-.443-.402l-3.019-.443a1.27 1.27 0 0 1-.704-.341l-2.43-2.43c-.085-.076-.152-.171-.194-.277s-.059-.221-.049-.335a.73.73 0 0 1 .106-.321c.06-.097.142-.179.239-.24l8.286-5.9c.026-.022.059-.033.093-.033s.067.011.093.033l13.531 13.527c.014.013.024.029.032.046s.011.037.011.056a.14.14 0 0 1-.011.055c-.007.017-.018.033-.032.046l-2.496 2.475 1.177 1.642c1.709 2.381 1.168 5.311-1.328 7.082-.25.17-.549.252-.851.235a1.38 1.38 0 0 1-.818-.332zm-9.331-24.531l-8.189 5.812c-.064.034-.119.085-.159.146s-.065.131-.071.203.005.146.034.214.073.126.13.171l2.43 2.43a.99.99 0 0 0 .544.257l3.019.469c.186.01.361.09.489.225s.198.315.197.501l-.301 2.249c-.007.074.004.15.03.219a.49.49 0 0 0 .125.184l11.256 11.247a1.09 1.09 0 0 0 .636.268c.236.017.471-.042.669-.171 2.386-1.726 2.89-4.426 1.253-6.697l-1.248-1.739c-.022-.026-.035-.059-.035-.093s.012-.067.035-.093l2.483-2.466-13.328-13.336z" fill="#ffae44"/><g class="B"><path d="M17.25 193.524l-11.867-6.175 3.324-2.364 8.543 8.539z"/><path d="M18.016 194.085l-12.907-6.719 3.616-2.567 9.291 9.286zm-12.354-6.759l10.822 5.635-7.79-7.786-3.032 2.151zm1.299 8.446l-.279 2.072a.64.64 0 0 0 .199.522l11.256 11.247a1.23 1.23 0 0 0 .726.311c.27.021.539-.048.765-.196a6.12 6.12 0 0 0 .699-.597L6.961 195.772z"/><path d="M18.031 209.715L6.775 198.467a.76.76 0 0 1-.239-.646l.319-2.359 13.677 13.673a7.45 7.45 0 0 1-.823.708 1.38 1.38 0 0 1-.861.222c-.304-.023-.591-.146-.817-.35zM7.067 196.077l-.239 1.771c-.007.074.004.149.03.219a.48.48 0 0 0 .125.183l11.256 11.248a1.09 1.09 0 0 0 1.306.097c.202-.149.395-.308.58-.478l-13.058-13.04zm-5.682-5.882l-.956.678a.59.59 0 0 0-.198.194.59.59 0 0 0-.088.262c-.008.093.006.187.041.274a.6.6 0 0 0 .161.226l2.43 2.43a1.1 1.1 0 0 0 .624.296l2.78.443-4.794-4.803z"/><path d="M6.593 195.201l-3.213-.496c-.265-.037-.511-.156-.704-.34l-2.43-2.43a.73.73 0 0 1-.194-.278.73.73 0 0 1-.049-.334.74.74 0 0 1 .106-.322c.06-.097.142-.179.239-.239l1.058-.748 5.188 5.187zM1.37 190.39l-.854.606c-.064.035-.119.085-.159.146s-.065.131-.071.204a.44.44 0 0 0 .034.213c.029.067.073.126.13.172l2.43 2.43a1 1 0 0 0 .544.257l2.342.363-4.395-4.391z"/></g><path d="M89.518 203.102H70.122l-1.713-21.583-2.78-30.652-2.833-31.271h26.336l.385 83.506z" class="C"/><g class="B"><path d="M89.517 203.248H70.121a.15.15 0 0 1-.099-.038c-.027-.025-.044-.059-.047-.095l-1.713-21.583-5.613-61.923c-.002-.02 0-.04.007-.059s.016-.037.03-.052.029-.027.048-.035.038-.013.058-.014h26.336c.039 0 .076.016.103.043s.043.065.043.103l.39 83.507c0 .019-.004.038-.011.056s-.018.033-.032.047-.03.024-.047.032-.037.011-.056.011zm-19.263-.288h19.117l-.385-83.214H62.95l5.599 61.769 1.704 21.445z"/><path d="M74.46 130.79l-6.055 50.73-2.78-30.652 8.835-20.078z"/></g><path d="M79.32 118.489c-11.243 47.804-13.863 49.787-56.856 80.116-4.869-4.227-8.946-9.233-13.761-13.509 29.329-31.427 34.844-21.246 38.562-66.762l32.055.155z" class="C"/><path d="M22.367 198.689c-4.847-4.218-8.968-9.25-13.761-13.509-.014-.013-.024-.029-.032-.046s-.011-.036-.011-.055.004-.038.011-.056.018-.033.032-.046a252.81 252.81 0 0 1 18.59-17.944c13.536-12.027 17.174-15.258 19.918-48.734.003-.036.02-.07.047-.095a.15.15 0 0 1 .099-.038l32.06.177c.022 0 .043.005.062.015s.036.023.05.04a.14.14 0 0 1 .027.059c.004.021.004.043-.002.064-11.305 48.016-13.863 49.831-56.895 80.177-.028.023-.063.035-.099.033a.14.14 0 0 1-.096-.042zm-13.46-13.624c4.732 4.219 8.804 9.176 13.567 13.332 42.82-30.187 45.445-32.064 56.657-79.766l-31.741-.177c-2.744 33.472-6.409 36.738-19.998 48.796a253.12 253.12 0 0 0-18.484 17.815z" class="B"/><path d="M88.754 85.562l-1.704.111-3.24.093c-2.01 0-4.106-.077-6.29-.23l-3.174-5.263-6.237-10.344c27.979-2.744 35.141 1.217 35.026-30.617l14.757 2.815c2.186 24.486-4.639 41.421-29.138 43.435z" class="D"/><path d="M99.293 83.446a42.45 42.45 0 0 1-10.539 2.116 5.35 5.35 0 0 1-.332-1.868c0-7.051 10.561-7.255 10.871-.248zm-12.246 2.226l-3.24.093c-2.01 0-4.105-.077-6.285-.23l-3.178-5.258 3.47-6.9c3.638 2.094 7.321 6.905 9.233 12.296z" class="B"/><path d="M91.7 122.149c-6.772 10.181-48.84 0-48.879 0l1.686-11.163c.801-5.312 1.956-13.226 2.085-18.422.146-7.002.35-13.235 3.603-17.24 6.914-8.507 24.491-9.025 31.471 2.585 1.602 2.656 5.4 12.314 8.113 22.047 2.603 9.335 4.205 18.754 1.921 22.193z" class="D"/><path d="M91.704 122.15a5.52 5.52 0 0 1-.549.699l-9.335-17.917a16.94 16.94 0 0 1 5.095-4.298c.885-.483 1.93-.885 2.868-.677 2.603 9.335 4.205 18.754 1.921 22.194zm-2.191 75.609H69.595c-.019 0-.038-.003-.055-.011s-.033-.018-.046-.032-.023-.029-.03-.047-.01-.037-.01-.056c0-.037.015-.073.041-.1s.063-.041.1-.041h19.918c.038 0 .074.015.1.041s.041.063.041.1c.001.019-.003.038-.009.056a.13.13 0 0 1-.03.047c-.013.014-.029.025-.047.032a.15.15 0 0 1-.055.011z" class="B"/><path d="M129.332 127.639c-4.342-2.842-13.159-17.028-14.367-21.03-1.049-3.47 3.377-12.707 5.63-17.067.385-.742.592-1.563.606-2.399a5.4 5.4 0 0 0-.526-2.417c-2.006-4.187-17.117-25.066-20.472-28.275a5.4 5.4 0 0 0-4.599-1.43c-4.869.779-15.001 2.098-17.971 0-3.426-2.403-14.164-15.209-15.492-20.219-2.142-7.994 15.377-13.022 21.715-14.713 12.066-3.213 36.822 12.535 51.013 32.786 14.81 19.812 22.357 46.511 15.217 58.706-3.311 5.679-13.827 20.587-20.755 16.059z" class="C"/><path d="M129.236 127.758c-4.458-2.917-13.217-17.108-14.426-21.105-1.04-3.444 3.099-12.243 5.639-17.178a5.28 5.28 0 0 0 .586-2.333 5.29 5.29 0 0 0-.51-2.35c-2.001-4.183-17.09-25.031-20.441-28.235a5.28 5.28 0 0 0-4.475-1.394c-5.484.885-15.129 2.058-18.073 0-3.426-2.399-14.164-15.156-15.55-20.294a5.31 5.31 0 0 1 .615-4.179c2.293-3.984 9.428-7.578 21.206-10.712 12.194-3.249 37.062 12.712 51.168 32.843 15.364 20.551 22.194 46.954 15.222 58.87-4.045 6.923-14.186 20.489-20.962 16.068zm.154-.244c6.525 4.267 16.661-9.335 20.556-15.988 6.918-11.809.102-38.066-15.204-58.542C120.693 32.938 95.976 17.03 83.879 20.23c-11.694 3.098-18.772 6.675-21.029 10.574a5.06 5.06 0 0 0-.584 3.984c1.328 4.966 12.124 17.816 15.434 20.135 2.966 2.076 13.483.66 17.865-.044a5.58 5.58 0 0 1 4.718 1.465c3.36 3.218 18.498 24.128 20.503 28.328a5.6 5.6 0 0 1-.08 4.944c-2.04 3.944-6.67 13.492-5.621 16.962 1.186 3.855 10.021 18.108 14.323 20.936h-.018z" class="B"/><path d="M115.696 73.279c-.031-1.77 2.5-7.719 3.881-7.635.695.04.403 2.297.625 3.984 2.089-2.235 3.47-3.696 4.041-3.506.978.328-1.244 2.983-2.213 4.059 2.089-2.235 3.169-3.599 3.824-3.098s-.39 2.288-1.359 3.364c1.523-1.545 2.47-2.324 2.828-1.974.642.62-.681 2.465-1.651 3.541 1.01-.916 1.979-1.912 2.298-1.412.743 1.173-6.024 7.927-6.024 7.927l-6.25-5.249z" class="C"/><path d="M121.855 78.625l-6.255-5.236c-.016-.012-.03-.029-.039-.047s-.014-.039-.014-.059c-.026-1.571 1.771-6.015 3.196-7.365a1.18 1.18 0 0 1 .377-.298 1.17 1.17 0 0 1 .464-.123c.593.04.62 1.053.655 2.341l.071 1.461c2.235-2.39 3.355-3.541 3.984-3.315s.203 1.164-.173 1.77c.819-.801 1.376-1.138 1.828-.801.589.443.058 1.558-.319 2.191.886-.801 1.479-1.111 1.806-.792.514.505 0 1.549-.597 2.421.407-.328.978-.708 1.261-.266.766 1.213-4.9 6.967-6.042 8.109-.012.014-.028.026-.045.034s-.036.013-.055.014-.038-.002-.055-.009a.15.15 0 0 1-.048-.03zm-6.02-5.413l6.104 5.108c2.585-2.594 6.4-6.883 5.909-7.657-.044-.071-.146-.407-2.076 1.447-.028.02-.062.029-.097.026s-.066-.018-.091-.042-.039-.057-.042-.091.006-.069.026-.097c1.182-1.328 2.129-2.886 1.656-3.346-.346-.336-2.001 1.328-2.625 1.974-.013.014-.028.025-.045.032a.17.17 0 0 1-.054.013.13.13 0 0 1-.055-.009c-.017-.007-.034-.016-.047-.029s-.025-.028-.033-.045-.012-.035-.012-.054.002-.037.009-.055a.13.13 0 0 1 .029-.047c.567-.633 2.009-2.682 1.377-3.151-.558-.421-1.891 1.226-3.635 3.098-.012.014-.028.024-.045.032s-.035.011-.054.011-.037-.004-.054-.011-.033-.018-.046-.032-.024-.029-.032-.046-.011-.036-.011-.055a.15.15 0 0 1 .011-.055c.008-.017.019-.033.032-.047.558-.62 3.072-3.541 2.275-3.824-.495-.168-2.142 1.598-3.89 3.466a.14.14 0 0 1-.15.042c-.027-.009-.05-.025-.068-.046a.13.13 0 0 1-.03-.075 16.94 16.94 0 0 1-.106-1.801c-.027-.956-.053-2.036-.385-2.058-.243.033-.466.154-.625.341-1.336 1.266-3.094 5.542-3.12 7.087zM72.506 45.783c-6.396-6.839-7.388-10.694-7.082-12.721a2.75 2.75 0 0 1 1.111-2.001c.034-.019.073-.024.111-.015s.069.034.089.068a.14.14 0 0 1-.011.158c-.011.015-.026.027-.042.036a2.53 2.53 0 0 0-.974 1.811c-.274 1.965.717 5.723 7.02 12.465a.14.14 0 0 1 .032.046.15.15 0 0 1 .011.055c0 .019-.004.038-.011.055a.14.14 0 0 1-.032.046c-.014.016-.031.028-.05.036s-.04.013-.061.012a.16.16 0 0 1-.061-.014c-.019-.009-.036-.022-.049-.038zm12.505 10.499c-.025.001-.049-.005-.071-.017s-.04-.029-.053-.05L66.74 26.869c-.015-.032-.017-.069-.006-.103s.033-.063.064-.082.067-.025.102-.019.067.025.089.053L85.137 56.06c.02.033.026.072.016.11s-.032.069-.065.09a.15.15 0 0 1-.075.022zm37.144 58.09c-.013-.016-.022-.036-.026-.056s-.005-.041-.001-.062.013-.04.025-.056a.16.16 0 0 1 .047-.042.15.15 0 0 1 .059-.018c.021-.002.042.001.061.008a.14.14 0 0 1 .053.033c.015.014.026.032.034.051 2.253 4.117 8.339 13.142 11.668 10.181.027-.027.064-.041.102-.041s.074.014.101.041c.014.013.025.029.032.047a.13.13 0 0 1 .012.055.13.13 0 0 1-.012.055c-.007.018-.018.033-.032.047-3.523 3.169-9.467-5.396-12.123-10.243zm16.254 11.443l-22.296-26.461c-.013-.013-.024-.029-.031-.047s-.012-.036-.012-.055a.13.13 0 0 1 .012-.055c.008-.017.018-.033.031-.046a.15.15 0 0 1 .102-.041c.038 0 .075.015.102.041l22.295 26.46c.014.013.025.028.032.046s.011.035.011.054-.004.037-.011.054-.018.032-.032.045c-.026.027-.063.043-.101.044s-.074-.013-.102-.039z" class="B"/><path d="M124.834 80.578c-4.059 8.149-11.225 14.717-19.631 18.998a51.74 51.74 0 0 1-10.154 3.895c-16.497 4.395-34.698.358-43.378-16.324l6.02-13.058c21.171 16.988 38.783 18.52 55.678-5.887 4.023 3.723 7.334 8.742 11.464 12.376z" class="D"/><path d="M95.411 84.668c-.008-.017-.012-.036-.013-.055s.003-.038.01-.056.018-.034.031-.047.029-.024.047-.032c5.639-2.488 10.924-7.109 16.147-14.129a.13.13 0 0 1 .04-.039c.016-.01.034-.017.053-.02s.037-.002.056.003a.14.14 0 0 1 .05.025c.016.011.029.025.039.041s.017.035.02.054.002.038-.003.057a.14.14 0 0 1-.025.051c-5.254 7.082-10.575 11.716-16.262 14.217-.017.008-.036.013-.055.014s-.038-.002-.055-.009-.034-.017-.048-.03-.025-.029-.032-.046zm-12.653 20.6c-9.189 0-17.453-2.877-23.659-8.317-.018-.011-.033-.026-.044-.044s-.019-.038-.022-.059-.001-.042.005-.062.016-.039.03-.055.031-.028.05-.037.04-.013.061-.013.042.005.061.014.036.022.049.038c7.241 6.348 17.324 9.181 28.395 7.968.038-.004.076.007.106.031s.049.059.053.097-.008.076-.032.106-.059.049-.097.053a46.12 46.12 0 0 1-4.957.279zm-54.711 89.406l-14.872-14.266c-.026-.027-.041-.063-.041-.101s.015-.075.041-.102a.15.15 0 0 1 .208 0l14.872 14.266a.14.14 0 0 1 .037.047c.009.018.014.037.016.058s-.002.04-.009.059-.018.036-.032.051-.031.025-.05.033-.039.011-.059.01-.04-.005-.058-.014-.035-.021-.048-.036l-.004-.005zm139.254 17.09c-.035-.011-.065-.036-.083-.069a.14.14 0 0 1-.01-.108c.011-.036.037-.068.071-.086s.074-.022.111-.011c3.412 1.049 6.962-1.483 8.29-4.426 2.112-4.683.261-10.079-1.275-14.412-.786-2.062-1.417-4.179-1.89-6.334a20.69 20.69 0 0 1-4.842-2.43 24.4 24.4 0 0 1-8.702-10.309 19.5 19.5 0 0 1-1.74-7.737c-1.549-.397-2.97-1.183-4.129-2.284-2.47-2.382-3.856-6.171-3.802-10.407.048-3.651 1.049-7.192 2.058-10.623-2.86-1.42-5.839-4.939-7.02-10.384-.837-3.846-.682-7.821-.531-11.663.001-.037.016-.072.043-.097s.061-.04.098-.04c.019 0 .038.005.056.013s.033.019.046.033.024.03.03.048.01.037.01.056c-.151 3.825-.306 7.777.522 11.588 1.16 5.334 4.063 8.769 6.825 10.181.372-1.244.726-2.563 1.616-3.594 1.731-2.005 4.727-1.554 4.834 1.084.029.609-.105 1.215-.39 1.754s-.71.991-1.23 1.309c-1.457.792-3.192.513-4.648-.146-1 3.404-1.987 6.909-2.036 10.508-.053 4.152 1.301 7.87 3.713 10.181a9.1 9.1 0 0 0 3.931 2.213c.016-1.691.296-3.368.832-4.971 2.213-6.573 7.697-4.395 8.118-.682.208 1.855-.797 3.833-2.563 5.037-.896.568-1.897.948-2.944 1.117a7.83 7.83 0 0 1-3.146-.134c.101 7.171 4.824 14.084 10.304 17.732 1.435.975 2.988 1.765 4.621 2.35-.637-3.687-.133-6.976 1.456-9.348 5.108-7.627 15.43-1.355 11 6.17-1.886 3.205-6.516 5.334-12.08 3.603.47 2.086 1.088 4.137 1.85 6.135 1.523 4.298 3.44 9.791 1.266 14.629-1.42 3.116-5.147 5.63-8.64 4.554zm5.467-25.672c5.519 1.77 10.065-.319 11.893-3.426 4.249-7.219-5.612-13.182-10.512-5.865-1.572 2.328-2.054 5.613-1.386 9.286l.005.005zm-15.24-20.476a7.52 7.52 0 0 0 3.06.151 7.51 7.51 0 0 0 2.867-1.081c1.677-1.146 2.656-3.014 2.439-4.767-.385-3.421-5.458-5.528-7.556.744a15.62 15.62 0 0 0-.814 4.948l.004.005zm-5.825-23.251c1.394.641 3.054.92 4.426.172.474-.291.86-.705 1.119-1.197a3.11 3.11 0 0 0 .351-1.6c-.093-2.382-2.775-2.705-4.325-.908-.836.965-1.212 2.293-1.575 3.528l.004.005z" class="B"/><path d="M66.742 67.897l-2.629-4.316c1.809-1.286 3.056-3.217 3.483-5.396h.195a1.55 1.55 0 0 0 1.101-.44 1.55 1.55 0 0 0 .468-1.09 1.55 1.55 0 0 0-.44-1.101 1.55 1.55 0 0 0-1.09-.468h-.199c-.2-1.175-.641-2.296-1.295-3.292a8.63 8.63 0 0 0-2.507-2.495c-.999-.65-2.122-1.085-3.298-1.279s-2.379-.142-3.534.152-2.236.824-3.176 1.557-1.717 1.653-2.284 2.701-.91 2.203-1.008 3.391.051 2.383.437 3.51l1.943 3.196 4.497 7.383c3.625 5.143 12.349 2.753 9.335-2.014z" class="C"/><path d="M57.293 69.995c-.031-.058-6.409-10.521-6.449-10.588a8.77 8.77 0 0 1-.467-3.562c.092-1.207.432-2.381.999-3.45s1.35-2.009 2.299-2.761 2.042-1.299 3.212-1.608 2.392-.372 3.587-.186a8.77 8.77 0 0 1 3.361 1.268c1.021.65 1.896 1.504 2.571 2.508s1.135 2.138 1.35 3.329h.075c.23-.009.459.029.673.112s.41.207.574.368.295.353.383.565.132.44.129.67-.052.456-.145.667-.228.399-.396.555-.367.277-.583.354-.446.11-.675.096h-.08c-.448 2.121-1.661 4.002-3.408 5.285l2.563 4.205c.02.033.026.072.017.11s-.032.069-.065.09a.15.15 0 0 1-.199-.049l-2.629-4.32c-.019-.031-.025-.068-.018-.103s.028-.067.058-.087c1.777-1.27 3.002-3.169 3.426-5.312.005-.033.023-.063.049-.085s.059-.032.093-.031h.195c.371 0 .728-.145.994-.403s.421-.611.431-.982a1.41 1.41 0 0 0-.4-1.001 1.41 1.41 0 0 0-.99-.425h-.195a.15.15 0 0 1-.142-.12 8.48 8.48 0 0 0-3.731-5.71 8.48 8.48 0 0 0-6.729-1.116 8.48 8.48 0 0 0-5.374 4.2 8.48 8.48 0 0 0-.543 6.799c.655 1.071-2.377-3.904 6.436 10.557.013.016.022.035.027.055s.006.041.002.061-.012.04-.023.057-.027.031-.045.042-.037.018-.058.02-.041.001-.061-.005-.038-.016-.053-.03-.028-.03-.036-.049l-.009.009z" class="B"/><path d="M50.625 58.761l.345.571-.186-.606-.159.035z" class="C"/><path d="M50.966 59.478c-.025 0-.05-.007-.071-.019s-.04-.03-.053-.052l-.345-.571c-.012-.019-.019-.041-.02-.064s.002-.046.011-.066.023-.039.041-.053.039-.024.061-.029l.159-.04c.037-.007.075 0 .107.02a.15.15 0 0 1 .066.087l.181.598c.011.034.01.07-.004.103s-.039.059-.071.074c-.02.009-.041.013-.062.013z" class="B"/><path d="M50.969 59.332a8.59 8.59 0 0 0 1.943 3.196l-1.943-3.196z" class="C"/><g class="B"><path d="M52.802 62.625c-.887-.924-1.561-2.032-1.974-3.245-.011-.034-.009-.07.004-.103s.039-.059.071-.074.069-.02.104-.01.064.032.082.063l1.943 3.196c.016.031.02.066.012.099s-.027.063-.055.084-.061.031-.096.029-.067-.016-.092-.039z"/><path d="M61.601 48.266s-.403 8.113-9.738 10.07c0 0 7.91 4.581 3.24 7.007-4.152 2.151-5.728 1.27-6.821.115-3.758-3.984-7.007-16.652 3.037-20.197 9.224-3.258 15.567-.336 15.665 7.688-1.089-1.947-2.421-3.762-5.382-4.683z"/></g><path d="M55.321 56.932a2.71 2.71 0 0 0-2.953-.589 2.71 2.71 0 0 0-1.673 2.503 2.71 2.71 0 0 0 1.673 2.503 2.71 2.71 0 0 0 2.953-.589" class="C"/><path d="M51.393 60.854c-.281-.262-.506-.578-.663-.929s-.24-.73-.246-1.114a2.87 2.87 0 0 1 .209-1.121c.144-.356.36-.679.632-.95a2.86 2.86 0 0 1 .953-.627c.356-.143.738-.212 1.122-.203s.762.094 1.112.252a2.86 2.86 0 0 1 .925.667c.02.028.029.062.026.097s-.018.067-.042.091-.057.039-.091.042-.069-.006-.097-.026c-.358-.358-.815-.602-1.312-.701s-1.012-.048-1.481.146a2.56 2.56 0 0 0-1.15 3.792c.282.422.682.75 1.15.944a2.56 2.56 0 0 0 2.793-.555c.013-.014.029-.025.046-.032s.036-.011.055-.011.038.004.055.011.033.018.047.032a.15.15 0 0 1 0 .204 2.86 2.86 0 0 1-4.046-.009zm11.489-7.122a.66.66 0 0 0 1.2.21.66.66 0 0 0-.7-.997c-.17.039-.318.144-.412.291s-.125.326-.088.497zm-1.48-.964c-.052-.019-.093-.057-.117-.107s-.026-.107-.007-.158c.189-.508.572-.921 1.064-1.148s1.055-.25 1.565-.064c.051.02.092.059.115.108s.026.106.009.157-.058.093-.107.117-.107.026-.158.007c-.406-.15-.855-.133-1.249.048a1.63 1.63 0 0 0-.849.917c-.02.051-.059.092-.108.115s-.106.026-.158.009zm4.886 4.501c0 .443-.646.739-.363 2.142.084.407-.478.659-.934.717a1.53 1.53 0 0 1-.62-.062c-.2-.063-.385-.167-.544-.305a2.39 2.39 0 0 1-.885-1.115c-.575-2.474 3.253-2.523 3.346-1.377z" class="B"/><path d="M65.692 57.105c-.312-.198-.685-.275-1.049-.217a1.23 1.23 0 0 0-.506.182c-.153.097-.283.227-.379.38a1.53 1.53 0 0 0 1.053.226 1.23 1.23 0 0 0 .881-.571z" class="C"/><g class="B"><path d="M64.112 63.604l-3.877.81 5.506 1.859-1.629-2.669z"/><path d="M65.69 66.387l-5.502-1.859c-.03-.009-.056-.028-.074-.053s-.029-.055-.029-.087.01-.061.029-.087a.14.14 0 0 1 .074-.053l3.873-.81c.029-.006.06-.002.088.01a.15.15 0 0 1 .067.057l1.629 2.656c.017.024.026.053.027.083s-.009.059-.026.083-.041.043-.069.054-.058.012-.087.005zm-4.909-1.965l4.626 1.567-1.368-2.248-3.258.682zM35.483 48.629a6.4 6.4 0 0 0 1.831 3.23c.916.872 2.071 1.452 3.317 1.668s2.529.057 3.685-.456a6.4 6.4 0 0 0 2.811-2.426c.677-1.069 1.021-2.314.989-3.579a6.4 6.4 0 0 0-1.165-3.525 6.39 6.39 0 0 0-2.928-2.284 6.4 6.4 0 0 0-8.541 7.371zM142.907 96.88c-7.968-30.541-21.8-51.199-42.307-63.159a.14.14 0 0 1-.041-.037c-.011-.015-.019-.032-.024-.05s-.005-.037-.002-.055a.14.14 0 0 1 .019-.052c.009-.016.021-.031.036-.042s.032-.02.05-.025a.15.15 0 0 1 .056-.004.14.14 0 0 1 .052.018c23.544 13.721 35.601 37.092 42.44 63.336a.15.15 0 0 1 .002.056.14.14 0 0 1-.019.053c-.01.016-.023.03-.038.041s-.033.019-.052.023-.037.007-.055.005-.037-.008-.053-.018-.03-.022-.041-.037-.019-.032-.023-.051zm54.405-82.609a6.91 6.91 0 0 0-.697-9.747 6.91 6.91 0 0 0-9.746.697 6.91 6.91 0 0 0 10.443 9.05z"/></g><path d="M204.07 47.744c-7.126 5.975-18.497 9.065-30.762 7.494a47.31 47.31 0 0 1-15.253-4.594c2.717-5.312 11.53-9.663 22.255-10.428 10.995-.788 20.538 2.434 23.76 7.529z" fill="#e84f35"/><path d="M181.597 30.459l.544-.336.748 10.512-5.179 6.732-5.448-5.971-.354-4.935c-1.492-.136-2.931-.622-4.199-1.419a9.52 9.52 0 0 1-3.1-3.167l-1.16.376c-1.235.358-2.151-2.315-.974-3.359l.885-.753c0-.142-.031-.292-.039-.443-.089-1.242.067-2.49.46-3.671s1.016-2.274 1.831-3.216 1.809-1.713 2.922-2.27 2.326-.89 3.568-.979 2.49.068 3.672.461 2.274 1.015 3.215 1.831a9.48 9.48 0 0 1 2.27 2.922c.558 1.114.891 2.326.98 3.568.097 1.403-.123 2.81-.642 4.117z" class="C"/><g class="B"><path d="M167.227 19.34s9.45 11.03 15.629 7.423-5.387-14.071-8.733-13.571-6.896 6.148-6.896 6.148z"/><path d="M172.267 41.538c-.036 0-.071-.013-.099-.038s-.043-.058-.047-.095l-.341-4.811c-1.472-.153-2.89-.643-4.143-1.431s-2.309-1.854-3.085-3.115l-1.053.341c-.514.151-1.023-.133-1.368-.757-.473-.885-.513-2.169.252-2.851l.806-.699c0-.124 0-.248-.031-.372a9.63 9.63 0 0 1 .627-4.184 9.64 9.64 0 0 1 2.36-3.511c1.037-.981 2.279-1.719 3.636-2.162a9.63 9.63 0 0 1 4.212-.395c1.416.182 2.773.677 3.975 1.448s2.216 1.8 2.971 3.011a9.63 9.63 0 0 1 1.394 3.994c.163 1.418.009 2.855-.452 4.206l.186-.115c.021-.013.045-.02.07-.021s.049.004.071.015.041.028.055.048.023.044.025.069l.753 10.508c.002.038-.01.075-.035.105s-.06.047-.098.05c-.019.002-.038.001-.057-.005s-.035-.015-.05-.027-.026-.028-.035-.045-.012-.036-.013-.056l-.735-10.273-.34.212c-.026.017-.057.026-.088.024s-.06-.014-.084-.034-.04-.047-.047-.078a.14.14 0 0 1 .011-.09 9.34 9.34 0 0 0 .603-4.103c-.109-1.396-.53-2.749-1.232-3.96a9.35 9.35 0 0 0-2.825-3.036 9.34 9.34 0 0 0-7.997-1.206 9.34 9.34 0 0 0-3.595 2.068c-1.028.95-1.83 2.119-2.345 3.42a9.33 9.33 0 0 0-.633 4.099c0 .146 0 .292.04.443.002.023-.001.046-.01.068s-.022.041-.039.056l-.859.753c-.651.575-.606 1.744-.19 2.496.27.496.659.726 1.027.62l1.155-.376c.031-.01.065-.009.096.003s.056.035.072.064a9.4 9.4 0 0 0 3.056 3.115 9.39 9.39 0 0 0 4.132 1.399.14.14 0 0 1 .092.041c.025.024.039.057.041.091l.35 4.931c.002.019 0 .038-.006.056s-.015.035-.027.05a.15.15 0 0 1-.045.035c-.017.008-.036.013-.055.014l-.009-.009z"/><path d="M182.843 30.778c-.576-5.019-5.675-13.584-10.752-13.221-1.915.133-3.745.845-5.246 2.041a9.48 9.48 0 0 0-3.164 4.657s-.885-11.929 5.617-15.377c11.562-6.117 30.05 8.251 13.545 21.901z"/></g><path d="M184.665 27.75c.044.611-.094 1.222-.397 1.754a3.1 3.1 0 0 1-1.305 1.238c-.547.274-1.164.381-1.772.305s-1.18-.33-1.643-.731a3.09 3.09 0 0 1-.96-1.521c-.163-.591-.147-1.216.046-1.798a3.1 3.1 0 0 1 2.716-2.115c.406-.03.814.021 1.2.149s.744.331 1.052.598.56.591.743.955a3.1 3.1 0 0 1 .32 1.166z" class="C"/><path d="M181.57 31.194a3.26 3.26 0 0 1-2.165-5.58 3.26 3.26 0 0 1 5.54 2.266c.015.854-.305 1.679-.893 2.299s-1.394.985-2.247 1.015a2.14 2.14 0 0 1-.235 0zm0-6.197h-.212a2.95 2.95 0 0 0-1.601.613c-.461.358-.805.845-.99 1.399a2.95 2.95 0 0 0 4.122 3.573 2.95 2.95 0 0 0 1.245-1.179c.289-.507.421-1.089.38-1.671-.055-.742-.388-1.437-.933-1.944s-1.262-.79-2.006-.791h-.005zm-13.182-.08a.76.76 0 0 1-1.259.626.76.76 0 0 1-.223-.815.77.77 0 0 1 .668-.518.76.76 0 0 1 .295.037.77.77 0 0 1 .259.148.75.75 0 0 1 .182.236.76.76 0 0 1 .078.288zm.899-1.433c-.128-.221-.299-.414-.502-.568a1.95 1.95 0 0 0-.681-.333 1.93 1.93 0 0 0-.756-.046 1.94 1.94 0 0 0-.717.248c-.016.01-.034.017-.053.02s-.038.002-.057-.002-.036-.013-.051-.024-.028-.026-.038-.043a.15.15 0 0 1-.013-.11c.01-.037.034-.069.066-.089a2.21 2.21 0 0 1 .821-.281 2.2 2.2 0 0 1 .866.056 2.19 2.19 0 0 1 1.327 1.031c.019.033.024.072.014.108s-.034.068-.067.086-.072.024-.108.014-.068-.034-.086-.067h.035zm-25.031 32.595l3.51-12.787c-4.94-5.25-7.237-11.447-6.462-17.462 1.987-15.492 21.445-22.694 38.393-20.516 19.401 2.488 33.751 15.735 31.989 29.541-.633 4.904-3.236 9.397-7.525 12.991-7.44 6.237-18.984 9.052-30.873 7.525a47.26 47.26 0 0 1-15.284-4.603c-.686-.345-1.328-.704-1.974-1.067l-11.539 6.546c-.025.025-.057.04-.092.043a.15.15 0 0 1-.098-.027c-.029-.02-.048-.05-.057-.084s-.004-.069.012-.101zm-2.656-30.21c-.766 5.949 1.523 12.084 6.44 17.263.017.018.03.04.036.064a.15.15 0 0 1 0 .073L144.637 55.8l11.309-6.414a.14.14 0 0 1 .073-.02.14.14 0 0 1 .073.02 40.25 40.25 0 0 0 2.032 1.102 46.77 46.77 0 0 0 15.204 4.577c11.814 1.518 23.273-1.27 30.652-7.458 4.24-3.541 6.808-7.967 7.427-12.81 1.744-13.642-12.495-26.748-31.741-29.213-16.39-2.08-36.087 4.785-38.075 20.295l.009-.009zm38.792-13.3l-.236.164 6.999 10.068.236-.164-6.999-10.068z" class="B"/><path d="M187.813 28.719c-.659 3.452-3.983 6.254-7.44 6.254s-5.71-2.802-5.046-6.254 3.984-6.254 7.436-6.254 5.71 2.797 5.05 6.254z" class="C"/><path d="M180.376 35.116c-3.541 0-5.869-2.868-5.187-6.427s4.068-6.369 7.578-6.369c.784-.022 1.563.132 2.28.45a5.25 5.25 0 0 1 1.863 1.391 5.46 5.46 0 0 1 1.045 2.174 5.47 5.47 0 0 1 .004 2.412c-.669 3.514-4.073 6.369-7.583 6.369zm2.391-12.504c-3.378 0-6.64 2.749-7.295 6.135s1.571 6.086 4.904 6.086 6.64-2.753 7.299-6.139a5.16 5.16 0 0 0-.001-2.283 5.17 5.17 0 0 0-.986-2.059 4.96 4.96 0 0 0-3.921-1.74z" class="B"/><path d="M181.024 34.939c-3.731.412-6.427-2.483-5.714-6.223s4.555-6.639 8.091-6.197c-1.629.209-3.154.917-4.365 2.026s-2.051 2.566-2.403 4.171c-.606 3.236 1.337 5.891 4.391 6.223z" class="C"/><path d="M175.189 28.689c.726-3.789 4.599-6.75 8.251-6.33.034.004.067.021.09.047s.037.06.038.095-.014.071-.038.097-.059.042-.095.044a7.82 7.82 0 0 0-6.639 6.1c-.607 3.138 1.266 5.754 4.267 6.051.033.006.064.024.086.05s.034.06.034.094-.012.068-.034.094-.053.044-.086.05c-3.772.42-6.618-2.501-5.874-6.392zm6.777-6.029a7.85 7.85 0 0 0-4.191 2.033c-1.16 1.086-1.963 2.498-2.303 4.049-.615 3.222 1.328 5.754 4.294 6.055-2.364-.828-3.811-3.213-3.254-6.108a8.16 8.16 0 0 1 1.923-3.742 8.15 8.15 0 0 1 3.531-2.287z" class="B"/><path d="M175.93 7.58s7.414 9.583 5.639 21.14h1.85s3.253-13.018-2.656-19.675c-.459-.512-1.028-.915-1.664-1.179s-1.322-.381-2.01-.344l-1.159.057z" class="C"/><g class="B"><path d="M183.421 28.861h-1.85a.14.14 0 0 1-.06-.012c-.019-.008-.036-.021-.049-.037s-.024-.034-.029-.054a.14.14 0 0 1-.004-.061c1.744-11.367-5.537-20.932-5.613-21.029-.012-.022-.019-.047-.019-.073s.007-.051.019-.073.028-.045.05-.06.048-.023.074-.024l1.164-.062c.71-.04 1.419.081 2.076.354a4.7 4.7 0 0 1 1.713 1.222c5.892 6.639 2.718 19.67 2.687 19.803-.009.034-.03.063-.06.083a.14.14 0 0 1-.099.023zm-1.682-.288h1.567c.296-1.27 2.859-13.23-2.656-19.431a4.43 4.43 0 0 0-1.602-1.143 4.41 4.41 0 0 0-1.939-.335l-.885.049c1.053 1.492 7.046 10.402 5.515 20.861zm-8.131 5.285c-1.531-.028-3.018-.509-4.276-1.381-.032-.021-.055-.053-.063-.09s-.002-.076.019-.109c.009-.016.023-.03.038-.041s.033-.019.052-.023.038-.005.056-.001.037.011.053.021c6.276 4.081 10.711-2.319 10.897-2.594a.14.14 0 0 1 .092-.061c.038-.007.076 0 .107.021a.15.15 0 0 1 .062.091c.008.037-.001.076-.022.108-.044.053-2.806 4.059-7.015 4.059z"/><path d="M184.869 29.078a2.88 2.88 0 0 1-.94 1.699c-.5.441-1.138.694-1.804.718a2.02 2.02 0 0 1-.88-.179 2.03 2.03 0 0 1-1.127-1.341c-.075-.294-.084-.6-.024-.898a2.88 2.88 0 0 1 .94-1.698c.5-.441 1.138-.694 1.804-.718a2.02 2.02 0 0 1 .88.179 2.03 2.03 0 0 1 1.127 1.34c.075.294.084.6.024.898zm-12.955 7.383c1.408.301 2.871.211 4.232-.261-1.328 1.545-2.656 2.496-4.064 2.598"/><path d="M172.082 38.944c-.033-.006-.064-.024-.086-.05s-.034-.059-.034-.094.012-.068.034-.094.053-.044.086-.05c1.196-.088 2.391-.801 3.643-2.187a7.72 7.72 0 0 1-3.837.133c-.037-.01-.068-.035-.087-.068s-.025-.072-.015-.109c.005-.018.013-.035.024-.05s.025-.027.041-.037.034-.016.052-.018.037-.002.056.003a7.82 7.82 0 0 0 4.156-.261c.03-.01.062-.011.092 0a.14.14 0 0 1 .073.057c.017.026.025.058.023.09s-.016.061-.038.084c-1.425 1.686-2.788 2.554-4.165 2.656l-.018-.004zm-1.166-6.603a1 1 0 0 1-.17.558c-.11.165-.267.294-.45.37a1.01 1.01 0 0 1-.581.057 1 1 0 0 1-.514-.275c-.141-.14-.237-.32-.275-.514s-.019-.397.057-.581.205-.34.37-.451a1 1 0 0 1 .558-.169 1 1 0 0 1 .385.075 1.01 1.01 0 0 1 .327.218 1 1 0 0 1 .293.712z"/><path d="M169.916 33.505a1.15 1.15 0 0 1-.816-1.956c.16-.161.364-.27.587-.315a1.15 1.15 0 0 1 1.178.486c.126.189.193.41.193.637 0 .303-.12.594-.334.809s-.504.336-.808.337zm0-2.005a.86.86 0 0 0-.613 1.464.86.86 0 0 0 1.323-.128.86.86 0 0 0 .145-.477.86.86 0 0 0-.06-.333.85.85 0 0 0-.463-.475.86.86 0 0 0-.332-.068v.018zm-3.609-.311c-.03-.023-.049-.056-.055-.093s.003-.075.024-.106c.011-.016.025-.029.042-.04s.034-.017.053-.02a.14.14 0 0 1 .109.028 1.68 1.68 0 0 0 1.248.305 1.33 1.33 0 0 0 .806-.886.15.15 0 0 1 .079-.078c.035-.015.075-.015.111-.002s.064.043.079.079a.15.15 0 0 1 .001.112c-.074.238-.202.456-.375.635s-.386.315-.621.397a1.86 1.86 0 0 1-1.501-.332zm-61.108 68.387a51.76 51.76 0 0 1-10.154 3.895 5.31 5.31 0 0 1-.319-1.819 5.45 5.45 0 0 1 1.24-3.449c.799-.972 1.911-1.636 3.145-1.881s2.515-.054 3.625.539a5.44 5.44 0 0 1 2.462 2.714zm4.525-24.175l-.271.31 11.362 9.929.271-.31-11.362-9.929zm4.268.153a1.46 1.46 0 0 1-.813-.249c-.24-.162-.427-.391-.537-.659a1.46 1.46 0 0 1-.082-.846c.057-.284.197-.545.402-.749s.466-.344.75-.4.579-.027.846.084a1.47 1.47 0 0 1 .657.54c.161.241.246.524.246.814-.001.389-.156.762-.432 1.036a1.47 1.47 0 0 1-1.037.429zm0-2.518a1.05 1.05 0 0 0-.973.651 1.05 1.05 0 0 0 .767 1.436 1.05 1.05 0 0 0 .609-.06 1.06 1.06 0 0 0 .473-.388 1.05 1.05 0 0 0-.131-1.33 1.05 1.05 0 0 0-.342-.228c-.128-.053-.265-.08-.403-.08z"/></g></svg>