<svg xmlns="http://www.w3.org/2000/svg" width="134" height="52" fill="none"><g fill="#225e63"><path d="M91.605 29.93l1.395.396c-.093.374-.233.683-.442.925s-.442.441-.744.551c-.302.132-.674.198-1.14.198-.558 0-1-.066-1.372-.22-.349-.154-.651-.418-.907-.815-.256-.375-.395-.881-.395-1.476 0-.793.233-1.41.674-1.85S89.767 27 90.581 27c.651 0 1.139.132 1.512.375s.651.617.814 1.145l-1.395.286c-.046-.154-.093-.264-.163-.33-.093-.11-.186-.198-.325-.264s-.279-.088-.419-.088c-.349 0-.628.132-.814.418-.139.198-.209.529-.209.947 0 .529.093.903.256 1.101s.419.308.721.308.535-.088.675-.242c.186-.198.302-.419.372-.727z"/><path d="M93 29.013c0-.952.218-1.692.655-2.22S94.703 26 95.489 26c.808 0 1.419.264 1.856.767.437.529.655 1.242.655 2.194 0 .687-.087 1.242-.284 1.665s-.459.767-.83 1.005c-.349.238-.808.37-1.332.37-.546 0-.982-.106-1.354-.317-.349-.211-.633-.529-.873-1.004S93 29.7 93 29.013zm1.485 0c0 .581.087 1.004.262 1.269a.83.83 0 0 0 .742.396c.328 0 .568-.132.742-.37.175-.264.262-.714.262-1.348 0-.555-.087-.952-.284-1.189-.175-.264-.437-.37-.742-.37a.82.82 0 0 0-.721.396c-.175.211-.262.634-.262 1.216zM99.04 27h1.795l.685 3.046.686-3.046H104v5h-1.129v-3.818L102.004 32h-1.008l-.867-3.818V32H99v-5h.04zm5.96 0h3.038c.672 0 1.156.136 1.478.407s.484.634.484 1.131-.188.905-.538 1.176c-.349.294-.914.43-1.639.43h-.995V32H105v-5zm1.828 2.127h.457c.349 0 .591-.045.753-.158.134-.113.215-.226.215-.385a.5.5 0 0 0-.188-.407c-.135-.113-.35-.158-.699-.158h-.511v1.109h-.027z"/><path d="M110 27h1.563v3.773H114V32h-4v-5zm5 0h1v5h-1v-5zm5.271 4.182h-1.604l-.229.818H117l1.729-5h1.542L122 32h-1.479l-.25-.818zm-.292-1.068l-.5-1.795-.5 1.795h1zM123 27h1.5l1.976 2.773V27H128v5h-1.524l-1.952-2.75V32H123v-5z"/><path d="M128 27h5v1.227h-1.667V32h-1.642v-3.773h-1.667V27H128zm-54.421 7.176L78 32.772l-1.436-3.216c-1.055 1.336-2.109 3.057-2.984 4.62zm-1.503-14.699L63.414 0 0 3.624 17.57 52l33.817-10.758c-2.154-3.125-2.94-6.84-.449-8.652 2.782-2.038 6.979.317 9.649 3.646 2.581-4.348 9.829-14.472 11.489-16.76z"/></g><path d="M61.181 14.076c2.616 0 4.744-2.038 4.744-4.575s-2.128-4.575-4.744-4.575-4.744 2.038-4.744 4.575c0 2.514 2.128 4.575 4.744 4.575zm-3.879 1.97h7.759V36.77h-7.759V16.047zm-3.835 6.048c.066.023.111 0 .111-.068v-5.254c0-.068-.044-.136-.111-.181 0 0-1.02-.679-4.123-.861-.155-.091-2.882-.113-3.613 0-11.305.929-11.726 9.286-11.726 9.648v2.038c0 .249 0 8.788 11.726 9.535 1.153.091 3.392 0 3.613 0 2.704 0 4.566-.838 4.566-.838a.17.17 0 0 0 .111-.159V31.04c0-.068-.044-.091-.089-.045 0 0-.842.68-4.522 1.064-1.042.113-1.552.068-1.929 0-5.231-.906-5.475-4.801-5.475-4.801 0-.068-.022-.181-.022-.227v-1.495c0-.068 0-.181.022-.227 0 0 .355-4.19 5.475-4.643h1.929c2.239.294 4.057 1.427 4.057 1.427zm-41.01 14.608c0 .068.044.113.111.113h7.559c.067 0 .111-.045.111-.113v-6.024c0-.068.044-.113.111-.113 0 0 12.081.883 12.081-7.383 0-6.545-7.581-7.247-10.064-7.134h-9.798c-.066 0-.111.045-.111.113v20.542zm7.648-10.735v-5.413h1.862s2.682.113 2.904 1.993c.044.136.044 1.064 0 1.11-.355 2.197-2.682 2.31-2.682 2.31h-2.084z" fill="#fefefe"/><path d="M61.602 47c.605 0 1.081 0 1.86-.363 2.682-1.473 11.742-24.657 21.301-31.796.065-.045.13-.113.173-.181.065-.091.065-.181.065-.181s0-.476-1.406-.476c-8.499-.249-17.343 18.448-21.993 25.836-.065.091-.368 0-.368 0s-3.114-3.853-5.817-5.326c-.065-.023-.368-.136-.692-.113-.216 0-1.471.272-2.054.907-.692.771-.67 1.201-.67 2.13 0 .068.043.385.13.544.67 1.224 3.676 5.575 6.163 7.977.368.295.952 1.042 3.309 1.042z" fill="#2bbc5d"/><path d="M88 8h6.989c1.389 0 2.501.202 3.334.584.855.405 1.56.966 2.094 1.685.556.742.962 1.595 1.197 2.562.257.966.385 2 .385 3.101 0 1.708-.192 3.034-.556 3.977s-.876 1.73-1.539 2.382c-.662.629-1.368 1.056-2.116 1.281-1.026.292-1.966.427-2.8.427H88V8zm4.702 3.618v8.742h1.154c.983 0 1.689-.112 2.095-.337s.748-.629.983-1.191.363-1.506.363-2.787c0-1.708-.257-2.854-.791-3.483s-1.389-.944-2.629-.944h-1.176zM104 18.287l4.544-.299c.108.783.303 1.382.606 1.797.498.668 1.19.99 2.099.99.671 0 1.212-.161 1.579-.507s.563-.737.563-1.175c0-.415-.173-.806-.519-1.152s-1.169-.645-2.445-.944c-2.099-.507-3.571-1.175-4.48-2.004s-1.341-1.889-1.341-3.179c0-.852.238-1.635.692-2.396s1.147-1.336 2.078-1.774S109.561 7 111.162 7c1.969 0 3.484.392 4.501 1.175 1.039.783 1.645 2.027 1.839 3.732l-4.5.276c-.13-.737-.368-1.267-.758-1.612s-.909-.507-1.579-.507c-.563 0-.974.115-1.255.369a1.17 1.17 0 0 0-.412.921c0 .253.109.507.347.714.216.207.757.415 1.601.599 2.077.484 3.57.967 4.479 1.451s1.558 1.106 1.969 1.82.606 1.543.606 2.442a5.42 5.42 0 0 1-.822 2.902c-.541.898-1.32 1.566-2.294 2.027s-2.229.691-3.722.691c-2.618 0-4.436-.53-5.453-1.613-.995-1.083-1.558-2.442-1.709-4.1zm15 0l4.869-.299c.116.783.324 1.382.649 1.797.533.668 1.275.99 2.249.99.718 0 1.298-.161 1.692-.507s.603-.737.603-1.175c0-.415-.186-.806-.557-1.152s-1.252-.645-2.619-.944c-2.249-.507-3.826-1.175-4.799-2.004-.951-.829-1.438-1.889-1.438-3.179 0-.852.255-1.635.742-2.396s1.229-1.336 2.226-1.774S124.958 7 126.674 7c2.11 0 3.732.392 4.822 1.175 1.113.783 1.762 2.027 1.971 3.732l-4.822.276c-.14-.737-.395-1.267-.812-1.612s-.974-.507-1.692-.507c-.603 0-1.044.115-1.345.369a1.14 1.14 0 0 0-.441.921c0 .253.116.507.371.714.232.207.812.415 1.716.599 2.226.484 3.825.967 4.799 1.451s1.669 1.106 2.11 1.82.649 1.543.649 2.442a5.15 5.15 0 0 1-.881 2.902c-.58.898-1.414 1.566-2.457 2.027s-2.388.691-3.988.691c-2.805 0-4.753-.53-5.842-1.613s-1.693-2.442-1.832-4.1z" fill="#225e63"/></svg>