<svg xmlns="http://www.w3.org/2000/svg" width="256" height="153" preserveAspectRatio="xMidYMid"><path d="M23.759 0h208.379C245.325 0 256 10.675 256 23.863v79.542c0 13.187-10.675 23.863-23.863 23.863H157.41l10.257 25.118-45.109-25.118H23.863c-13.187 0-23.863-10.675-23.863-23.863V23.863C-.104 10.78 10.571 0 23.759 0h0z" fill="#9b5c8f"/><path d="M14.578 21.75c1.457-1.977 3.642-3.018 6.556-3.226 5.307-.416 8.325 2.081 9.054 7.493 3.226 21.75 6.764 40.169 10.511 55.259l22.79-43.395c2.081-3.954 4.683-6.036 7.805-6.244 4.579-.312 7.389 2.602 8.533 8.741 2.602 13.841 5.932 25.6 9.886 35.59 2.706-26.433 7.285-45.476 13.737-57.236 1.561-2.914 3.85-4.371 6.868-4.579 2.393-.208 4.579.52 6.556 2.081s3.018 3.538 3.226 5.932c.104 1.873-.208 3.434-1.041 4.995-4.059 7.493-7.389 20.085-10.094 37.567-2.602 16.963-3.538 30.179-2.914 39.649.208 2.602-.208 4.891-1.249 6.868-1.249 2.289-3.122 3.538-5.515 3.746-2.706.208-5.515-1.041-8.221-3.85-9.678-9.886-17.379-24.663-22.998-44.332L53.082 96.78c-6.14 11.759-11.343 17.795-15.714 18.107-2.81.208-5.203-2.185-7.285-7.18-5.307-13.633-11.031-39.961-17.171-78.985-.416-2.706.208-5.099 1.665-6.972zm223.636 16.338c-3.746-6.556-9.262-10.511-16.65-12.072-1.977-.416-3.85-.624-5.62-.624-9.99 0-18.107 5.203-24.455 15.61-5.411 8.846-8.117 18.628-8.117 29.346 0 8.013 1.665 14.881 4.995 20.605 3.746 6.556 9.262 10.511 16.65 12.072 1.977.416 3.85.624 5.62.624 10.094 0 18.211-5.203 24.455-15.61 5.411-8.95 8.117-18.732 8.117-29.45.104-8.117-1.665-14.881-4.995-20.501zm-13.112 28.826c-1.457 6.868-4.059 11.967-7.909 15.402-3.018 2.706-5.828 3.85-8.429 3.33-2.498-.52-4.579-2.706-6.14-6.764-1.249-3.226-1.873-6.452-1.873-9.47 0-2.602.208-5.203.728-7.597.937-4.267 2.706-8.429 5.515-12.384 3.434-5.099 7.076-7.18 10.823-6.452 2.498.52 4.579 2.706 6.14 6.764 1.249 3.226 1.873 6.452 1.873 9.47 0 2.706-.208 5.307-.728 7.701zm-52.033-28.826c-3.746-6.556-9.366-10.511-16.65-12.072-1.977-.416-3.85-.624-5.62-.624-9.99 0-18.107 5.203-24.455 15.61-5.411 8.846-8.117 18.628-8.117 29.346 0 8.013 1.665 14.881 4.995 20.605 3.746 6.556 9.262 10.511 16.65 12.072 1.977.416 3.85.624 5.62.624 10.094 0 18.211-5.203 24.455-15.61 5.411-8.95 8.117-18.732 8.117-29.45 0-8.117-1.665-14.881-4.995-20.501zm-13.216 28.826c-1.457 6.868-4.059 11.967-7.909 15.402-3.018 2.706-5.828 3.85-8.429 3.33-2.498-.52-4.579-2.706-6.14-6.764-1.249-3.226-1.873-6.452-1.873-9.47 0-2.602.208-5.203.728-7.597.937-4.267 2.706-8.429 5.515-12.384 3.434-5.099 7.076-7.18 10.823-6.452 2.498.52 4.579 2.706 6.14 6.764 1.249 3.226 1.873 6.452 1.873 9.47.104 2.706-.208 5.307-.728 7.701h0 0z" fill="#fff"/></svg>