<svg xmlns="http://www.w3.org/2000/svg" width="257" height="159" fill="none"><rect width="257" height="159" rx="16" fill="#001535"/><path opacity=".6" fill-rule="evenodd" d="M30.05 131.05v-3.1H19.951v3.1H30.05zm12 0H31.951v-3.1H42.05v3.1zm-10.099 1.9v3.1h5.696a9.55 9.55 0 0 0 3.636-3.1h-9.332zm9.891-10l.208.403v2.697H31.951v-3.1h9.891zM31.951 118h1.55c2.757 0 5.239 1.174 6.975 3.05h-8.524V118zm-10.425 3.05c1.735-1.876 4.218-3.05 6.975-3.05h1.55v3.05h-8.524zm-1.575 2.303l.208-.403h9.891v3.1H19.951v-2.697zM30.05 136.05v-3.1h-9.332c.925 1.318 2.176 2.39 3.636 3.1h5.695z" fill="#fff"/><rect x="26" y="122" width="10" height="10" rx="5" fill="#324f64" stroke="#001535" stroke-width="1.9"/><g opacity=".6" fill="#fff"><path d="M30.36 92.598c0 2.032-.525 3.999-1.443 5.77-.328.656-.656.852-1.049.59s-.459-.59-.131-1.246c1.64-3.409 1.705-6.753.131-10.162a1.98 1.98 0 0 0-.262-.525c-.197-.393-.131-.721.262-.918.328-.197.721-.131.918.262.721 1.246 1.18 2.623 1.443 4.065.066.721.066 1.442.131 2.164zm-2.82-.328c-.066 1.77-.328 3.213-1.049 4.524a5.77 5.77 0 0 1-.393.656c-.197.262-.525.328-.853.131-.262-.197-.393-.459-.262-.787.197-.393.393-.787.525-1.246.853-2.229.787-4.393-.197-6.556-.066-.197-.131-.459-.262-.721-.197-.328-.131-.656.262-.852s.721-.066.918.262l1.115 3.016c.131.59.131 1.18.197 1.574zm-2.886.918c0 .852-.328 1.901-.984 2.885-.131.197-.459.393-.656.393s-.459-.197-.525-.393 0-.525.131-.721c.525-1.115.852-2.229.656-3.409-.131-.721-.393-1.442-.656-2.098-.197-.459-.262-.852.197-1.115.328-.197.721-.066.984.393.656 1.18.918 2.426.853 4.065zm-2.623-.589c0 .852-.197 1.573-.721 2.229-.262.328-.525.59-.984.262-.393-.262-.393-.59-.197-.983.656-1.049.656-2.098 0-3.147-.131-.393-.131-.721.262-.984s.721-.066.984.262c.459.721.721 1.508.656 2.36z"/></g></svg>