<svg xmlns="http://www.w3.org/2000/svg" width="107" height="32" fill="none"><path d="M1.063 7.958h5.154v16.143H1.063V7.958zm5.326-4.487c0 1.386-1.086 2.509-2.783 2.509C1.98 5.98.894 4.857.928 3.471.894 2.019 1.979.929 3.64.929s2.712 1.09 2.75 2.542zm56.278 17.945c0-1.788 1.258-3.083 3.065-3.083s3.031 1.262 3.031 3.083c0 1.759-1.228 3.05-3.065 3.05-1.773 0-3.031-1.291-3.031-3.05z" fill="#e84f35"/><path d="M15.43 12.197c.443.099.988.135 1.735.135 2.761 0 4.462-1.36 4.462-3.646 0-2.055-1.465-3.281-4.053-3.281-1.055 0-1.769.099-2.145.197v6.594zM10.288 2.051c1.6-.267 3.85-.464 7.016-.464 3.2 0 5.484.596 7.016 1.792 1.465 1.126 2.453 2.984 2.453 5.175s-.751 4.045-2.111 5.307c-1.773 1.624-4.391 2.355-7.46 2.355-.68 0-1.296-.033-1.773-.099v7.991h-5.142V2.051zm27.858 14.392c-2.723-.033-4.834.596-4.834 2.553 0 1.291.886 1.924 2.043 1.924 1.292 0 2.351-.827 2.689-1.854.068-.263.101-.563.101-.863v-1.759zm.612 7.658l-.308-1.624h-.101c-1.089 1.295-2.795 1.989-4.767 1.989-3.373 0-5.383-2.384-5.383-4.974 0-4.21 3.884-6.232 9.773-6.199v-.23c0-.863-.477-2.088-3.031-2.088-1.701 0-3.508.563-4.597 1.229l-.954-3.248c1.157-.633 3.441-1.426 6.472-1.426 5.552 0 7.321 3.186 7.321 6.996v5.64c0 1.558.068 3.05.237 3.946h-4.661v-.011zM50.749 7.889l2.487 7.958.815 3.017h.101l.747-3.017 2.043-7.958h5.551l-3.88 10.676c-2.385 6.433-3.985 9.019-5.859 10.643-1.803 1.525-3.711 2.055-5.007 2.224l-1.089-4.275c.646-.099 1.465-.399 2.246-.863.781-.399 1.634-1.192 2.145-2.023.169-.23.27-.497.27-.728 0-.165-.034-.432-.24-.83L44.983 7.889h5.766zm36.847 11.008l.135 5.204h-4.496l-.237-2.286h-.101c-.646.995-2.212 2.651-5.214 2.651-3.369 0-5.856-2.055-5.856-7.062V7.889h5.21v8.723c0 2.355.785 3.778 2.588 3.778 1.431 0 2.246-.962 2.588-1.755.135-.3.169-.695.169-1.094V7.889h5.21v11.008h.004zm13.008-2.454c-2.727-.033-4.838.596-4.838 2.553 0 1.291.886 1.924 2.043 1.924 1.296 0 2.351-.827 2.69-1.854a3.56 3.56 0 0 0 .105-.863v-1.759zm.616 7.658l-.308-1.624h-.102c-1.089 1.295-2.791 1.989-4.766 1.989-3.373 0-5.379-2.384-5.379-4.974 0-4.21 3.88-6.232 9.773-6.199v-.23c0-.863-.477-2.088-3.031-2.088-1.702 0-3.508.563-4.598 1.229l-.954-3.248c1.157-.633 3.441-1.426 6.468-1.426 5.551 0 7.32 3.186 7.32 6.996v5.64c0 1.558.068 3.05.237 3.946h-4.661v-.011z" fill="#fff"/></svg>