<svg xmlns="http://www.w3.org/2000/svg" width="48" height="18" fill="#000"><path d="M9.163 3.502c-1.176 0-2.125.664-2.738.664-.642 0-1.502-.627-2.52-.627C1.967 3.539 0 5.041 0 7.853c0 1.76.731 3.613 1.631 4.82.761 1.005 1.443 1.834 2.412 1.834.959 0 1.384-.59 2.58-.59 1.206 0 1.483.571 2.54.571s1.759-.894 2.422-1.779c.732-1.023 1.048-2.018 1.058-2.064-.059-.019-2.076-.783-2.076-2.94 0-1.862 1.581-2.691 1.67-2.756-1.038-1.41-2.629-1.447-3.074-1.447zm-.544-1.189c.474-.544.811-1.281.811-2.028A1.26 1.26 0 0 0 9.4 0c-.771.028-1.72.479-2.283 1.097-.435.47-.85 1.217-.85 1.963a1.29 1.29 0 0 0 .03.267c.049.009.128.018.208.018.702 0 1.591-.442 2.115-1.032zm7.908-1.272v13.3h2.55V9.982h3.094c2.886 0 4.903-1.806 4.903-4.442 0-2.682-1.947-4.498-4.794-4.498h-5.752zm2.55 1.991h2.53c1.838 0 2.876.876 2.876 2.507 0 1.585-1.067 2.47-2.886 2.47h-2.52V3.032zm12.781 9.678c-1.087 0-1.868-.507-1.868-1.355 0-.82.642-1.281 2.016-1.364l2.441-.147v.802c0 1.17-1.107 2.064-2.59 2.064zm-.721 1.797c1.413 0 2.599-.571 3.203-1.548h.168v1.382h2.362V7.456c0-2.138-1.562-3.401-4.339-3.401-2.57 0-4.359 1.134-4.557 2.912h2.313c.227-.682.998-1.051 2.125-1.051 1.325 0 2.036.553 2.036 1.539v.848l-2.787.157c-2.629.147-4.102 1.198-4.102 3.023 0 1.843 1.492 3.023 3.578 3.023zM39.599 18c2.422 0 3.578-.829 4.497-3.336L48 4.258h-2.59l-2.52 7.871h-.168l-2.53-7.871h-2.688l3.865 10.129-.129.442c-.316.931-.899 1.3-1.937 1.3-.168 0-.534-.009-.672-.037v1.871c.158.028.82.037.969.037z"/></svg>