<svg xmlns="http://www.w3.org/2000/svg" width="50" height="16" fill="none"><path d="M25.859 5.115c-.028 2.229 2.005 3.473 3.536 4.212 1.573.759 2.102 1.245 2.096 1.924-.012 1.038-1.255 1.497-2.419 1.515-2.03.031-3.21-.543-4.148-.977l-.731 3.391c.941.43 2.685.805 4.492.821 4.243 0 7.019-2.076 7.034-5.294.017-4.084-5.701-4.31-5.662-6.136.014-.554.547-1.144 1.715-1.294.578-.076 2.174-.134 3.983.692l.71-3.281C35.492.336 34.241 0 32.684 0c-3.994 0-6.803 2.104-6.825 5.115zM43.289.283a1.84 1.84 0 0 0-1.719 1.135l-6.061 14.341h4.24l.844-2.311h5.181l.489 2.311H50L46.739.283h-3.45zm.593 4.181l1.224 5.812h-3.351l2.127-5.812zM20.718.283l-3.342 15.476h4.04L24.757.282h-4.039m-5.977 0l-4.205 10.534L8.834 1.86c-.2-1-.988-1.577-1.863-1.577H.096L0 .732c1.411.303 3.015.793 3.986 1.317.595.32.764.6.959 1.36l3.222 12.35h4.27L18.984.283h-4.243z" fill="#282d60"/></svg>