<svg xmlns="http://www.w3.org/2000/svg" width="44" height="27" fill="none"><path d="M15 2.9h12v21.2H15V2.9z" fill="#ff5f00"/><path d="M16.057 13.5c0-4.312 1.948-8.138 4.943-10.613C18.799 1.087 16.021 0 12.99 0 5.809 0 0 6.037 0 13.5S5.809 27 12.99 27c3.031 0 5.809-1.087 8.01-2.888-2.995-2.437-4.943-6.3-4.943-10.612z" fill="#eb001b"/><path d="M44 13.5C44 20.962 37.637 27 29.773 27c-3.32 0-6.363-1.087-8.773-2.888 3.32-2.475 5.414-6.3 5.414-10.612S24.28 5.362 21 2.887C23.411 1.087 26.454 0 29.773 0 37.637 0 44 6.075 44 13.5z" fill="#f79e1b"/></svg>