<svg xmlns="http://www.w3.org/2000/svg" width="51" height="20" fill="none"><g clip-path="url(#A)" fill-rule="evenodd"><path d="M51 5.64l-6.289 14.056h-1.946l2.334-4.918-4.134-9.138h2.047l2.989 7.009h.04l2.907-7.009H51zm-17.281 6.769c-.004.473.231.919.624 1.194a2.34 2.34 0 0 0 1.462.478c.797-.004 1.558-.31 2.119-.855.623-.572.938-1.239.938-2.01-.589-.454-1.405-.683-2.455-.683-.766 0-1.405.179-1.915.538-.517.366-.773.81-.773 1.34zm2.436-7.086c1.393 0 2.491.362 3.295 1.083s1.209 1.717 1.209 2.977v6.013h-1.801v-1.354h-.082c-.781 1.114-1.816 1.671-3.111 1.671-1.106 0-2.028-.317-2.774-.954-.722-.591-1.13-1.468-1.114-2.388 0-1.011.392-1.813 1.177-2.408s1.832-.896 3.142-.896c1.118 0 2.039.198 2.761.595v-.42c.004-.626-.282-1.221-.776-1.622a2.72 2.72 0 0 0-1.816-.667 2.91 2.91 0 0 0-2.499 1.293l-1.66-1.014c.915-1.271 2.264-1.908 4.049-1.908zm-12.036-2.43v4.979h3.158c.702.019 1.377-.248 1.864-.736.989-.935 1.012-2.477.05-3.438-.015-.015-.031-.034-.05-.05-.483-.5-1.162-.774-1.864-.755h-3.158zm0 6.73v5.773h-1.883V1.138h4.994c1.204-.026 2.369.419 3.233 1.233.875.766 1.369 1.862 1.35 3.01a3.89 3.89 0 0 1-1.35 3.026c-.874.809-1.954 1.217-3.233 1.213l-3.111.004z" fill="#5f6368"/><path d="M16.508 8.38c0-.557-.047-1.114-.145-1.667H8.422v3.155h4.547c-.188 1.018-.796 1.919-1.683 2.487v2.05h2.715c1.593-1.424 2.506-3.533 2.506-6.025z" fill="#4285f4"/><path d="M8.423 16.385c2.272 0 4.186-.725 5.583-1.977l-2.715-2.049c-.757.5-1.73.782-2.868.782-2.197 0-4.06-1.438-4.727-3.38H.898v2.11c1.427 2.766 4.338 4.514 7.524 4.514z" fill="#34a853"/><path d="M3.694 9.761c-.353-1.015-.353-2.118 0-3.136v-2.11H.898c-1.197 2.316-1.197 5.044 0 7.356l2.797-2.11z" fill="#fbbc04"/><path d="M8.421 3.244a4.64 4.64 0 0 1 3.229 1.229l2.405-2.339C12.529.741 10.512-.023 8.417.001 5.235.001 2.321 1.748.893 4.514l2.797 2.11c.667-1.942 2.534-3.381 4.731-3.381z" fill="#ea4335"/></g><defs><clipPath id="A"><path fill="#fff" d="M0 0h51v20H0z"/></clipPath></defs></svg>