<svg xmlns="http://www.w3.org/2000/svg" width="332" height="181" fill="none"><g fill="#000f26"><path d="M7.148 22.176c-.941 0-1.779-.162-2.514-.485s-1.308-.777-1.733-1.348-.636-1.239-.649-1.991H5a1.43 1.43 0 0 0 .309.832 1.9 1.9 0 0 0 .769.548 2.83 2.83 0 0 0 1.077.195 2.61 2.61 0 0 0 1.103-.22 1.81 1.81 0 0 0 .75-.611c.181-.26.271-.561.271-.901a1.51 1.51 0 0 0-.29-.914c-.189-.269-.462-.479-.819-.63s-.773-.227-1.26-.227H5.706V14.42h1.203c.412 0 .775-.071 1.09-.214s.567-.34.743-.592.265-.554.265-.895c0-.324-.078-.607-.233-.851a1.54 1.54 0 0 0-.643-.58c-.273-.139-.592-.208-.958-.208a2.5 2.5 0 0 0-1.014.202c-.307.13-.552.317-.737.561a1.47 1.47 0 0 0-.296.857H2.511c.013-.744.225-1.399.636-1.966s.966-1.01 1.663-1.329 1.493-.485 2.375-.485c.89 0 1.67.162 2.338.485s1.187.76 1.556 1.311.559 1.159.554 1.84c.004.722-.22 1.325-.674 1.808s-1.035.79-1.758.92v.101c.949.122 1.672.452 2.167.989s.748 1.201.744 2.004c.004.735-.208 1.388-.636 1.96s-1.01 1.021-1.758 1.348-1.605.491-2.571.491zm9.711.006c-.617 0-1.168-.107-1.651-.321s-.865-.54-1.147-.964-.416-.962-.416-1.6c0-.538.099-.989.296-1.355a2.4 2.4 0 0 1 .806-.882c.34-.223.727-.391 1.159-.504s.895-.193 1.374-.239l1.361-.164c.344-.055.594-.134.75-.239s.233-.26.233-.466v-.038c0-.399-.126-.708-.378-.926s-.601-.328-1.058-.328c-.483 0-.867.107-1.153.321a1.49 1.49 0 0 0-.567.794l-2.482-.202c.126-.588.374-1.096.743-1.525s.846-.765 1.43-.996 1.268-.353 2.041-.353a6.19 6.19 0 0 1 1.544.189c.496.126.935.321 1.317.586s.691.605.913 1.021.334.905.334 1.481V22h-2.546v-1.342h-.076a2.73 2.73 0 0 1-.624.8 2.9 2.9 0 0 1-.939.536c-.366.131-.788.189-1.267.189zm.769-1.852a2.26 2.26 0 0 0 1.046-.233 1.82 1.82 0 0 0 .712-.643c.172-.269.258-.573.258-.913v-1.027a1.42 1.42 0 0 1-.347.151l-.485.12-.542.095-.492.069c-.315.046-.59.12-.825.221s-.418.237-.548.41-.195.378-.195.63c0 .366.132.645.397.838s.609.284 1.021.284zm12.485-1.298l2.621-6.71h2.041L31.001 22h-1.783l-3.686-9.678h2.035l2.545 6.71zm-3.157-6.71V22h-2.564v-9.678h2.564zM33.402 22v-9.678h2.533V22h-2.533zm8.982.189c-.979 0-1.825-.208-2.539-.624s-1.258-1.004-1.644-1.752-.58-1.623-.58-2.615c0-1 .193-1.873.58-2.621a4.25 4.25 0 0 1 1.644-1.752c.709-.416 1.56-.63 2.539-.63s1.823.21 2.533.63a4.26 4.26 0 0 1 1.651 1.752c.387.752.58 1.621.58 2.621 0 .991-.193 1.863-.58 2.615a4.24 4.24 0 0 1-1.651 1.752c-.714.421-1.554.624-2.533.624zm.013-2.079c.445 0 .817-.126 1.115-.378s.523-.605.674-1.046.233-.943.233-1.506-.078-1.065-.233-1.506-.376-.79-.674-1.046-.67-.384-1.115-.384-.828.128-1.134.384-.531.605-.687 1.046-.227.943-.227 1.506.076 1.065.227 1.506.384.79.687 1.046.685.378 1.134.378zM48.892 22v-9.678h4.127c1.193 0 2.136.227 2.829.681s1.04 1.098 1.04 1.934a1.68 1.68 0 0 1-.586 1.31c-.391.349-.932.584-1.626.706.58.042 1.073.174 1.481.397s.724.502.939.851a2.14 2.14 0 0 1 .328 1.159c0 .55-.147 1.023-.441 1.418s-.716.697-1.279.907-1.241.315-2.048.315h-4.763zm2.501-2.01h2.262c.374 0 .666-.088.876-.265a.92.92 0 0 0 .321-.737c0-.344-.107-.615-.321-.813s-.502-.296-.876-.296h-2.262v2.111zm0-3.686h1.682a1.85 1.85 0 0 0 .687-.113c.193-.08.34-.193.441-.34s.157-.321.157-.523c0-.298-.12-.531-.359-.699s-.567-.252-.983-.252h-1.626v1.928zM58.548 22l-.013-2.13h.321c.227 0 .422-.055.586-.164s.307-.296.416-.548.195-.586.258-1.002.105-.937.126-1.55l.157-4.284h7.359V22H65.2v-7.567h-2.388l-.151 2.955c-.038.811-.136 1.508-.296 2.092s-.372 1.063-.649 1.437-.611.643-1.002.819-.844.265-1.361.265h-.806zm15.703.189c-.996 0-1.852-.202-2.571-.605s-1.264-.983-1.651-1.726-.58-1.632-.58-2.653c0-.995.193-1.869.58-2.621s.93-1.338 1.632-1.758 1.533-.63 2.483-.63c.638 0 1.233.103 1.783.309a4.05 4.05 0 0 1 1.449.913c.411.407.739.92.97 1.537s.346 1.332.346 2.155v.737H70.52v-1.663h5.645c0-.386-.084-.729-.252-1.027s-.401-.531-.699-.699-.636-.258-1.027-.258c-.407 0-.769.095-1.084.284a1.99 1.99 0 0 0-.731.75 2.12 2.12 0 0 0-.271 1.04v1.581c0 .479.088.893.265 1.241a1.92 1.92 0 0 0 .762.806c.327.189.716.284 1.166.284a2.54 2.54 0 0 0 .819-.126 1.7 1.7 0 0 0 .636-.378c.176-.168.311-.374.403-.617l2.482.164a3.39 3.39 0 0 1-.775 1.563c-.386.441-.886.786-1.5 1.033s-1.313.365-2.111.365zM87.18 16.09v2.111h-5.053V16.09h5.053zm-4.171-3.768V22h-2.564v-9.678h2.564zm5.853 0V22h-2.546v-9.678h2.546zm8.818 3.768v2.111h-5.053V16.09h5.053zm-4.171-3.768V22h-2.564v-9.678h2.564zm5.853 0V22h-2.546v-9.678h2.546zM107.114 22v-7.573H105.3c-.492 0-.866.114-1.122.34s-.382.496-.378.806c-.004.315.118.582.366.8s.621.321 1.109.321h2.734v1.815h-2.734c-.828 0-1.544-.126-2.149-.378s-1.071-.603-1.399-1.052-.489-.981-.485-1.582c-.004-.63.158-1.182.485-1.657s.796-.851 1.405-1.115 1.336-.403 2.168-.403h4.316V22h-2.502zm-6.149 0l2.69-5.041h2.565L103.536 22h-2.571zm46.954-8.386h-2.76c-.05-.357-.153-.674-.309-.951a2.47 2.47 0 0 0-.598-.718 2.64 2.64 0 0 0-.844-.454c-.315-.105-.658-.158-1.027-.158-.668 0-1.25.166-1.746.498s-.88.806-1.153 1.437-.409 1.386-.409 2.281c0 .92.136 1.693.409 2.319s.664 1.098 1.16 1.418 1.069.479 1.72.479a3.39 3.39 0 0 0 1.014-.145 2.67 2.67 0 0 0 .838-.422 2.43 2.43 0 0 0 .605-.687c.16-.269.277-.575.34-.92l2.76.013c-.072.592-.25 1.163-.536 1.714a5.14 5.14 0 0 1-1.14 1.468c-.475.428-1.042.769-1.701 1.021s-1.397.372-2.224.372c-1.151 0-2.18-.26-3.088-.781s-1.617-1.275-2.142-2.262-.781-2.182-.781-3.585.264-2.604.794-3.591 1.247-1.739 2.154-2.256 1.928-.781 3.063-.781c.747 0 1.44.105 2.079.315a5.27 5.27 0 0 1 1.707.92 4.73 4.73 0 0 1 1.21 1.468c.315.58.517 1.243.605 1.991zm3.684 12.015a5.33 5.33 0 0 1-.958-.082 3.48 3.48 0 0 1-.73-.195l.604-2.004c.315.097.599.149.851.158a1.08 1.08 0 0 0 .662-.177c.185-.127.342-.34.46-.643l.157-.41-3.472-9.955H152l2.004 7.107h.101l2.022-7.107h2.842l-3.762 10.724c-.181.521-.426.974-.737 1.361a3.02 3.02 0 0 1-1.166.901c-.47.214-1.037.321-1.701.321zm14.46-6.597l2.621-6.71h2.042L166.951 22h-1.783l-3.685-9.678h2.035l2.545 6.71zm-3.157-6.71V22h-2.564v-9.678h2.564zM169.352 22v-9.678h2.533V22h-2.533zm7.369.183c-.618 0-1.168-.107-1.651-.321a2.66 2.66 0 0 1-1.147-.964c-.277-.428-.416-.962-.416-1.6 0-.538.099-.989.296-1.355s.467-.659.807-.882.727-.391 1.159-.504a8.83 8.83 0 0 1 1.374-.239l1.361-.164c.344-.055.594-.134.749-.239s.234-.26.234-.466v-.038c0-.399-.126-.708-.378-.926s-.601-.328-1.059-.328c-.483 0-.867.107-1.153.321a1.49 1.49 0 0 0-.567.794l-2.482-.202c.126-.588.373-1.096.743-1.525s.846-.765 1.43-.996 1.269-.353 2.042-.353a6.19 6.19 0 0 1 1.543.189c.496.126.935.321 1.317.586s.691.605.914 1.021.334.905.334 1.481V22h-2.546v-1.342h-.075a2.75 2.75 0 0 1-.624.8 2.91 2.91 0 0 1-.939.536 3.88 3.88 0 0 1-1.266.189zm.768-1.852a2.26 2.26 0 0 0 1.046-.233 1.82 1.82 0 0 0 .712-.643c.172-.269.258-.573.258-.913v-1.027a1.41 1.41 0 0 1-.346.151l-.485.12-.542.095-.491.069c-.316.046-.591.12-.826.221s-.418.237-.548.41-.195.378-.195.63c0 .366.132.645.397.838s.609.284 1.02.284zm42.509-6.717h-2.76c-.05-.357-.153-.674-.308-.951a2.46 2.46 0 0 0-.599-.718 2.64 2.64 0 0 0-.844-.454c-.315-.105-.658-.158-1.027-.158-.668 0-1.25.166-1.746.498s-.88.806-1.153 1.437-.409 1.386-.409 2.281c0 .92.136 1.693.409 2.319s.664 1.098 1.16 1.418 1.069.479 1.72.479a3.39 3.39 0 0 0 1.014-.145 2.66 2.66 0 0 0 .838-.422 2.43 2.43 0 0 0 .605-.687c.16-.269.277-.575.34-.92l2.76.013c-.071.592-.25 1.163-.536 1.714a5.14 5.14 0 0 1-1.14 1.468c-.475.428-1.042.769-1.701 1.021s-1.397.372-2.224.372c-1.151 0-2.18-.26-3.088-.781s-1.617-1.275-2.142-2.262-.781-2.182-.781-3.585.265-2.604.794-3.591 1.247-1.739 2.155-2.256 1.928-.781 3.062-.781c.747 0 1.44.105 2.079.315a5.26 5.26 0 0 1 1.707.92 4.73 4.73 0 0 1 1.21 1.468c.315.58.517 1.243.605 1.991zm1.402.819v-2.111h8.77v2.111h-3.118V22h-2.559v-7.567H221.4zm12.811 7.75c-.618 0-1.168-.107-1.651-.321a2.66 2.66 0 0 1-1.147-.964c-.277-.428-.416-.962-.416-1.6 0-.538.099-.989.296-1.355s.467-.659.807-.882.727-.391 1.159-.504a8.83 8.83 0 0 1 1.374-.239l1.361-.164c.344-.055.594-.134.749-.239s.234-.26.234-.466v-.038c0-.399-.126-.708-.378-.926s-.601-.328-1.059-.328c-.483 0-.867.107-1.153.321a1.49 1.49 0 0 0-.567.794l-2.482-.202c.126-.588.373-1.096.743-1.525s.846-.765 1.43-.996 1.269-.353 2.042-.353a6.19 6.19 0 0 1 1.543.189c.496.126.935.321 1.317.586s.691.605.914 1.021.334.905.334 1.481V22h-2.546v-1.342h-.075a2.75 2.75 0 0 1-.624.8 2.91 2.91 0 0 1-.939.536 3.88 3.88 0 0 1-1.266.189zm.768-1.852a2.26 2.26 0 0 0 1.046-.233 1.82 1.82 0 0 0 .712-.643c.172-.269.258-.573.258-.913v-1.027a1.41 1.41 0 0 1-.346.151l-.485.12-.542.095-.491.069c-.316.046-.591.12-.826.221s-.418.237-.548.41-.195.378-.195.63c0 .366.132.645.397.838s.609.284 1.02.284zm5.792-5.897v-2.111h8.771v2.111h-3.119V22h-2.558v-7.567h-3.094zm12.055 11.196a5.32 5.32 0 0 1-.958-.082c-.294-.05-.538-.116-.731-.195l.605-2.004c.315.097.599.149.851.158a1.08 1.08 0 0 0 .661-.177c.189-.126.343-.34.46-.643l.158-.41-3.472-9.955h2.823l2.003 7.107h.101l2.023-7.107h2.841l-3.761 10.724c-.181.521-.427.974-.737 1.361s-.696.691-1.166.901-1.038.321-1.701.321zm12.8-3.44c-.992 0-1.844-.21-2.559-.63a4.27 4.27 0 0 1-1.638-1.764c-.378-.752-.567-1.617-.567-2.596 0-.991.191-1.861.574-2.608s.934-1.338 1.644-1.758 1.554-.636 2.533-.636c.844 0 1.584.153 2.218.46a3.71 3.71 0 0 1 1.506 1.292c.369.554.573 1.205.611 1.953h-2.533c-.071-.483-.26-.872-.567-1.166s-.699-.447-1.191-.447c-.416 0-.779.113-1.09.34s-.546.548-.718.977-.259.947-.259 1.556c0 .617.084 1.142.252 1.575s.414.762.725.989a1.8 1.8 0 0 0 1.09.34c.307 0 .582-.063.825-.189a1.64 1.64 0 0 0 .612-.548c.16-.239.271-.535.321-.876h2.533c-.042.739-.244 1.39-.605 1.953s-.851.995-1.481 1.311-1.375.473-2.236.473z"/><path d="M2.896 80.158V67.255h7.788v1.386H4.458v4.032h3.276c.924 0 1.703.151 2.338.454s1.122.729 1.449 1.279.498 1.199.498 1.947-.166 1.407-.498 1.978-.811 1.019-1.449 1.342-1.413.485-2.338.485H2.896zm1.563-1.361h3.276c.588 0 1.086-.118 1.493-.353s.722-.546.932-.92.321-.777.321-1.197a2.11 2.11 0 0 0-.712-1.594c-.475-.449-1.153-.674-2.035-.674H4.458v4.738zm10.889 4.99c-.252 0-.477-.021-.674-.063s-.334-.076-.409-.113l.378-1.31c.361.092.68.126.958.101s.523-.149.737-.372.418-.573.598-1.065l.277-.756-3.579-9.728h1.613l2.671 7.712h.101l2.671-7.712h1.613L18.195 81.57c-.185.5-.414.914-.687 1.241s-.59.578-.951.737-.76.239-1.21.239zm8.918-3.629V70.48h1.487v4.209h.983l3.478-4.209h1.915l-3.906 4.662 3.957 5.015h-1.915l-3.175-4.083h-1.336v4.083h-1.487zm13.189.202c-.933 0-1.737-.206-2.413-.618s-1.191-.995-1.556-1.739-.542-1.617-.542-2.608.181-1.865.542-2.621.874-1.353 1.525-1.777 1.42-.643 2.293-.643a4.59 4.59 0 0 1 1.493.252 3.7 3.7 0 0 1 1.342.819c.403.374.725.87.964 1.487s.359 1.378.359 2.281v.63h-7.46v-1.285h5.948c0-.546-.109-1.033-.328-1.462a2.47 2.47 0 0 0-.92-1.014c-.395-.248-.861-.372-1.399-.372-.592 0-1.105.147-1.537.441a2.9 2.9 0 0 0-.989 1.134 3.33 3.33 0 0 0-.347 1.499v.857c0 .731.126 1.35.378 1.859s.611.888 1.065 1.153.981.391 1.581.391c.391 0 .743-.055 1.058-.164s.594-.281.825-.504a2.29 2.29 0 0 0 .536-.844l1.436.403a3.18 3.18 0 0 1-.762 1.285c-.357.369-.798.651-1.323.857s-1.115.303-1.77.303zm5.368-8.493v-1.386h7.863v1.386H47.51v8.292h-1.487v-8.292h-3.201zm15.022 8.292v-9.678h1.487v4.209h.983l3.478-4.209h1.915l-3.906 4.662 3.957 5.015h-1.915l-3.175-4.083h-1.336v4.083h-1.487zm9.53 0v-9.678h3.957c1.042 0 1.869.235 2.483.706s.92 1.092.92 1.865c0 .588-.174 1.044-.523 1.367s-.796.535-1.342.649a2.76 2.76 0 0 1 1.04.378c.34.202.622.479.844.832s.334.777.334 1.285c0 .496-.126.939-.378 1.329s-.613.699-1.084.926-1.033.34-1.689.34h-4.562zm1.411-1.361h3.15c.512 0 .914-.122 1.203-.365s.435-.576.435-.996c0-.5-.145-.893-.435-1.178s-.691-.435-1.203-.435h-3.15v2.974zm0-4.259h2.545c.399 0 .741-.055 1.027-.164s.504-.273.655-.479.233-.458.233-.743c0-.407-.17-.727-.51-.958s-.809-.353-1.405-.353h-2.545v2.697zm8.552 5.62v-9.678h1.487v9.678h-1.487zm.756-11.291a1.06 1.06 0 0 1-.75-.296.95.95 0 0 1-.309-.712.95.95 0 0 1 .309-.712 1.06 1.06 0 0 1 .75-.296 1.04 1.04 0 0 1 .744.296c.206.197.315.435.315.712a.94.94 0 0 1-.315.712c-.21.197-.454.296-.744.296zm2.9 2.999v-1.386h7.863v1.386h-3.175v8.292h-1.487v-8.292h-3.201zm10.032 8.292v-9.678h1.487v9.678h-1.487zm.756-11.291a1.06 1.06 0 0 1-.75-.296.95.95 0 0 1-.309-.712.95.95 0 0 1 .309-.712 1.06 1.06 0 0 1 .75-.296c.29 0 .538.099.743.296a.96.96 0 0 1 .315.712.94.94 0 0 1-.315.712c-.21.197-.454.296-.743.296zm3.454 11.291v-9.678h3.957c1.042 0 1.869.235 2.482.706a2.23 2.23 0 0 1 .92 1.865c0 .588-.174 1.044-.523 1.367s-.796.535-1.342.649a2.76 2.76 0 0 1 1.04.378 2.5 2.5 0 0 1 .844.832c.223.349.334.777.334 1.285 0 .496-.126.939-.378 1.329s-.613.699-1.084.926-1.033.34-1.688.34h-4.562zm1.411-1.361h3.15c.512 0 .913-.122 1.203-.365s.435-.576.435-.996c0-.5-.145-.893-.435-1.178s-.691-.435-1.203-.435h-3.15v2.974zm0-4.259h2.545a2.88 2.88 0 0 0 1.027-.164c.285-.113.504-.273.655-.479a1.21 1.21 0 0 0 .233-.743c0-.407-.17-.727-.51-.958s-.809-.353-1.405-.353h-2.545v2.697zm44.718 5.796c-.831 0-1.573-.143-2.224-.428s-1.161-.683-1.544-1.191-.583-1.107-.617-1.783h1.588a1.87 1.87 0 0 0 .428 1.077c.252.298.582.529.989.693s.859.246 1.355.246c.554 0 1.046-.097 1.474-.29a2.42 2.42 0 0 0 1.008-.806c.243-.344.366-.743.366-1.197 0-.475-.118-.893-.353-1.254s-.58-.651-1.033-.857-1.008-.309-1.664-.309h-1.033V72.85h1.033c.513 0 .962-.092 1.349-.277s.695-.445.913-.781.334-.731.334-1.184c0-.437-.096-.817-.29-1.14a1.98 1.98 0 0 0-.819-.756c-.348-.181-.76-.271-1.235-.271-.445 0-.865.082-1.26.246s-.71.393-.957.699a1.82 1.82 0 0 0-.404 1.096h-1.512c.025-.676.229-1.269.611-1.777a3.85 3.85 0 0 1 1.5-1.197 4.84 4.84 0 0 1 2.048-.428c.798 0 1.482.162 2.054.485s1.01.741 1.316 1.266a3.31 3.31 0 0 1 .46 1.701c0 .727-.191 1.346-.573 1.859s-.893.867-1.544 1.065v.101c.815.134 1.452.481 1.909 1.04s.687 1.241.687 2.06a3.27 3.27 0 0 1-.573 1.89c-.378.554-.895.991-1.55 1.31s-1.401.479-2.237.479zm6.937-.177v-1.134l4.259-4.662 1.235-1.424c.324-.407.563-.79.719-1.147a2.82 2.82 0 0 0 .239-1.134c0-.454-.109-.846-.328-1.178s-.508-.588-.882-.769a2.86 2.86 0 0 0-1.26-.271c-.495 0-.928.103-1.298.309a2.12 2.12 0 0 0-.85.851c-.201.366-.296.794-.296 1.285h-1.487c0-.756.174-1.42.523-1.991a3.63 3.63 0 0 1 1.423-1.336c.605-.319 1.284-.479 2.036-.479s1.426.16 2.01.479 1.041.75 1.373 1.292.498 1.145.498 1.808a3.87 3.87 0 0 1-.259 1.392c-.173.453-.462.951-.882 1.506-.415.55-.993 1.222-1.732 2.016l-2.899 3.1v.101h5.999v1.386h-8.141zm14.952.177c-.95 0-1.758-.258-2.426-.775s-1.178-1.275-1.531-2.262-.529-2.189-.529-3.591c0-1.394.176-2.585.529-3.572s.869-1.747 1.537-2.268 1.479-.788 2.42-.788 1.745.263 2.413.788 1.184 1.277 1.537 2.268.536 2.178.536 3.572c0 1.403-.177 2.6-.53 3.591s-.863 1.741-1.531 2.262-1.476.775-2.425.775zm0-1.386c.94 0 1.671-.454 2.192-1.361s.781-2.201.781-3.881c0-1.117-.119-2.069-.359-2.854s-.575-1.384-1.02-1.796-.973-.617-1.594-.617c-.933 0-1.662.46-2.187 1.38s-.787 2.212-.787 3.887c0 1.117.117 2.067.353 2.848s.573 1.376 1.014 1.783a2.29 2.29 0 0 0 1.607.611zm11.089 1.386c-.95 0-1.758-.258-2.426-.775s-1.178-1.275-1.531-2.262-.529-2.189-.529-3.591c0-1.394.176-2.585.529-3.572s.869-1.747 1.537-2.268 1.479-.788 2.42-.788 1.745.263 2.413.788 1.184 1.277 1.537 2.268.536 2.178.536 3.572c0 1.403-.177 2.6-.53 3.591s-.863 1.741-1.531 2.262-1.476.775-2.425.775zm0-1.386c.941 0 1.671-.454 2.192-1.361s.782-2.201.782-3.881c0-1.117-.12-2.069-.36-2.854s-.575-1.384-1.02-1.796-.973-.617-1.594-.617c-.933 0-1.662.46-2.187 1.38s-.787 2.212-.787 3.887c0 1.117.117 2.067.353 2.848s.573 1.376 1.014 1.783a2.29 2.29 0 0 0 1.607.611zm17.868-8.468v1.386h-4.486v8.292h-1.487v-9.678h5.973zm2.171 13.307V70.481h1.436v1.537h.177l.453-.643c.198-.265.479-.5.845-.706s.869-.315 1.499-.315c.815 0 1.533.204 2.155.611s1.107.985 1.456 1.733.523 1.63.523 2.646c0 1.025-.175 1.913-.523 2.665s-.832 1.327-1.45 1.739-1.329.611-2.136.611c-.621 0-1.119-.103-1.493-.309s-.661-.447-.863-.712l-.466-.668h-.126v5.116h-1.487zm1.462-8.468c0 .731.107 1.376.321 1.934s.527.989.939 1.304.915.466 1.512.466c.622 0 1.14-.164 1.556-.491s.735-.777.945-1.336.322-1.189.322-1.878c0-.68-.105-1.294-.315-1.84s-.519-.985-.939-1.304-.939-.485-1.569-.485c-.605 0-1.113.153-1.525.46s-.722.727-.932 1.273-.315 1.174-.315 1.896zm15.827-.68v1.386h-5.343V74.64h5.343zm-4.99-4.158v9.678h-1.487v-9.678h1.487zm6.124 0v9.678h-1.487v-9.678h1.487z"/></g><path d="M250.269 71.287h-1.562a3.26 3.26 0 0 0-.485-1.185c-.227-.34-.505-.626-.832-.857s-.683-.412-1.078-.529-.806-.176-1.234-.176c-.782 0-1.49.197-2.124.592s-1.132.977-1.506 1.745-.554 1.712-.554 2.829.185 2.06.554 2.829.876 1.35 1.506 1.745 1.342.592 2.124.592c.428 0 .84-.059 1.234-.176a3.62 3.62 0 0 0 1.078-.523c.327-.235.605-.523.832-.863a3.32 3.32 0 0 0 .485-1.185h1.562c-.117.659-.332 1.25-.642 1.77s-.698.964-1.16 1.329a5.08 5.08 0 0 1-1.556.825c-.571.189-1.182.284-1.833.284-1.101 0-2.08-.269-2.937-.806s-1.531-1.302-2.022-2.293-.737-2.168-.737-3.528.245-2.537.737-3.528 1.166-1.756 2.022-2.293 1.836-.806 2.937-.806c.651 0 1.262.094 1.833.284s1.094.466 1.556.832.849.802 1.16 1.323.525 1.107.642 1.77zm2.324 8.871v-9.678h7.611v9.678h-1.487v-8.292h-4.637v8.292h-1.487zm9.469 0v-1.386h.353c.29 0 .532-.057.725-.17s.348-.321.466-.611.214-.701.277-1.222a22.36 22.36 0 0 0 .145-2.004l.177-4.284h6.452v9.678h-1.487v-8.292h-3.554l-.151 3.453c-.034.794-.105 1.493-.214 2.098s-.267 1.105-.486 1.512-.499.714-.856.92-.805.309-1.343.309h-.504zm14.171.227c-.614 0-1.17-.115-1.67-.347s-.897-.573-1.191-1.014-.441-.983-.441-1.613c0-.555.109-1.004.328-1.348a2.31 2.31 0 0 1 .875-.819 4.61 4.61 0 0 1 1.21-.441l1.342-.239 1.43-.17c.37-.042.639-.111.807-.208s.258-.265.258-.504v-.05c0-.622-.17-1.105-.51-1.449s-.846-.517-1.531-.517c-.71 0-1.267.155-1.67.466s-.687.643-.85.996l-1.412-.504c.252-.588.588-1.046 1.008-1.374a3.79 3.79 0 0 1 1.386-.693c.505-.134 1-.202 1.487-.202.311 0 .668.038 1.072.113a3.43 3.43 0 0 1 1.178.447c.382.227.699.569.951 1.027s.378 1.071.378 1.84v6.376h-1.487v-1.311h-.075c-.101.21-.269.435-.504.674s-.549.443-.939.611-.868.252-1.43.252zm.226-1.336c.588 0 1.084-.115 1.487-.346s.714-.529.92-.895a2.28 2.28 0 0 0 .315-1.153v-1.361c-.063.076-.201.145-.416.208-.21.059-.453.111-.73.157l-.801.113-.623.076c-.387.05-.748.132-1.084.246s-.601.275-.807.498-.302.517-.302.895c0 .517.191.907.573 1.172s.876.391 1.468.391zm14.383-8.569v9.678h-1.487v-9.678h1.487zm-.58 4.612v1.386l-1.001.334c-.332.092-.681.166-1.046.221s-.767.076-1.204.076c-1.096 0-1.976-.296-2.64-.888-.659-.592-.989-1.481-.989-2.665v-3.1h1.487v3.1c0 .496.095.903.284 1.222a1.77 1.77 0 0 0 .768.712c.324.155.687.233 1.09.233.63 0 1.2-.057 1.708-.17s1.027-.271 1.543-.46zm7.366 5.267c-.933 0-1.737-.206-2.413-.618a4.14 4.14 0 0 1-1.556-1.739c-.362-.748-.542-1.617-.542-2.608s.18-1.865.542-2.621.873-1.353 1.524-1.777 1.42-.643 2.294-.643c.504 0 1.002.084 1.493.252a3.7 3.7 0 0 1 1.342.819c.403.374.725.87.964 1.487s.359 1.378.359 2.281v.63h-7.46v-1.285h5.948c0-.546-.109-1.033-.328-1.462a2.47 2.47 0 0 0-.92-1.014c-.394-.248-.861-.372-1.398-.372-.593 0-1.105.147-1.538.441s-.758.668-.989 1.134a3.33 3.33 0 0 0-.346 1.499v.857c0 .731.126 1.35.378 1.859s.611.888 1.064 1.153.981.391 1.582.391c.391 0 .743-.055 1.058-.164a2.26 2.26 0 0 0 .826-.504 2.29 2.29 0 0 0 .535-.844l1.437.403c-.151.487-.405.916-.762 1.285s-.799.651-1.324.857-1.115.303-1.77.303zm12.746-5.721v1.386h-5.343v-1.386h5.343zm-4.99-4.158v9.678h-1.487v-9.678h1.487zm6.124 0v9.678h-1.487v-9.678h1.487zm6.647 9.879c-.873 0-1.64-.208-2.299-.624s-1.168-.998-1.538-1.745-.548-1.621-.548-2.621c0-1.008.183-1.888.548-2.64s.882-1.336 1.538-1.752 1.426-.624 2.299-.624 1.639.208 2.294.624 1.172 1 1.537 1.752.555 1.632.555 2.64c0 1-.185 1.873-.555 2.621s-.878 1.329-1.537 1.745-1.42.624-2.294.624zm0-1.336c.664 0 1.21-.17 1.639-.51s.745-.788.951-1.342.309-1.155.309-1.802-.103-1.25-.309-1.808-.523-1.01-.951-1.355-.975-.517-1.639-.517-1.209.172-1.638.517-.745.796-.951 1.355-.309 1.161-.309 1.808.103 1.248.309 1.802.523 1.002.951 1.342.975.51 1.638.51z" fill="#099a62"/><path d="M10.482 142l-4.436-5.923H4.458V142H2.896v-12.904h1.563v5.595h.68l5.167-5.595h1.865l-5.217 5.671L12.347 142h-1.865zm3.683 0v-9.678h3.957c1.042 0 1.869.235 2.483.706s.92 1.092.92 1.865c0 .588-.174 1.044-.523 1.367s-.796.536-1.342.649c.357.05.704.177 1.04.378a2.5 2.5 0 0 1 .844.832c.223.348.334.777.334 1.285a2.4 2.4 0 0 1-.378 1.33c-.252.39-.613.699-1.084.926s-1.033.34-1.689.34h-4.562zm1.411-1.361h3.15c.512 0 .914-.122 1.203-.365s.435-.576.435-.996c0-.5-.145-.892-.435-1.178s-.691-.435-1.203-.435h-3.15v2.974zm0-4.259h2.545c.399 0 .741-.055 1.027-.164s.504-.273.655-.479.233-.458.233-.743c0-.408-.17-.727-.51-.958s-.809-.353-1.405-.353h-2.545v2.697zm8.551 5.62v-9.678h1.487V142h-1.487zm.756-11.291c-.29 0-.54-.098-.75-.296a.95.95 0 0 1-.309-.712.95.95 0 0 1 .309-.712 1.06 1.06 0 0 1 .75-.296 1.04 1.04 0 0 1 .744.296c.206.197.315.435.315.712a.94.94 0 0 1-.315.712c-.206.198-.454.296-.744.296zm2.9 2.999v-1.386h7.863v1.386h-3.175V142h-1.487v-8.292h-3.201zM37.815 142v-9.678h1.487v4.209h.983l3.478-4.209h1.915l-3.906 4.663L45.729 142h-1.915l-3.175-4.083h-1.336V142h-1.487zm13.063.202c-.874 0-1.64-.208-2.3-.624s-1.168-.998-1.537-1.745-.548-1.622-.548-2.621c0-1.009.183-1.889.548-2.64s.882-1.336 1.537-1.752 1.426-.624 2.3-.624 1.638.208 2.293.624 1.172 1 1.537 1.752.555 1.631.555 2.64c0 .999-.185 1.873-.555 2.621s-.878 1.329-1.537 1.745-1.42.624-2.293.624zm0-1.336c.664 0 1.21-.17 1.638-.51s.746-.788.951-1.342.309-1.156.309-1.802-.103-1.25-.309-1.809-.523-1.01-.951-1.354-.974-.517-1.638-.517-1.21.172-1.638.517-.745.796-.951 1.354-.309 1.162-.309 1.809.103 1.247.309 1.802.523 1.001.951 1.342.974.51 1.638.51zM57.533 142v-9.678h3.957c1.042 0 1.869.235 2.482.706s.92 1.092.92 1.865c0 .588-.174 1.044-.523 1.367s-.796.536-1.342.649c.357.05.704.177 1.04.378a2.5 2.5 0 0 1 .844.832c.223.348.334.777.334 1.285a2.4 2.4 0 0 1-.378 1.33c-.252.39-.613.699-1.084.926s-1.033.34-1.689.34h-4.562zm1.411-1.361h3.15c.512 0 .914-.122 1.203-.365s.435-.576.435-.996c0-.5-.145-.892-.435-1.178s-.691-.435-1.203-.435h-3.15v2.974zm0-4.259h2.545c.399 0 .741-.055 1.027-.164s.504-.273.655-.479.233-.458.233-.743c0-.408-.17-.727-.51-.958s-.809-.353-1.405-.353h-2.545v2.697zm11.399 5.847c-.613 0-1.17-.116-1.67-.347s-.897-.573-1.191-1.014-.441-.983-.441-1.613c0-.555.109-1.004.328-1.348s.51-.622.876-.819.769-.345 1.21-.442l1.342-.239 1.43-.17c.37-.042.639-.111.806-.208s.258-.265.258-.504v-.05c0-.622-.17-1.105-.51-1.45s-.846-.516-1.531-.516c-.71 0-1.266.155-1.67.466s-.687.643-.851.995l-1.411-.504c.252-.588.588-1.045 1.008-1.373a3.8 3.8 0 0 1 1.386-.693 5.73 5.73 0 0 1 1.487-.202c.311 0 .668.038 1.071.114s.8.22 1.178.447.699.569.951 1.027.378 1.071.378 1.84V142H73.29v-1.311h-.076c-.101.21-.269.435-.504.675s-.548.443-.939.611-.867.252-1.43.252zm.227-1.336c.588 0 1.084-.115 1.487-.346s.714-.53.92-.895a2.32 2.32 0 0 0 .315-1.153v-1.361c-.063.076-.202.145-.416.208s-.454.111-.731.157l-.8.114-.624.075a5.76 5.76 0 0 0-1.084.246c-.332.109-.601.275-.806.498s-.302.516-.302.895c0 .516.191.907.573 1.171s.876.391 1.468.391zM2.694 160v-9.678h1.487v4.209h.983l3.478-4.209h1.915l-3.906 4.663L10.608 160H8.692l-3.176-4.083H4.181V160H2.694zm13.063.202c-.874 0-1.64-.208-2.3-.624s-1.168-.998-1.537-1.745-.548-1.622-.548-2.621c0-1.009.183-1.889.548-2.64s.882-1.336 1.537-1.752 1.426-.624 2.3-.624 1.638.208 2.294.624 1.172 1 1.537 1.752.555 1.631.555 2.64c0 .999-.185 1.873-.555 2.621s-.878 1.329-1.537 1.745-1.42.624-2.293.624zm0-1.336c.664 0 1.21-.17 1.638-.51s.746-.788.951-1.342.309-1.156.309-1.802-.103-1.25-.309-1.809-.523-1.01-.951-1.354-.974-.517-1.638-.517-1.21.172-1.638.517-.746.796-.951 1.354a5.21 5.21 0 0 0-.309 1.809c0 .647.103 1.247.309 1.802s.523 1.001.951 1.342.974.51 1.638.51zm11.948-.882l3.377-7.662h1.411L28.309 160h-1.21l-4.108-9.678h1.386l3.327 7.662zm-3.806-7.662V160h-1.487v-9.678h1.487zM31.51 160v-9.678h1.487V160H31.51zm4.209 0v-9.678h7.611V160h-1.487v-8.292h-4.637V160h-1.487zm14.258.202c-.874 0-1.64-.208-2.3-.624s-1.168-.998-1.537-1.745-.548-1.622-.548-2.621c0-1.009.183-1.889.548-2.64s.882-1.336 1.537-1.752 1.426-.624 2.3-.624 1.638.208 2.294.624 1.172 1 1.537 1.752.554 1.631.554 2.64c0 .999-.185 1.873-.554 2.621s-.878 1.329-1.537 1.745-1.42.624-2.294.624zm0-1.336c.664 0 1.21-.17 1.638-.51s.746-.788.951-1.342.309-1.156.309-1.802-.103-1.25-.309-1.809-.523-1.01-.951-1.354-.974-.517-1.638-.517-1.21.172-1.638.517-.746.796-.951 1.354a5.21 5.21 0 0 0-.309 1.809c0 .647.103 1.247.309 1.802s.523 1.001.951 1.342.974.51 1.638.51zm6.05-1.336h1.588c.034.437.231.769.592.996s.84.34 1.424.34c.596 0 1.107-.122 1.531-.366s.636-.646.636-1.197a1.49 1.49 0 0 0-.239-.844 1.57 1.57 0 0 0-.674-.567c-.29-.134-.632-.202-1.027-.202h-1.663v-1.335h1.663c.592 0 1.029-.135 1.311-.404s.428-.604.428-1.008c0-.432-.153-.779-.46-1.039s-.741-.397-1.304-.397-1.04.128-1.418.384-.578.578-.599.977h-1.563a2.35 2.35 0 0 1 .479-1.38c.303-.399.714-.718 1.235-.945s1.117-.347 1.789-.347c.68 0 1.271.12 1.771.359s.892.557 1.166.964a2.37 2.37 0 0 1 .416 1.374c0 .546-.153.987-.46 1.323s-.691.575-1.153.718v.101a1.69 1.69 0 0 1 .951.353 2.05 2.05 0 0 1 .636.813 2.63 2.63 0 0 1 .227 1.102c0 .588-.157 1.101-.472 1.538-.315.432-.748.768-1.298 1.008s-1.178.353-1.884.353c-.685 0-1.298-.112-1.84-.334s-.972-.54-1.292-.939-.481-.87-.498-1.399zm10.859.277l4.662-7.485h1.714V160h-1.487v-7.485L67.138 160h-1.739v-9.678h1.487v7.485zm16.711-7.485v8.292h1.361v4.511h-1.487V160h-7.485v-9.678h1.487v8.292h4.637v-8.292h1.487zM87.248 160v-9.678h1.487V160h-1.487zm.756-11.291c-.29 0-.54-.098-.75-.296a.95.95 0 0 1-.309-.712.95.95 0 0 1 .309-.712 1.06 1.06 0 0 1 .75-.296 1.04 1.04 0 0 1 .744.296c.206.197.315.435.315.712a.94.94 0 0 1-.315.712c-.206.198-.454.296-.744.296zM97.281 160v-8.317H94.71c-.58 0-1.035.135-1.367.403s-.498.639-.498 1.109c0 .462.149.826.447 1.09s.716.397 1.241.397h3.125v1.386h-3.125c-.655 0-1.22-.115-1.695-.346s-.84-.561-1.096-.989-.384-.945-.384-1.538.134-1.109.403-1.537a2.62 2.62 0 0 1 1.153-.989c.504-.231 1.103-.347 1.796-.347h3.982V160h-1.411zm-6.452 0l2.747-4.814h1.613L92.442 160h-1.613zm50.461-8.824a4.82 4.82 0 0 1-1.588-.302c-.529-.193-1.012-.519-1.449-.977s-.788-1.085-1.053-1.871-.396-1.781-.396-2.974c0-1.142.107-2.155.321-3.037s.525-1.632.932-2.236.899-1.072 1.475-1.387 1.233-.472 1.959-.472 1.365.145 1.928.435a3.74 3.74 0 0 1 1.386 1.197c.357.513.588 1.102.693 1.77h-1.537c-.143-.579-.42-1.06-.832-1.443s-.957-.573-1.638-.573c-.999 0-1.787.435-2.363 1.304s-.859 2.09-.863 3.661h.101a3.8 3.8 0 0 1 .838-.914c.328-.256.689-.453 1.084-.592a3.75 3.75 0 0 1 1.254-.208 3.85 3.85 0 0 1 2.028.555c.614.365 1.105.871 1.475 1.518s.554 1.38.554 2.212a4.55 4.55 0 0 1-.535 2.192 4.07 4.07 0 0 1-1.506 1.575c-.643.387-1.399.576-2.268.567zm0-1.386c.529 0 1.003-.132 1.424-.397a2.83 2.83 0 0 0 1.001-1.064c.248-.446.372-.941.372-1.487 0-.534-.12-1.019-.359-1.456s-.561-.792-.977-1.052-.882-.391-1.411-.391c-.399 0-.771.08-1.115.24s-.647.369-.908.642-.457.586-.604.939a2.81 2.81 0 0 0-.221 1.103 2.99 2.99 0 0 0 .359 1.436c.244.446.576.805.996 1.078s.905.409 1.443.409zm10.996 1.386c-.95 0-1.758-.258-2.426-.775s-1.178-1.274-1.531-2.261-.529-2.189-.529-3.592c0-1.394.176-2.585.529-3.572s.869-1.748 1.537-2.269 1.479-.787 2.42-.787 1.745.262 2.413.787 1.184 1.277 1.537 2.269.536 2.178.536 3.572c0 1.403-.177 2.6-.529 3.592s-.864 1.741-1.531 2.261-1.477.775-2.426.775zm0-1.386c.941 0 1.672-.453 2.192-1.361s.782-2.201.782-3.881c0-1.117-.12-2.069-.359-2.854s-.576-1.384-1.021-1.796-.973-.617-1.594-.617c-.933 0-1.661.46-2.187 1.38s-.787 2.211-.787 3.887c0 1.117.117 2.067.353 2.848s.573 1.376 1.014 1.783a2.29 2.29 0 0 0 1.607.611zm11.089 1.386c-.949 0-1.758-.258-2.426-.775s-1.178-1.274-1.531-2.261-.529-2.189-.529-3.592c0-1.394.176-2.585.529-3.572s.87-1.748 1.537-2.269c.673-.525 1.479-.787 2.42-.787s1.745.262 2.413.787 1.185 1.277 1.537 2.269c.357.987.536 2.178.536 3.572 0 1.403-.176 2.6-.529 3.592s-.864 1.741-1.531 2.261-1.477.775-2.426.775zm0-1.386c.941 0 1.672-.453 2.193-1.361s.781-2.201.781-3.881c0-1.117-.12-2.069-.359-2.854s-.576-1.384-1.021-1.796-.972-.617-1.594-.617c-.933 0-1.661.46-2.186 1.38s-.788 2.211-.788 3.887c0 1.117.118 2.067.353 2.848s.573 1.376 1.014 1.783a2.29 2.29 0 0 0 1.607.611zm17.868-8.468v1.386h-4.486V151h-1.487v-9.678h5.973zm2.171 13.307v-13.307h1.437v1.538h.176l.454-.643c.197-.265.478-.5.844-.706s.869-.315 1.499-.315c.815 0 1.534.204 2.155.611s1.107.985 1.456 1.733.523 1.63.523 2.646c0 1.025-.175 1.914-.523 2.665s-.832 1.328-1.449 1.739-1.33.612-2.136.612c-.622 0-1.12-.103-1.494-.309s-.661-.447-.863-.712l-.466-.668h-.126v5.116h-1.487zm1.462-8.468c0 .731.107 1.376.321 1.934s.527.99.939 1.305.916.466 1.512.466c.622 0 1.14-.164 1.556-.492s.735-.777.945-1.335.322-1.189.322-1.878c0-.68-.105-1.294-.315-1.84s-.519-.985-.939-1.304-.939-.485-1.569-.485c-.605 0-1.113.153-1.525.46s-.722.727-.932 1.273-.315 1.174-.315 1.896zm15.827-.68v1.386h-5.343v-1.386h5.343zm-4.99-4.159V151h-1.487v-9.678h1.487zm6.124 0V151h-1.487v-9.678h1.487z" fill="#000f26"/><path d="M239.886 151v-12.904h4.511c.899 0 1.64.156 2.224.467s1.019.72 1.304 1.241a3.49 3.49 0 0 1 .429 1.72c0 .554-.099 1.012-.296 1.373s-.45.647-.769.857a3.5 3.5 0 0 1-1.027.467v.126c.395.025.792.163 1.191.415s.733.614 1.002 1.084.403 1.046.403 1.726c0 .647-.147 1.229-.441 1.746s-.758.926-1.393 1.228-1.459.454-2.476.454h-4.662zm1.562-1.386h3.1c1.021 0 1.746-.198 2.174-.592s.649-.882.649-1.45c0-.436-.111-.84-.334-1.209s-.54-.672-.951-.895-.899-.34-1.462-.34h-3.176v4.486zm0-5.847h2.899c.47 0 .894-.093 1.272-.277.383-.185.685-.446.908-.782s.34-.731.34-1.184c0-.567-.198-1.048-.592-1.443s-1.021-.599-1.878-.599h-2.949v4.285zm9.776 7.233v-9.678h1.487V151h-1.487zm.756-11.291c-.29 0-.54-.098-.75-.296a.95.95 0 0 1-.309-.712.95.95 0 0 1 .309-.712 1.06 1.06 0 0 1 .75-.296c.29 0 .538.099.743.296s.315.435.315.712a.94.94 0 0 1-.315.712 1.03 1.03 0 0 1-.743.296zm2.421 14.063v-4.158h.806a3.71 3.71 0 0 0 .511-.668c.143-.239.266-.523.371-.851.11-.331.202-.735.278-1.209l.201-1.733.328-3.831h6.149v8.292h1.487v4.158h-1.487V151h-7.157v2.772h-1.487zm2.495-4.158h4.662v-6.906h-3.276l-.252 2.445-.391 2.653c-.155.756-.403 1.358-.743 1.808zm14.902-.63l3.378-7.662h1.411L272.403 151h-1.209l-4.108-9.678h1.386l3.326 7.662zm-3.805-7.662V151h-1.487v-9.678h1.487zm7.611 9.678v-9.678h1.487V151h-1.487zm4.209 0v-9.678h1.487V151h-1.487zm.756-11.291c-.29 0-.54-.098-.75-.296a.95.95 0 0 1-.309-.712.95.95 0 0 1 .309-.712 1.06 1.06 0 0 1 .75-.296c.29 0 .538.099.743.296s.315.435.315.712a.94.94 0 0 1-.315.712 1.03 1.03 0 0 1-.743.296zm9.931 5.772v1.386h-5.343v-1.386h5.343zm-4.99-4.159V151h-1.487v-9.678h1.487zm6.124 0V151h-1.486v-9.678h1.486zm6.774 9.88c-.933 0-1.737-.206-2.414-.618s-1.19-.995-1.556-1.739-.542-1.617-.542-2.608.181-1.865.542-2.621c.366-.761.874-1.353 1.525-1.777s1.42-.643 2.293-.643c.504 0 1.002.084 1.494.252a3.71 3.71 0 0 1 1.342.819c.403.374.724.87.964 1.487s.359 1.378.359 2.281v.63h-7.46v-1.285h5.948c0-.546-.11-1.033-.328-1.462a2.47 2.47 0 0 0-.92-1.014c-.395-.248-.861-.372-1.399-.372-.592 0-1.104.147-1.537.441s-.758.668-.989 1.134a3.33 3.33 0 0 0-.347 1.5v.857c0 .73.126 1.35.378 1.858s.612.889 1.065 1.153.981.391 1.582.391c.39 0 .743-.055 1.058-.164s.594-.281.826-.504a2.29 2.29 0 0 0 .535-.844l1.437.403a3.19 3.19 0 0 1-.763 1.285 3.71 3.71 0 0 1-1.323.857c-.525.202-1.115.303-1.77.303zm12.746-5.721v1.386h-5.343v-1.386h5.343zm-4.99-4.159V151h-1.487v-9.678h1.487zm6.124 0V151h-1.487v-9.678h1.487zm6.647 9.88c-.874 0-1.64-.208-2.3-.624-.655-.416-1.167-.998-1.537-1.745s-.548-1.622-.548-2.621c0-1.009.183-1.889.548-2.64s.882-1.336 1.537-1.752c.66-.416 1.426-.624 2.3-.624s1.638.208 2.294.624 1.171 1 1.537 1.752.554 1.631.554 2.64c0 .999-.185 1.873-.554 2.621s-.878 1.329-1.537 1.745-1.42.624-2.294.624zm0-1.336c.664 0 1.21-.17 1.638-.51s.746-.788.952-1.342.308-1.156.308-1.802-.103-1.25-.308-1.809-.523-1.01-.952-1.354-.974-.517-1.638-.517-1.21.172-1.638.517-.746.796-.951 1.354a5.19 5.19 0 0 0-.309 1.809 5.14 5.14 0 0 0 .309 1.802c.205.554.522 1.001.951 1.342s.974.51 1.638.51z" fill="#e84f35"/><g stroke-width="2.281" stroke-linecap="round" stroke-linejoin="round"><path d="M1.333 39.287h328.871" stroke="#c0cfd6"/><path d="M1.333 109.713h328.871m-328.871 70h328.871" stroke="#e3e9f3"/></g></svg>