<svg xmlns="http://www.w3.org/2000/svg" width="314" height="233" fill="none"><path d="M13.355 14.492h-2.8c-.051-.362-.155-.684-.313-.965s-.36-.528-.607-.729a2.67 2.67 0 0 0-.857-.46c-.32-.107-.667-.16-1.042-.16-.678 0-1.268.168-1.771.505s-.893.818-1.17 1.457-.415 1.406-.415 2.314c0 .933.138 1.717.415 2.352s.673 1.114 1.176 1.438 1.085.486 1.745.486c.371 0 .714-.049 1.029-.147s.603-.241.85-.428.452-.424.614-.697.281-.584.345-.933l2.8.013c-.072.601-.253 1.18-.543 1.739s-.671 1.05-1.157 1.489-1.057.78-1.726 1.035-1.417.377-2.256.377c-1.168 0-2.212-.264-3.132-.793s-1.641-1.293-2.173-2.295-.793-2.214-.793-3.637.268-2.642.805-3.643 1.266-1.764 2.186-2.288 1.956-.793 3.107-.793c.759 0 1.462.107 2.109.32a5.35 5.35 0 0 1 1.732.933 4.8 4.8 0 0 1 1.227 1.489c.32.588.524 1.261.614 2.02zm1.422.831v-2.141h8.898v2.141h-3.164V23h-2.595v-7.677h-3.139zM25.325 23v-9.818h4.187c1.21 0 2.167.23 2.87.69s1.055 1.114 1.055 1.962c0 .533-.198.976-.594 1.33s-.946.592-1.649.716c.588.043 1.089.177 1.502.403a2.41 2.41 0 0 1 .953.863 2.17 2.17 0 0 1 .332 1.176c0 .558-.149 1.038-.447 1.438s-.727.707-1.298.921-1.259.32-2.077.32h-4.832zm2.538-2.039h2.295c.379 0 .675-.089.888-.268s.326-.433.326-.748c0-.349-.109-.624-.326-.825s-.509-.3-.888-.3h-2.295v2.141zm0-3.739h1.707c.273 0 .505-.038.697-.115s.345-.196.447-.345a.89.89 0 0 0 .16-.531c0-.302-.121-.539-.364-.709s-.575-.256-.997-.256h-1.649v1.956zm12.269 5.97c-.993 0-1.852-.211-2.576-.633a4.33 4.33 0 0 1-1.668-1.777c-.392-.763-.588-1.647-.588-2.653 0-1.014.196-1.901.588-2.659s.948-1.355 1.668-1.777 1.583-.639 2.576-.639 1.849.213 2.57.639 1.283 1.014 1.675 1.777.588 1.645.588 2.659c0 1.006-.196 1.89-.588 2.653s-.95 1.351-1.675 1.777-1.577.633-2.57.633zm.013-2.109c.452 0 .829-.128 1.131-.384s.53-.614.684-1.061.236-.957.236-1.528-.079-1.08-.236-1.528-.381-.801-.684-1.061-.68-.39-1.131-.39-.84.13-1.151.39-.539.614-.697 1.061-.23.957-.23 1.528.077 1.08.23 1.528.39.801.697 1.061.695.384 1.151.384zm6.59 5.599v-13.5h2.685v1.649h.121c.119-.264.292-.533.518-.805s.528-.507.895-.69.831-.281 1.381-.281a3.69 3.69 0 0 1 1.981.563c.605.371 1.089.931 1.451 1.681s.543 1.681.543 2.806c0 1.095-.177 2.02-.531 2.774s-.827 1.319-1.432 1.707-1.274.575-2.02.575c-.528 0-.978-.087-1.349-.262s-.667-.394-.901-.658-.413-.539-.537-.812h-.083v5.254h-2.723zm2.666-8.591c0 .584.081 1.093.243 1.528s.396.773.703 1.016.68.358 1.119.358.818-.121 1.125-.364.539-.588.697-1.023.243-.944.243-1.515-.079-1.065-.236-1.496-.39-.767-.697-1.01-.684-.364-1.131-.364-.818.117-1.125.351-.535.567-.697.997-.243.938-.243 1.521zm11.327 1.317l3.535-6.226h2.685V23h-2.595v-6.245L60.83 23h-2.704v-9.818h2.602v6.226zm7.416-4.084v-2.141h8.898v2.141h-3.164V23h-2.595v-7.677h-3.139zm13.15 4.084l3.535-6.226h2.685V23h-2.595v-6.245L81.396 23h-2.704v-9.818h2.602v6.226zm12.568 7.274v-13.5h2.685v1.649h.121c.119-.264.292-.533.518-.805a2.73 2.73 0 0 1 .895-.69c.371-.187.831-.281 1.381-.281.716 0 1.376.188 1.981.563s1.089.931 1.451 1.681.544 1.681.544 2.806c0 1.095-.177 2.02-.531 2.774-.349.75-.826 1.319-1.432 1.707-.6.384-1.274.575-2.019.575-.528 0-.978-.087-1.349-.262s-.667-.394-.901-.658-.413-.539-.537-.812h-.083v5.254h-2.723zm2.666-8.591c0 .584.081 1.093.243 1.528s.396.773.703 1.016.68.358 1.119.358.818-.121 1.125-.364.539-.588.696-1.023.243-.944.243-1.515-.079-1.065-.236-1.496-.39-.767-.697-1.01-.684-.364-1.131-.364-.818.117-1.125.351-.535.567-.697.997-.243.938-.243 1.521zm11.525 5.095c-.627 0-1.185-.109-1.675-.326s-.878-.548-1.163-.978-.422-.976-.422-1.624c0-.545.1-1.003.3-1.374s.473-.669.819-.895.737-.396 1.176-.511.907-.196 1.393-.243l1.381-.166c.349-.055.603-.136.76-.243s.237-.264.237-.473v-.038c0-.405-.128-.718-.384-.94-.251-.222-.609-.332-1.073-.332-.49 0-.88.109-1.17.326s-.482.481-.575.805l-2.519-.205c.128-.597.379-1.112.754-1.547s.859-.776 1.451-1.01 1.287-.358 2.071-.358c.546 0 1.068.064 1.566.192a4.09 4.09 0 0 1 1.336.595 2.89 2.89 0 0 1 .927 1.036c.226.418.339.918.339 1.502V23H111v-1.361h-.077a2.78 2.78 0 0 1-.633.812c-.264.23-.582.411-.952.543s-.799.192-1.285.192zm.78-1.879c.4 0 .754-.079 1.061-.236a1.88 1.88 0 0 0 .722-.652c.175-.273.262-.582.262-.927v-1.042c-.085.055-.202.107-.351.153l-.493.121-.549.096-.499.07a3.37 3.37 0 0 0-.837.224c-.239.102-.424.241-.556.415s-.199.384-.199.639c0 .371.135.654.403.85s.618.288 1.036.288zm9.137-8.124l1.803 3.432 1.847-3.432h2.793l-2.844 4.909L124.49 23h-2.781l-1.936-3.394L117.868 23h-2.813l2.915-4.909-2.812-4.909h2.812zm9.742 13.5c-.346 0-.669-.028-.972-.083a3.54 3.54 0 0 1-.741-.198l.613-2.033c.32.098.607.151.863.16s.484-.051.671-.179c.192-.128.348-.345.467-.652l.16-.416-3.522-10.099h2.863l2.033 7.21h.102l2.052-7.21h2.883l-3.816 10.879c-.183.528-.433.989-.748 1.381a3.06 3.06 0 0 1-1.183.914c-.477.217-1.052.326-1.725.326zm15.698-9.677v2.141h-5.126v-2.141h5.126zm-4.231-3.822V23h-2.602v-9.818h2.602zm5.938 0V23h-2.582v-9.818h2.582zm6.549 10.01c-.993 0-1.852-.211-2.576-.633a4.34 4.34 0 0 1-1.669-1.777c-.392-.763-.588-1.647-.588-2.653 0-1.014.196-1.901.588-2.659s.949-1.355 1.669-1.777 1.583-.639 2.576-.639 1.849.213 2.569.639 1.283 1.014 1.675 1.777.588 1.645.588 2.659c0 1.006-.196 1.89-.588 2.653s-.95 1.351-1.675 1.777-1.576.633-2.569.633zm.013-2.109c.451 0 .828-.128 1.131-.384s.531-.614.684-1.061.236-.957.236-1.528-.078-1.08-.236-1.528-.381-.801-.684-1.061-.68-.39-1.131-.39-.84.13-1.151.39-.539.614-.697 1.061c-.153.447-.23.957-.23 1.528s.077 1.08.23 1.528c.158.447.39.801.697 1.061s.695.384 1.151.384zm6.59 1.918v-9.818h2.723v3.81h.767l2.672-3.81h3.196l-3.471 4.871L167.665 23h-3.234l-2.423-3.484h-1.016V23h-2.723z" fill="#000f26"/><rect x=".667" y="47" width="313" height="52" rx="7" fill="#fff"/><path d="M27.338 66.909V80H25.37V68.597h-6.162V80h-1.969V66.909h10.099zm2.867 16.773v-13.5h1.866v1.592h.16c.111-.204.271-.441.479-.709s.499-.503.869-.703.861-.307 1.47-.307c.793 0 1.5.2 2.122.601s1.11.978 1.464 1.732.537 1.662.537 2.723-.177 1.971-.531 2.729-.84 1.336-1.457 1.745-1.323.607-2.116.607c-.597 0-1.085-.1-1.464-.3s-.669-.435-.882-.703-.377-.507-.492-.716h-.115v5.209h-1.911zm1.873-8.591c0 .69.1 1.295.3 1.815s.49.927.869 1.221.844.435 1.394.435c.571 0 1.048-.151 1.432-.454s.673-.722.869-1.246.3-1.114.3-1.771c0-.648-.098-1.229-.294-1.745s-.481-.923-.869-1.221-.863-.447-1.438-.447c-.554 0-1.023.143-1.406.428s-.667.684-.863 1.195-.294 1.108-.294 1.79zm11.109 2.231l4.327-7.14h2.058V80H47.7v-7.146L43.392 80h-2.077v-9.818h1.873v7.14zm8.374.083h1.956a1.13 1.13 0 0 0 .543.927c.341.217.782.326 1.323.326.55 0 1.018-.117 1.406-.352s.582-.607.582-1.106c0-.298-.075-.558-.224-.78a1.42 1.42 0 0 0-.62-.524 2.2 2.2 0 0 0-.94-.185H53.99v-1.502h1.598c.541 0 .946-.124 1.215-.371s.403-.556.403-.927c0-.4-.145-.722-.435-.965s-.684-.371-1.195-.371c-.52 0-.952.117-1.297.352s-.526.528-.543.895h-1.93a2.39 2.39 0 0 1 .499-1.445c.324-.418.758-.741 1.304-.972s1.174-.352 1.873-.352c.729 0 1.359.117 1.892.352s.944.558 1.234.972.441.889.441 1.425-.162.984-.486 1.329-.737.586-1.253.735v.102c.379.026.716.141 1.01.345s.524.475.69.812a2.55 2.55 0 0 1 .249 1.144c0 .601-.166 1.121-.499 1.56s-.784.778-1.368 1.016-1.242.352-1.988.352c-.725 0-1.374-.113-1.95-.339s-1.025-.554-1.361-.972-.509-.912-.531-1.483zm16.324-3.138v1.656h-5.318v-1.656h5.318zm-4.781-4.085V80h-1.873v-9.818h1.873zm6.117 0V80h-1.866v-9.818h1.866zm5.414 10.035c-.622 0-1.185-.115-1.687-.345s-.901-.573-1.195-1.016-.435-.987-.435-1.63c0-.554.107-1.01.32-1.368a2.36 2.36 0 0 1 .863-.85c.362-.209.767-.367 1.215-.473a12.08 12.08 0 0 1 1.368-.243l1.432-.166c.367-.047.633-.121.799-.224s.249-.269.249-.499v-.045c0-.558-.158-.991-.473-1.298s-.776-.46-1.393-.46c-.644 0-1.151.143-1.521.428s-.62.594-.761.94l-1.796-.409c.213-.597.524-1.078.933-1.445s.889-.639 1.425-.805 1.102-.256 1.694-.256a5.98 5.98 0 0 1 1.247.141 3.65 3.65 0 0 1 1.24.499c.388.243.705.59.953 1.042s.371 1.029.371 1.745V80h-1.867v-1.342h-.077c-.124.247-.309.49-.556.729s-.565.437-.952.594-.852.236-1.394.236zm.416-1.534c.528 0 .98-.104 1.355-.313s.667-.482.863-.818a2.12 2.12 0 0 0 .301-1.093v-1.266c-.068.068-.2.132-.396.192a6.19 6.19 0 0 1-.658.147l-.722.109-.588.077a4.74 4.74 0 0 0-1.016.237c-.303.111-.545.271-.729.479s-.269.477-.269.818c0 .473.175.831.524 1.074s.795.358 1.336.358zm14.857-8.501V80H88.04v-9.818h1.866zm-.812 4.558v1.649c-.294.119-.605.226-.933.32s-.673.16-1.035.211a8.08 8.08 0 0 1-1.131.077c-1.215 0-2.18-.296-2.896-.888s-1.074-1.509-1.074-2.736v-3.209h1.86v3.209c0 .465.085.842.256 1.131s.413.503.729.639.69.205 1.125.205c.575 0 1.106-.053 1.592-.16s.993-.26 1.508-.448zm7.586 5.459c-.967 0-1.8-.207-2.499-.62s-1.231-1.004-1.611-1.758-.562-1.647-.562-2.666c0-1.006.188-1.892.563-2.659s.908-1.366 1.585-1.796 1.479-.646 2.391-.646a4.81 4.81 0 0 1 1.611.275 3.9 3.9 0 0 1 1.4.863c.413.392.74.901.978 1.528s.358 1.379.358 2.269v.678h-7.804v-1.432h5.932c0-.503-.102-.948-.307-1.336a2.32 2.32 0 0 0-.863-.927c-.366-.226-.797-.339-1.291-.339-.537 0-1.006.132-1.406.396a2.66 2.66 0 0 0-.921 1.023c-.213.418-.32.871-.32 1.362v1.119c0 .656.115 1.214.345 1.675s.56.812.978 1.055.906.358 1.464.358c.362 0 .692-.051.991-.153a2.14 2.14 0 0 0 .773-.473c.217-.209.384-.467.499-.773l1.809.326c-.145.533-.405.999-.78 1.4a3.78 3.78 0 0 1-1.4.927c-.558.217-1.195.326-1.911.326zm12.987-5.932v1.656h-5.318v-1.656h5.318zm-4.781-4.085V80h-1.873v-9.818h1.873zm6.117 0V80h-1.867v-9.818h1.867zm9.211 4.085v1.656h-5.318v-1.656h5.318zm-4.781-4.085V80h-1.873v-9.818h1.873zm6.117 0V80h-1.867v-9.818h1.867zM129.963 80v-8.188h-2.353c-.558 0-.993.13-1.304.39s-.466.601-.466 1.023.143.754.428 1.01c.29.251.695.377 1.215.377h3.036v1.547h-3.036c-.725 0-1.351-.119-1.88-.358-.524-.243-.929-.586-1.214-1.029s-.422-.967-.422-1.572c0-.618.145-1.151.435-1.598s.713-.801 1.259-1.048 1.199-.371 1.949-.371h4.149V80h-1.796zm-6.444 0l2.768-4.96h1.956L125.475 80h-1.956zm15.548 0v-9.818h8.009V80h-1.873v-8.169h-4.276V80h-1.86zm9.791 0l-.007-1.656h.352c.272 0 .5-.058.684-.173s.341-.32.46-.601.211-.669.275-1.163.111-1.125.14-1.879l.173-4.347h6.852V80h-1.873v-8.169h-3.208l-.154 3.337c-.038.81-.121 1.517-.249 2.122s-.305 1.11-.543 1.515-.546.701-.921.901-.831.294-1.368.294h-.613zm14.335.217c-.622 0-1.184-.115-1.687-.345a2.84 2.84 0 0 1-1.195-1.016c-.29-.443-.435-.987-.435-1.63 0-.554.106-1.01.319-1.368s.501-.641.863-.85.767-.367 1.215-.473.903-.187 1.368-.243l1.432-.166c.366-.047.632-.121.799-.224s.249-.269.249-.499v-.045c0-.558-.158-.991-.473-1.298s-.776-.46-1.394-.46c-.643 0-1.15.143-1.521.428s-.62.594-.761.94l-1.796-.409c.213-.597.524-1.078.934-1.445a3.78 3.78 0 0 1 1.425-.805 5.56 5.56 0 0 1 1.694-.256c.392 0 .807.047 1.246.141s.857.256 1.24.499.706.59.953 1.042.37 1.029.37 1.745V80h-1.866v-1.342h-.077c-.123.247-.309.49-.556.729s-.564.437-.952.594-.852.236-1.394.236zm.416-1.534c.528 0 .98-.104 1.355-.313s.667-.482.863-.818.3-.705.3-1.093v-1.266c-.068.068-.2.132-.396.192s-.411.104-.658.147l-.723.109-.588.077c-.371.047-.709.126-1.016.237s-.546.271-.729.479-.268.477-.268.818c0 .473.174.831.524 1.074s.795.358 1.336.358zm5.757-6.852v-1.649h8.285v1.649h-3.203V80h-1.866v-8.169h-3.216zm14.081 8.367c-.968 0-1.801-.207-2.5-.62s-1.231-1.004-1.611-1.758-.562-1.647-.562-2.666c0-1.006.187-1.892.562-2.659s.908-1.366 1.586-1.796 1.478-.646 2.39-.646c.554 0 1.091.092 1.611.275a3.9 3.9 0 0 1 1.4.863c.413.392.739.901.978 1.528s.358 1.379.358 2.269v.678h-7.805v-1.432h5.932c0-.503-.102-.948-.307-1.336s-.492-.701-.863-.927-.797-.339-1.291-.339c-.537 0-1.006.132-1.406.396a2.67 2.67 0 0 0-.921 1.023c-.213.418-.319.871-.319 1.362v1.119c0 .656.115 1.214.345 1.675s.56.812.978 1.055.905.358 1.464.358c.362 0 .692-.051.99-.153s.557-.264.774-.473.383-.467.498-.773l1.809.326c-.144.533-.404.999-.779 1.4s-.838.705-1.4.927-1.196.326-1.911.326zm5.477-.198l3.804-5.024-3.759-4.794h2.225l3.036 4.078h.684v-4.078h1.911v4.078h.665l3.036-4.078h2.224l-3.739 4.794L202.795 80h-2.269l-3.062-4.091h-.639V80h-1.911v-4.091h-.639L191.194 80h-2.27zm17.023 3.682a3.98 3.98 0 0 1-.78-.07c-.235-.043-.409-.09-.524-.141l.46-1.566a3.08 3.08 0 0 0 .933.122c.273-.013.513-.115.722-.307s.401-.505.563-.94l.236-.652-3.592-9.946h2.045l2.487 7.619h.102l2.487-7.619h2.052l-4.047 11.129c-.187.511-.426.944-.716 1.298a2.77 2.77 0 0 1-1.035.805c-.401.179-.865.268-1.393.268z" fill="#000f26"/><rect x=".667" y="114" width="313" height="52" rx="7" fill="#fff"/><path d="M27.978 138.166h-1.994a3.05 3.05 0 0 0-.428-1.125 3.13 3.13 0 0 0-.767-.824c-.303-.226-.641-.397-1.016-.512a3.97 3.97 0 0 0-1.183-.172 3.69 3.69 0 0 0-2.026.569c-.592.379-1.061.935-1.406 1.668s-.511 1.628-.511 2.685c0 1.065.171 1.964.511 2.697s.816 1.287 1.413 1.662 1.268.562 2.014.562a4.08 4.08 0 0 0 1.176-.166c.375-.115.714-.283 1.016-.505a3.08 3.08 0 0 0 .767-.812 3.05 3.05 0 0 0 .441-1.112l1.994.007c-.107.643-.313 1.235-.62 1.777a4.9 4.9 0 0 1-1.17 1.393c-.473.388-1.014.688-1.624.901s-1.274.32-1.994.32c-1.134 0-2.143-.268-3.03-.805s-1.585-1.315-2.097-2.321-.761-2.205-.761-3.598c0-1.398.256-2.598.767-3.599s1.21-1.777 2.097-2.314 1.894-.812 3.023-.812c.695 0 1.342.1 1.943.301a5.12 5.12 0 0 1 1.63.869c.482.379.88.844 1.195 1.393s.528 1.17.639 1.873zm3.453 12.516c-.286 0-.546-.024-.78-.07s-.409-.09-.524-.141l.46-1.566a3.07 3.07 0 0 0 .933.121c.273-.013.514-.115.722-.307s.401-.505.563-.939l.236-.652-3.592-9.946h2.045l2.486 7.619h.102l2.486-7.619h2.052l-4.046 11.128a4.44 4.44 0 0 1-.716 1.298 2.78 2.78 0 0 1-1.036.805c-.401.179-.865.269-1.393.269zm14.497-6.047l3.171-7.453h1.649L46.638 147h-1.419l-4.027-9.818h1.63l3.106 7.453zm-3.637-7.453V147h-1.873v-9.818h1.873zM49.616 147v-9.818h1.86V147h-1.86zm7.264.217c-.622 0-1.185-.115-1.687-.345a2.84 2.84 0 0 1-1.195-1.016c-.29-.443-.435-.987-.435-1.63 0-.554.107-1.01.32-1.368a2.36 2.36 0 0 1 .863-.85c.362-.209.767-.367 1.215-.473s.903-.188 1.368-.243l1.432-.166c.367-.047.633-.122.799-.224s.249-.268.249-.499v-.044c0-.559-.158-.991-.473-1.298s-.776-.46-1.394-.46c-.643 0-1.151.143-1.521.428s-.62.595-.761.94l-1.796-.409c.213-.597.524-1.078.933-1.445a3.78 3.78 0 0 1 1.425-.805 5.55 5.55 0 0 1 1.694-.256 5.96 5.96 0 0 1 1.246.141c.443.089.857.255 1.24.498s.705.59.952 1.042.371 1.029.371 1.745V147H59.86v-1.342h-.077a2.71 2.71 0 0 1-.556.728c-.247.239-.565.437-.952.595s-.852.236-1.393.236zm.416-1.534c.528 0 .98-.104 1.355-.313s.667-.482.863-.818a2.12 2.12 0 0 0 .3-1.093v-1.266c-.068.068-.2.132-.396.192s-.411.104-.658.147l-.722.109-.588.076c-.371.047-.709.126-1.016.237s-.545.27-.729.479-.269.478-.269.818c0 .473.175.831.524 1.074s.795.358 1.336.358zm10.78 4.149v-4.488h.799c.204-.187.377-.411.518-.671s.266-.569.364-.927.188-.775.256-1.252l.179-1.65.307-3.662h6.673v8.162h1.508v4.488h-1.866V147h-6.846v2.832h-1.892zm2.844-4.488h4.385v-6.526h-3.094l-.205 2.026-.371 2.685c-.149.754-.388 1.359-.716 1.815zm13.764 1.854c-.92 0-1.724-.211-2.41-.633s-1.219-1.012-1.598-1.77-.569-1.645-.569-2.659.19-1.909.569-2.672.912-1.355 1.598-1.777 1.489-.633 2.41-.633 1.724.211 2.41.633 1.219 1.014 1.598 1.777.569 1.653.569 2.672-.19 1.9-.569 2.659-.912 1.348-1.598 1.77-1.489.633-2.41.633zm.006-1.604c.597 0 1.091-.158 1.483-.473s.682-.735.869-1.259.288-1.102.288-1.733-.096-1.201-.288-1.726-.477-.952-.869-1.272-.886-.479-1.483-.479-1.099.16-1.496.479-.684.744-.876 1.272-.281 1.1-.281 1.726.094 1.208.281 1.733.484.943.876 1.259.895.473 1.496.473zm15.603 1.604c-.92 0-1.724-.211-2.41-.633s-1.219-1.012-1.598-1.77-.569-1.645-.569-2.659.19-1.909.569-2.672.912-1.355 1.598-1.777 1.489-.633 2.41-.633 1.724.211 2.41.633 1.219 1.014 1.598 1.777.569 1.653.569 2.672-.19 1.9-.569 2.659-.912 1.348-1.598 1.77-1.49.633-2.41.633zm.006-1.604c.597 0 1.091-.158 1.483-.473a2.78 2.78 0 0 0 .87-1.259c.191-.525.287-1.102.287-1.733s-.096-1.201-.287-1.726-.478-.952-.87-1.272-.886-.479-1.483-.479-1.099.16-1.495.479-.684.744-.876 1.272-.281 1.1-.281 1.726.094 1.208.281 1.733a2.82 2.82 0 0 0 .876 1.259c.396.315.895.473 1.495.473zm6.704 1.406v-9.818h8.009V147h-1.873v-8.169h-4.276V147h-1.86zm9.791 0l-.006-1.656h.351c.273 0 .501-.057.684-.172.188-.119.341-.32.46-.601s.211-.669.275-1.163.111-1.125.141-1.88l.172-4.346h6.853V147h-1.873v-8.169h-3.209l-.153 3.337c-.039.809-.122 1.517-.25 2.122-.123.605-.304 1.11-.543 1.515s-.545.701-.92.901-.831.294-1.368.294h-.614zm14.336.217c-.622 0-1.185-.115-1.688-.345s-.901-.573-1.195-1.016-.435-.987-.435-1.63c0-.554.107-1.01.32-1.368a2.36 2.36 0 0 1 .863-.85c.362-.209.767-.367 1.214-.473s.904-.188 1.368-.243l1.432-.166c.367-.047.633-.122.799-.224s.249-.268.249-.499v-.044c0-.559-.157-.991-.473-1.298s-.775-.46-1.393-.46c-.644 0-1.151.143-1.521.428s-.62.595-.761.94l-1.796-.409c.213-.597.524-1.078.933-1.445a3.78 3.78 0 0 1 1.425-.805 5.55 5.55 0 0 1 1.694-.256c.392 0 .808.047 1.247.141a3.64 3.64 0 0 1 1.24.498c.388.243.705.59.952 1.042s.371 1.029.371 1.745V147h-1.866v-1.342h-.077c-.124.247-.309.49-.556.728s-.565.437-.953.595-.852.236-1.393.236zm.415-1.534c.529 0 .98-.104 1.355-.313s.667-.482.863-.818.301-.705.301-1.093v-1.266c-.068.068-.201.132-.397.192s-.411.104-.658.147l-.722.109-.588.076a4.74 4.74 0 0 0-1.017.237c-.302.111-.545.27-.728.479s-.269.478-.269.818c0 .473.175.831.524 1.074s.795.358 1.336.358zm5.758-6.852v-1.649h8.284v1.649h-3.202V147h-1.867v-8.169h-3.215zm12.178 5.491l4.328-7.14h2.058V147h-1.873v-7.146L149.687 147h-2.077v-9.818h1.872v7.14z" fill="#000f26"/><rect x="197.667" y="181" width="116" height="52" rx="7" fill="#0acf83"/><path d="M224.978 205.166h-1.995c-.076-.426-.219-.801-.428-1.125s-.464-.599-.767-.824-.641-.397-1.016-.512-.765-.172-1.183-.172c-.754 0-1.43.189-2.026.569s-1.061.935-1.406 1.668-.512 1.628-.512 2.685c0 1.065.171 1.964.512 2.697s.816 1.287 1.412 1.662 1.268.562 2.014.562a4.08 4.08 0 0 0 1.176-.166c.375-.115.714-.283 1.016-.505s.558-.492.767-.812.36-.694.441-1.112l1.995.007a5.38 5.38 0 0 1-.62 1.777c-.303.537-.693 1.001-1.17 1.393s-1.014.688-1.624.901-1.274.32-1.994.32c-1.134 0-2.144-.268-3.03-.805s-1.585-1.315-2.097-2.321-.76-2.205-.76-3.598c0-1.398.256-2.598.767-3.599s1.21-1.777 2.096-2.314 1.895-.812 3.024-.812c.695 0 1.342.1 1.943.301s1.149.485 1.63.869c.482.379.88.844 1.195 1.393s.529 1.17.64 1.873zm1.66.665v-1.649h8.284v1.649h-3.202V214h-1.867v-8.169h-3.215zM236.943 214v-9.818h4.072c1.108 0 1.986.236 2.634.709s.971 1.106.971 1.912c0 .575-.183 1.031-.549 1.367s-.853.563-1.458.678a3.08 3.08 0 0 1 1.208.396c.367.209.661.49.882.844s.339.776.339 1.266a2.42 2.42 0 0 1-.402 1.38c-.269.397-.659.708-1.17.934s-1.119.332-1.835.332h-4.692zm1.797-1.598h2.895c.473 0 .844-.113 1.112-.339s.403-.532.403-.92c0-.456-.134-.814-.403-1.074s-.639-.396-1.112-.396h-2.895v2.729zm0-4.129h2.294c.358 0 .665-.051.921-.154s.458-.247.594-.434.211-.418.211-.678c0-.379-.155-.675-.466-.888s-.738-.32-1.279-.32h-2.275v2.474zm12.534 5.925c-.92 0-1.723-.211-2.409-.633s-1.219-1.012-1.598-1.77-.569-1.645-.569-2.659.189-1.909.569-2.672.912-1.355 1.598-1.777 1.489-.633 2.409-.633 1.724.211 2.41.633 1.219 1.014 1.598 1.777.569 1.653.569 2.672-.189 1.9-.569 2.659-.912 1.348-1.598 1.77-1.489.633-2.41.633zm.007-1.604c.596 0 1.091-.158 1.483-.473s.682-.735.869-1.259.288-1.102.288-1.733-.096-1.201-.288-1.726-.477-.952-.869-1.272-.887-.479-1.483-.479-1.1.16-1.496.479-.684.744-.876 1.272a5.11 5.11 0 0 0-.281 1.726 5.13 5.13 0 0 0 .281 1.733c.192.524.484.943.876 1.259s.895.473 1.496.473zm6.704 5.088v-13.5h1.866v1.591h.16a5.34 5.34 0 0 1 .479-.709c.209-.269.499-.503.87-.703s.86-.307 1.47-.307c.792 0 1.5.2 2.122.601s1.11.978 1.464 1.732.537 1.662.537 2.723-.177 1.971-.531 2.729-.839 1.336-1.457 1.746c-.618.404-1.324.607-2.116.607-.597 0-1.085-.1-1.464-.301s-.669-.434-.882-.703-.377-.507-.492-.716h-.115v5.21h-1.911zm1.872-8.591c0 .69.101 1.295.301 1.815s.49.927.869 1.221.844.435 1.394.435c.571 0 1.048-.151 1.431-.454s.674-.722.87-1.246.3-1.115.3-1.771c0-.648-.098-1.229-.294-1.745s-.481-.923-.869-1.221-.863-.447-1.438-.447c-.554 0-1.023.142-1.407.428s-.667.684-.863 1.195-.294 1.108-.294 1.79zm11.11 2.231l4.327-7.14h2.058V214h-1.872v-7.146L271.171 214h-2.077v-9.818h1.873v7.14zm7.737-5.491v-1.649h8.284v1.649h-3.202V214h-1.866v-8.169h-3.216zm12.179 5.491l4.327-7.14h2.058V214h-1.872v-7.146L291.087 214h-2.077v-9.818h1.873v7.14z" fill="#fff"/></svg>