<svg xmlns="http://www.w3.org/2000/svg" width="313" height="213" fill="none"><path d="M12.688 14.492h-2.8c-.051-.362-.156-.684-.313-.965s-.36-.528-.607-.729a2.67 2.67 0 0 0-.857-.46c-.32-.107-.667-.16-1.042-.16-.678 0-1.268.168-1.771.505s-.893.818-1.17 1.457-.415 1.406-.415 2.314c0 .933.138 1.717.415 2.352s.673 1.114 1.176 1.438 1.085.486 1.745.486c.371 0 .714-.049 1.029-.147s.603-.241.85-.428.452-.424.614-.697.281-.584.345-.933l2.8.013c-.072.601-.254 1.18-.543 1.739s-.671 1.05-1.157 1.489-1.057.78-1.726 1.035-1.417.377-2.256.377c-1.168 0-2.212-.264-3.132-.793S2.233 21.093 1.7 20.092.908 17.878.908 16.455s.268-2.642.805-3.643 1.266-1.764 2.186-2.288 1.956-.793 3.107-.793c.759 0 1.462.107 2.109.32a5.35 5.35 0 0 1 1.732.933 4.8 4.8 0 0 1 1.227 1.489c.32.588.524 1.261.614 2.02zm1.422.831v-2.141h8.898v2.141h-3.164V23h-2.595v-7.677H14.11zM24.659 23v-9.818h4.187c1.21 0 2.167.23 2.87.69s1.055 1.114 1.055 1.962c0 .533-.198.976-.594 1.33s-.946.592-1.649.716c.588.043 1.089.177 1.502.403a2.41 2.41 0 0 1 .953.863 2.17 2.17 0 0 1 .332 1.176c0 .558-.149 1.038-.447 1.438s-.727.707-1.298.921-1.259.32-2.077.32h-4.832zm2.538-2.039h2.295c.379 0 .675-.089.889-.268s.326-.433.326-.748c0-.349-.109-.624-.326-.825s-.509-.3-.889-.3h-2.295v2.141zm0-3.739h1.707c.273 0 .505-.038.697-.115s.345-.196.447-.345a.89.89 0 0 0 .16-.531c0-.302-.121-.539-.364-.709s-.575-.256-.997-.256h-1.649v1.956zm12.269 5.97c-.993 0-1.852-.211-2.576-.633a4.33 4.33 0 0 1-1.668-1.777c-.392-.763-.588-1.647-.588-2.653 0-1.014.196-1.901.588-2.659s.948-1.355 1.668-1.777 1.583-.639 2.576-.639 1.849.213 2.57.639 1.283 1.014 1.675 1.777.588 1.645.588 2.659c0 1.006-.196 1.89-.588 2.653s-.95 1.351-1.675 1.777-1.577.633-2.57.633zm.013-2.109c.452 0 .829-.128 1.131-.384s.53-.614.684-1.061.237-.957.237-1.528-.079-1.08-.237-1.528-.381-.801-.684-1.061-.68-.39-1.131-.39-.84.13-1.151.39-.539.614-.697 1.061-.23.957-.23 1.528.077 1.08.23 1.528.39.801.697 1.061.695.384 1.151.384zm6.59 5.599v-13.5h2.685v1.649h.121c.119-.264.292-.533.518-.805a2.73 2.73 0 0 1 .895-.69c.371-.187.831-.281 1.381-.281a3.69 3.69 0 0 1 1.981.563c.605.371 1.089.931 1.451 1.681s.543 1.681.543 2.806c0 1.095-.177 2.02-.531 2.774s-.827 1.319-1.432 1.707-1.274.575-2.02.575c-.528 0-.978-.087-1.349-.262s-.667-.394-.901-.658-.413-.539-.537-.812h-.083v5.254h-2.723zm2.666-8.591c0 .584.081 1.093.243 1.528s.396.773.703 1.016.68.358 1.119.358.818-.121 1.125-.364.539-.588.697-1.023.243-.944.243-1.515-.079-1.065-.236-1.496-.39-.767-.697-1.01-.684-.364-1.131-.364-.818.117-1.125.351-.535.567-.697.997-.243.938-.243 1.521zm11.327 1.317l3.535-6.226h2.685V23h-2.595v-6.245L60.164 23H57.46v-9.818h2.602v6.226zm7.416-4.084v-2.141h8.898v2.141h-3.164V23h-2.595v-7.677h-3.139zm13.15 4.084l3.535-6.226h2.685V23h-2.595v-6.245L80.73 23h-2.704v-9.818h2.602v6.226zm12.568 7.274v-13.5h2.685v1.649h.121a3.6 3.6 0 0 1 .518-.805 2.73 2.73 0 0 1 .895-.69c.371-.187.831-.281 1.381-.281a3.69 3.69 0 0 1 1.981.563c.605.371 1.089.931 1.451 1.681s.543 1.681.543 2.806c0 1.095-.177 2.02-.53 2.774s-.827 1.319-1.432 1.707-1.274.575-2.02.575c-.528 0-.978-.087-1.349-.262s-.667-.394-.901-.658-.413-.539-.537-.812h-.083v5.254h-2.723zm2.666-8.591c0 .584.081 1.093.243 1.528s.396.773.703 1.016.68.358 1.119.358.818-.121 1.125-.364.539-.588.697-1.023.243-.944.243-1.515-.079-1.065-.236-1.496-.39-.767-.697-1.01-.684-.364-1.131-.364-.818.117-1.125.351-.535.567-.697.997-.243.938-.243 1.521zm11.524 5.095c-.626 0-1.184-.109-1.674-.326a2.7 2.7 0 0 1-1.164-.978c-.281-.435-.422-.976-.422-1.624 0-.545.101-1.003.301-1.374a2.43 2.43 0 0 1 .818-.895c.345-.226.737-.396 1.176-.511a8.95 8.95 0 0 1 1.394-.243l1.38-.166c.35-.055.603-.136.761-.243s.236-.264.236-.473v-.038c0-.405-.127-.718-.383-.94-.251-.222-.609-.332-1.074-.332-.49 0-.88.109-1.17.326s-.481.481-.575.805l-2.518-.205c.127-.597.379-1.112.754-1.547s.859-.776 1.451-1.01 1.287-.358 2.071-.358a6.29 6.29 0 0 1 1.566.192c.503.128.948.326 1.336.595a2.89 2.89 0 0 1 .927 1.036c.226.418.338.918.338 1.502V23h-2.582v-1.361h-.077a2.76 2.76 0 0 1-.632.812c-.265.23-.582.411-.953.543s-.799.192-1.285.192zm.78-1.879c.401 0 .754-.079 1.061-.236s.548-.379.723-.652.262-.582.262-.927v-1.042a1.48 1.48 0 0 1-.352.153l-.492.121-.55.096-.498.07c-.32.047-.599.121-.838.224s-.424.241-.556.415-.198.384-.198.639c0 .371.134.654.403.85s.618.288 1.035.288zm9.138-8.124l1.802 3.432 1.847-3.432h2.794l-2.845 4.909L123.824 23h-2.781l-1.937-3.394L117.201 23h-2.812l2.915-4.909-2.813-4.909h2.813zm9.741 13.5c-.345 0-.669-.028-.971-.083s-.546-.117-.742-.198l.614-2.033c.319.098.607.151.863.16s.483-.051.671-.179.347-.345.466-.652l.16-.416-3.522-10.099h2.864l2.032 7.21h.103l2.052-7.21h2.882l-3.816 10.879a4.55 4.55 0 0 1-.748 1.381c-.311.396-.705.701-1.182.914s-1.053.326-1.726.326zm15.699-9.677v2.141h-5.126v-2.141h5.126zm-4.232-3.822V23h-2.601v-9.818h2.601zm5.939 0V23h-2.583v-9.818h2.583zm6.548 10.01c-.993 0-1.851-.211-2.576-.633a4.33 4.33 0 0 1-1.668-1.777c-.392-.763-.588-1.647-.588-2.653 0-1.014.196-1.901.588-2.659a4.28 4.28 0 0 1 1.668-1.777c.725-.426 1.583-.639 2.576-.639s1.85.213 2.57.639a4.27 4.27 0 0 1 1.675 1.777c.392.758.588 1.645.588 2.659 0 1.006-.196 1.89-.588 2.653a4.32 4.32 0 0 1-1.675 1.777c-.72.422-1.577.633-2.57.633zm.013-2.109c.452 0 .829-.128 1.131-.384s.531-.614.684-1.061c.158-.447.237-.957.237-1.528s-.079-1.08-.237-1.528c-.153-.448-.381-.801-.684-1.061s-.679-.39-1.131-.39-.839.13-1.15.39-.54.614-.697 1.061-.23.957-.23 1.528.076 1.08.23 1.528.39.801.697 1.061.694.384 1.15.384zm6.59 1.918v-9.818h2.723v3.81h.767l2.672-3.81h3.196l-3.471 4.871 3.51 4.947h-3.235l-2.422-3.484h-1.017V23h-2.723z" fill="#000f26"/><rect y="47" width="313" height="52" rx="7" fill="#fff"/><path d="M26.672 66.909V80h-1.969V68.597h-6.162V80h-1.969V66.909h10.1zm2.867 16.773v-13.5h1.867v1.592h.16c.111-.204.271-.441.479-.709s.499-.503.869-.703.861-.307 1.47-.307c.793 0 1.5.2 2.122.601s1.11.978 1.464 1.732.537 1.662.537 2.723-.177 1.971-.531 2.729-.84 1.336-1.457 1.745-1.323.607-2.116.607c-.597 0-1.085-.1-1.464-.3s-.669-.435-.882-.703-.377-.507-.492-.716h-.115v5.209h-1.911zm1.873-8.591c0 .69.1 1.295.3 1.815s.49.927.869 1.221.844.435 1.394.435c.571 0 1.048-.151 1.432-.454s.673-.722.869-1.246.3-1.114.3-1.771c0-.648-.098-1.229-.294-1.745s-.481-.923-.869-1.221-.863-.447-1.438-.447c-.554 0-1.023.143-1.406.428s-.667.684-.863 1.195-.294 1.108-.294 1.79zm11.109 2.231l4.327-7.14h2.058V80h-1.873v-7.146L42.726 80h-2.077v-9.818h1.873v7.14zm8.374.083h1.956a1.13 1.13 0 0 0 .543.927c.341.217.782.326 1.323.326.55 0 1.018-.117 1.406-.352s.582-.607.582-1.106c0-.298-.075-.558-.224-.78a1.42 1.42 0 0 0-.62-.524c-.264-.124-.577-.185-.94-.185h-1.598v-1.502h1.598c.541 0 .946-.124 1.215-.371s.403-.556.403-.927c0-.4-.145-.722-.435-.965s-.684-.371-1.195-.371c-.52 0-.952.117-1.298.352s-.526.528-.543.895h-1.93a2.39 2.39 0 0 1 .499-1.445c.324-.418.758-.741 1.304-.972s1.174-.352 1.873-.352c.729 0 1.359.117 1.892.352s.944.558 1.234.972.441.889.441 1.425-.162.984-.486 1.329-.737.586-1.253.735v.102c.379.026.716.141 1.01.345s.524.475.69.812a2.55 2.55 0 0 1 .249 1.144c0 .601-.166 1.121-.499 1.56s-.784.778-1.368 1.016-1.242.352-1.988.352c-.724 0-1.374-.113-1.95-.339s-1.025-.554-1.361-.972-.509-.912-.531-1.483zm16.324-3.138v1.656H61.9v-1.656h5.318zm-4.781-4.085V80h-1.873v-9.818h1.873zm6.117 0V80h-1.866v-9.818h1.866zm5.414 10.035c-.622 0-1.185-.115-1.687-.345s-.901-.573-1.195-1.016-.435-.987-.435-1.63c0-.554.107-1.01.32-1.368a2.36 2.36 0 0 1 .863-.85c.362-.209.767-.367 1.215-.473a12.08 12.08 0 0 1 1.368-.243l1.432-.166c.367-.047.633-.121.799-.224s.249-.269.249-.499v-.045c0-.558-.158-.991-.473-1.298s-.776-.46-1.393-.46c-.644 0-1.151.143-1.521.428s-.62.594-.761.94l-1.796-.409c.213-.597.524-1.078.933-1.445s.889-.639 1.425-.805 1.102-.256 1.694-.256a5.98 5.98 0 0 1 1.247.141 3.65 3.65 0 0 1 1.24.499c.388.243.705.59.952 1.042s.371 1.029.371 1.745V80h-1.867v-1.342h-.077c-.124.247-.309.49-.556.729s-.565.437-.952.594-.852.236-1.394.236zm.416-1.534c.528 0 .98-.104 1.355-.313s.667-.482.863-.818a2.12 2.12 0 0 0 .3-1.093v-1.266c-.068.068-.2.132-.396.192a6.19 6.19 0 0 1-.658.147l-.722.109-.588.077a4.74 4.74 0 0 0-1.016.237c-.303.111-.545.271-.729.479s-.269.477-.269.818c0 .473.175.831.524 1.074s.795.358 1.336.358zm14.857-8.501V80h-1.866v-9.818h1.866zm-.812 4.558v1.649c-.294.119-.605.226-.933.32s-.673.16-1.035.211a8.08 8.08 0 0 1-1.131.077c-1.215 0-2.18-.296-2.896-.888s-1.074-1.509-1.074-2.736v-3.209h1.86v3.209c0 .465.085.842.256 1.131s.413.503.729.639.69.205 1.125.205c.575 0 1.106-.053 1.592-.16s.993-.26 1.508-.448zm7.586 5.459c-.967 0-1.8-.207-2.499-.62s-1.231-1.004-1.611-1.758-.562-1.647-.562-2.666c0-1.006.188-1.892.563-2.659s.908-1.366 1.585-1.796 1.479-.646 2.391-.646a4.81 4.81 0 0 1 1.611.275 3.9 3.9 0 0 1 1.4.863c.413.392.739.901.978 1.528s.358 1.379.358 2.269v.678h-7.805v-1.432h5.932c0-.503-.102-.948-.307-1.336a2.32 2.32 0 0 0-.863-.927c-.367-.226-.797-.339-1.291-.339-.537 0-1.006.132-1.406.396a2.66 2.66 0 0 0-.921 1.023c-.213.418-.32.871-.32 1.362v1.119c0 .656.115 1.214.345 1.675s.56.812.978 1.055.906.358 1.464.358c.362 0 .692-.051.991-.153a2.14 2.14 0 0 0 .773-.473c.217-.209.383-.467.499-.773l1.809.326a3.27 3.27 0 0 1-.779 1.4 3.78 3.78 0 0 1-1.4.927c-.558.217-1.195.326-1.911.326zm12.987-5.932v1.656h-5.318v-1.656h5.318zm-4.781-4.085V80h-1.873v-9.818h1.873zm6.117 0V80h-1.866v-9.818h1.866zm9.211 4.085v1.656h-5.318v-1.656h5.318zm-4.781-4.085V80h-1.873v-9.818h1.873zm6.117 0V80h-1.866v-9.818h1.866zM129.296 80v-8.188h-2.352c-.558 0-.993.13-1.304.39s-.467.601-.467 1.023.143.754.429 1.01.694.377 1.214.377h3.036v1.547h-3.036c-.724 0-1.351-.119-1.879-.358s-.929-.586-1.215-1.029c-.281-.443-.422-.967-.422-1.572 0-.618.145-1.151.435-1.598s.714-.801 1.259-1.048 1.2-.371 1.95-.371h4.148V80h-1.796zm-6.443 0l2.768-4.96h1.956L124.809 80h-1.956zm15.547 0v-9.818h8.009V80h-1.873v-8.169h-4.276V80h-1.86zm9.791 0l-.006-1.656h.351c.273 0 .501-.058.684-.173s.341-.32.46-.601.211-.669.275-1.163.111-1.125.141-1.879l.172-4.347h6.853V80h-1.873v-8.169h-3.209l-.153 3.337a13.51 13.51 0 0 1-.25 2.122c-.123.605-.304 1.11-.543 1.515s-.545.701-.92.901-.831.294-1.368.294h-.614zm14.336.217c-.622 0-1.185-.115-1.688-.345a2.84 2.84 0 0 1-1.195-1.016c-.29-.443-.435-.987-.435-1.63 0-.554.107-1.01.32-1.368a2.36 2.36 0 0 1 .863-.85c.362-.209.767-.367 1.214-.473s.904-.187 1.368-.243l1.432-.166c.367-.047.633-.121.799-.224s.249-.269.249-.499v-.045c0-.558-.157-.991-.473-1.298s-.775-.46-1.393-.46c-.644 0-1.151.143-1.521.428s-.62.594-.761.94l-1.796-.409c.213-.597.524-1.078.933-1.445a3.78 3.78 0 0 1 1.425-.805c.537-.171 1.102-.256 1.694-.256.392 0 .808.047 1.247.141s.856.256 1.24.499.705.59.952 1.042.371 1.029.371 1.745V80h-1.866v-1.342h-.077c-.124.247-.309.49-.556.729s-.565.437-.953.594-.852.236-1.393.236zm.415-1.534c.529 0 .98-.104 1.355-.313s.667-.482.863-.818.301-.705.301-1.093v-1.266c-.068.068-.201.132-.397.192a6.14 6.14 0 0 1-.658.147l-.722.109-.588.077c-.371.047-.71.126-1.017.237s-.545.271-.728.479-.269.477-.269.818c0 .473.175.831.524 1.074s.795.358 1.336.358zm5.758-6.852v-1.649h8.284v1.649h-3.202V80h-1.867v-8.169H168.7zm14.08 8.367c-.967 0-1.8-.207-2.499-.62a4.2 4.2 0 0 1-1.611-1.758c-.375-.758-.563-1.647-.563-2.666 0-1.006.188-1.892.563-2.659s.908-1.366 1.585-1.796c.682-.43 1.479-.646 2.391-.646.554 0 1.091.092 1.611.275s.986.471 1.399.863.74.901.978 1.528.358 1.379.358 2.269v.678h-7.804v-1.432h5.931c0-.503-.102-.948-.306-1.336a2.33 2.33 0 0 0-.863-.927c-.367-.226-.797-.339-1.291-.339-.537 0-1.006.132-1.407.396a2.66 2.66 0 0 0-.92 1.023c-.213.418-.32.871-.32 1.362v1.119c0 .656.115 1.214.345 1.675.235.46.561.812.978 1.055s.906.358 1.464.358a3.04 3.04 0 0 0 .991-.153c.298-.107.556-.264.773-.473s.384-.467.499-.773l1.809.326c-.145.533-.405.999-.78 1.4s-.837.705-1.4.927-1.195.326-1.911.326zm5.478-.198l3.803-5.024-3.758-4.794h2.224l3.036 4.078h.684v-4.078h1.912v4.078h.664l3.037-4.078h2.224l-3.739 4.794L202.129 80h-2.269l-3.062-4.091h-.639V80h-1.912v-4.091h-.639L190.527 80h-2.269zm17.022 3.682c-.286 0-.545-.023-.78-.07s-.409-.09-.524-.141l.46-1.566c.35.094.661.134.933.122a1.12 1.12 0 0 0 .723-.307c.213-.192.4-.505.562-.94l.237-.652-3.593-9.946h2.046l2.486 7.619h.103l2.486-7.619h2.052l-4.046 11.129c-.188.511-.426.944-.716 1.298a2.78 2.78 0 0 1-1.036.805c-.4.179-.865.268-1.393.268z" fill="#000f26"/><rect y="114" width="313" height="52" rx="7" fill="#fff"/><path d="M27.311 138.166h-1.994a3.05 3.05 0 0 0-.428-1.125 3.13 3.13 0 0 0-.767-.824 3.3 3.3 0 0 0-1.016-.512 3.97 3.97 0 0 0-1.183-.172 3.69 3.69 0 0 0-2.026.569c-.592.379-1.061.935-1.406 1.668s-.511 1.628-.511 2.685c0 1.065.17 1.964.511 2.697s.816 1.287 1.413 1.662 1.268.562 2.014.562a4.08 4.08 0 0 0 1.176-.166c.375-.115.714-.283 1.016-.505a3.08 3.08 0 0 0 .767-.812 3.05 3.05 0 0 0 .441-1.112l1.994.007c-.107.643-.313 1.235-.62 1.777a4.9 4.9 0 0 1-1.17 1.393c-.473.388-1.014.688-1.624.901s-1.274.32-1.994.32c-1.134 0-2.144-.268-3.03-.805s-1.585-1.315-2.097-2.321-.761-2.205-.761-3.598c0-1.398.256-2.598.767-3.599s1.21-1.777 2.097-2.314 1.894-.812 3.023-.812c.695 0 1.342.1 1.943.301a5.12 5.12 0 0 1 1.63.869c.482.379.88.844 1.195 1.393s.528 1.17.639 1.873zm3.453 12.516c-.285 0-.545-.024-.78-.07s-.409-.09-.524-.141l.46-1.566a3.07 3.07 0 0 0 .933.121c.273-.013.514-.115.722-.307s.401-.505.563-.939l.236-.652-3.592-9.946h2.045l2.486 7.619h.102l2.486-7.619h2.052l-4.046 11.128a4.44 4.44 0 0 1-.716 1.298 2.78 2.78 0 0 1-1.036.805c-.401.179-.865.269-1.393.269zm14.497-6.047l3.171-7.453h1.649L45.971 147h-1.419l-4.027-9.818h1.63l3.106 7.453zm-3.637-7.453V147h-1.873v-9.818h1.873zM48.95 147v-9.818h1.86V147h-1.86zm7.264.217c-.622 0-1.185-.115-1.687-.345a2.84 2.84 0 0 1-1.195-1.016c-.29-.443-.435-.987-.435-1.63 0-.554.107-1.01.32-1.368a2.36 2.36 0 0 1 .863-.85c.362-.209.767-.367 1.215-.473s.903-.188 1.368-.243l1.432-.166c.366-.047.633-.122.799-.224s.249-.268.249-.499v-.044c0-.559-.158-.991-.473-1.298s-.776-.46-1.394-.46c-.643 0-1.151.143-1.521.428s-.62.595-.761.94l-1.796-.409c.213-.597.524-1.078.933-1.445a3.78 3.78 0 0 1 1.425-.805 5.55 5.55 0 0 1 1.694-.256 5.96 5.96 0 0 1 1.246.141c.443.089.857.255 1.24.498s.705.59.952 1.042.371 1.029.371 1.745V147h-1.867v-1.342h-.077a2.71 2.71 0 0 1-.556.728c-.247.239-.565.437-.952.595s-.852.236-1.393.236zm.416-1.534c.528 0 .98-.104 1.355-.313s.667-.482.863-.818a2.12 2.12 0 0 0 .3-1.093v-1.266c-.068.068-.2.132-.396.192s-.411.104-.658.147l-.722.109-.588.076c-.371.047-.709.126-1.016.237s-.545.27-.729.479-.269.478-.269.818c0 .473.175.831.524 1.074s.795.358 1.336.358zm10.78 4.149v-4.488h.799c.204-.187.377-.411.518-.671s.266-.569.364-.927.188-.775.256-1.252l.179-1.65.307-3.662h6.673v8.162h1.508v4.488h-1.866V147h-6.846v2.832H67.41zm2.844-4.488h4.385v-6.526h-3.094l-.204 2.026-.371 2.685c-.149.754-.388 1.359-.716 1.815zm13.764 1.854c-.92 0-1.724-.211-2.41-.633s-1.219-1.012-1.598-1.77-.569-1.645-.569-2.659.19-1.909.569-2.672.912-1.355 1.598-1.777 1.489-.633 2.41-.633 1.724.211 2.41.633 1.219 1.014 1.598 1.777.569 1.653.569 2.672-.19 1.9-.569 2.659-.912 1.348-1.598 1.77-1.489.633-2.41.633zm.006-1.604c.597 0 1.091-.158 1.483-.473s.682-.735.869-1.259.288-1.102.288-1.733-.096-1.201-.288-1.726-.477-.952-.869-1.272-.886-.479-1.483-.479-1.099.16-1.496.479-.684.744-.876 1.272-.281 1.1-.281 1.726.094 1.208.281 1.733.484.943.876 1.259.895.473 1.496.473zm15.603 1.604c-.921 0-1.724-.211-2.41-.633s-1.219-1.012-1.598-1.77-.569-1.645-.569-2.659.19-1.909.569-2.672.912-1.355 1.598-1.777 1.489-.633 2.41-.633 1.724.211 2.41.633 1.219 1.014 1.598 1.777.569 1.653.569 2.672-.189 1.9-.569 2.659-.912 1.348-1.598 1.77-1.489.633-2.41.633zm.006-1.604c.596 0 1.091-.158 1.483-.473s.682-.735.869-1.259.288-1.102.288-1.733-.096-1.201-.288-1.726-.477-.952-.869-1.272-.887-.479-1.483-.479-1.099.16-1.496.479-.684.744-.876 1.272-.281 1.1-.281 1.726.094 1.208.281 1.733a2.82 2.82 0 0 0 .876 1.259c.396.315.895.473 1.496.473zm6.704 1.406v-9.818h8.009V147h-1.873v-8.169h-4.276V147h-1.86zm9.791 0l-.007-1.656h.352c.272 0 .5-.057.684-.172s.341-.32.46-.601.211-.669.275-1.163.111-1.125.14-1.88l.173-4.346h6.852V147h-1.873v-8.169h-3.208l-.154 3.337c-.038.809-.121 1.517-.249 2.122s-.305 1.11-.543 1.515-.546.701-.921.901-.831.294-1.368.294h-.613zm14.335.217c-.622 0-1.184-.115-1.687-.345s-.901-.573-1.196-1.016c-.289-.443-.434-.987-.434-1.63 0-.554.106-1.01.319-1.368a2.37 2.37 0 0 1 .863-.85 4.49 4.49 0 0 1 1.215-.473 11.85 11.85 0 0 1 1.368-.243l1.432-.166c.366-.047.632-.122.799-.224s.249-.268.249-.499v-.044c0-.559-.158-.991-.473-1.298s-.776-.46-1.394-.46c-.643 0-1.15.143-1.521.428-.366.281-.62.595-.761.94l-1.796-.409c.213-.597.524-1.078.934-1.445s.888-.639 1.425-.805 1.101-.256 1.694-.256c.392 0 .807.047 1.246.141a3.63 3.63 0 0 1 1.24.498c.388.243.706.59.953 1.042s.37 1.029.37 1.745V147h-1.866v-1.342h-.077a2.7 2.7 0 0 1-.556.728c-.247.239-.564.437-.952.595s-.852.236-1.394.236zm.416-1.534c.528 0 .98-.104 1.355-.313a2.2 2.2 0 0 0 .863-.818c.2-.341.3-.705.3-1.093v-1.266c-.068.068-.2.132-.396.192s-.411.104-.658.147l-.723.109-.588.076a4.73 4.73 0 0 0-1.016.237c-.303.111-.546.27-.729.479s-.268.478-.268.818c0 .473.174.831.524 1.074s.795.358 1.336.358zm5.757-6.852v-1.649h8.285v1.649h-3.203V147h-1.866v-8.169h-3.216zm12.179 5.491l4.327-7.14h2.059V147h-1.873v-7.146L149.02 147h-2.077v-9.818h1.873v7.14z" fill="#000f26"/><path d="M12.311 195.166h-1.994a3.05 3.05 0 0 0-.428-1.125 3.13 3.13 0 0 0-.767-.824 3.3 3.3 0 0 0-1.016-.512 3.97 3.97 0 0 0-1.183-.172 3.69 3.69 0 0 0-2.026.569c-.592.379-1.061.935-1.406 1.668s-.511 1.628-.511 2.685c0 1.065.17 1.964.511 2.697s.816 1.287 1.413 1.662 1.268.562 2.013.562a4.08 4.08 0 0 0 1.176-.166c.375-.115.714-.283 1.016-.505a3.08 3.08 0 0 0 .767-.812 3.05 3.05 0 0 0 .441-1.112l1.994.007c-.107.643-.313 1.235-.62 1.777a4.9 4.9 0 0 1-1.17 1.393c-.473.388-1.014.688-1.624.901s-1.274.32-1.994.32c-1.134 0-2.143-.268-3.03-.805s-1.585-1.315-2.097-2.321-.761-2.205-.761-3.598c0-1.398.256-2.598.767-3.599s1.21-1.777 2.097-2.314 1.894-.812 3.023-.812c.695 0 1.342.1 1.943.301a5.12 5.12 0 0 1 1.63.869c.482.379.88.844 1.195 1.393s.528 1.17.639 1.873zm2.21 8.834v-9.818h1.911v4.116h.92l3.241-4.116h2.365l-3.803 4.775L23.003 204h-2.371l-2.96-3.925h-1.24V204h-1.911zm13.698.198c-.921 0-1.724-.211-2.41-.633s-1.219-1.012-1.598-1.77-.569-1.645-.569-2.659.19-1.909.569-2.672.912-1.355 1.598-1.777 1.489-.633 2.41-.633 1.724.211 2.41.633 1.219 1.014 1.598 1.777.569 1.653.569 2.672-.19 1.9-.569 2.659-.912 1.348-1.598 1.77-1.489.633-2.41.633zm.006-1.604c.597 0 1.091-.158 1.483-.473s.682-.735.869-1.259.288-1.102.288-1.733-.096-1.201-.288-1.726-.477-.952-.869-1.272-.886-.479-1.483-.479-1.099.16-1.496.479-.684.744-.876 1.272-.281 1.1-.281 1.726.094 1.208.281 1.733a2.82 2.82 0 0 0 .876 1.259c.396.315.895.473 1.496.473zM34.929 204v-9.818h8.009V204h-1.873v-8.169h-4.276V204h-1.86zm10.565 0v-9.818h1.911V204h-1.911zm.965-11.333c-.332 0-.618-.111-.857-.332a1.08 1.08 0 0 1-.352-.806c0-.315.117-.584.352-.805a1.2 1.2 0 0 1 .857-.339 1.18 1.18 0 0 1 .85.339c.239.221.358.49.358.805s-.119.58-.358.806-.518.332-.85.332zm8.458 5.67v1.662h-5.235v-1.662h5.235zm-3.682-4.155V204h-1.911v-9.818h1.911zm6.673 10.016c-.912 0-1.709-.213-2.391-.639s-1.21-1.019-1.585-1.777c-.375-.763-.562-1.647-.562-2.653 0-1.014.188-1.9.563-2.659a4.23 4.23 0 0 1 1.585-1.777c.682-.426 1.479-.639 2.391-.639s1.713.213 2.391.639a4.23 4.23 0 0 1 1.585 1.777c.379.759.569 1.645.569 2.659 0 1.006-.19 1.89-.569 2.653-.375.758-.903 1.351-1.585 1.777s-1.474.639-2.391.639zm0-1.636c.618 0 1.123-.156 1.515-.467s.688-.733.876-1.253.281-1.091.281-1.713-.094-1.199-.281-1.719-.479-.944-.876-1.259-.897-.473-1.515-.473-1.119.157-1.515.473-.688.735-.876 1.259-.281 1.093-.281 1.719.094 1.193.281 1.713.479.938.876 1.253.901.467 1.515.467zM64.707 204v-9.818h4.072c1.108 0 1.986.236 2.633.709s.972 1.106.972 1.912c0 .575-.183 1.031-.55 1.367s-.852.563-1.457.678c.439.051.842.183 1.208.396s.66.49.882.844.339.776.339 1.266c0 .52-.134.98-.403 1.38s-.658.708-1.17.934-1.119.332-1.835.332h-4.692zm1.796-1.598h2.896c.473 0 .844-.113 1.112-.339s.403-.532.403-.92c0-.456-.134-.814-.403-1.074s-.639-.396-1.112-.396h-2.896v2.729zm0-4.129h2.295c.358 0 .665-.051.92-.154s.458-.247.594-.434.211-.418.211-.678c0-.379-.155-.675-.467-.888s-.737-.32-1.278-.32h-2.276v2.474zm11.256 5.944c-.622 0-1.185-.115-1.687-.345a2.84 2.84 0 0 1-1.195-1.016c-.29-.443-.435-.987-.435-1.63 0-.554.106-1.01.32-1.368a2.36 2.36 0 0 1 .863-.85c.362-.209.767-.367 1.215-.473s.903-.188 1.368-.243l1.432-.166c.367-.047.633-.122.799-.224s.249-.268.249-.499v-.044c0-.559-.158-.991-.473-1.298s-.776-.46-1.394-.46c-.644 0-1.151.143-1.521.428s-.62.595-.761.94l-1.796-.409c.213-.597.524-1.078.933-1.445a3.78 3.78 0 0 1 1.425-.805c.537-.171 1.102-.256 1.694-.256a5.96 5.96 0 0 1 1.246.141c.443.089.856.255 1.24.498s.705.59.953 1.042.371 1.029.371 1.745V204h-1.867v-1.342h-.077a2.71 2.71 0 0 1-.556.728c-.247.239-.565.437-.952.595s-.852.236-1.393.236zm.415-1.534c.528 0 .98-.104 1.355-.313s.667-.482.863-.818.3-.705.3-1.093v-1.266c-.068.068-.2.132-.396.192a6.36 6.36 0 0 1-.658.147l-.722.109-.588.076c-.371.047-.71.126-1.016.237s-.546.27-.729.479-.269.478-.269.818c0 .473.175.831.524 1.074s.795.358 1.336.358zm5.758-6.852v-1.649h8.284v1.649h-3.202V204h-1.867v-8.169h-3.215zm12.178 5.491l4.327-7.14h2.058V204h-1.872v-7.146L96.315 204h-2.077v-9.818h1.873v7.14zM109.83 204v-9.818h8.009V204h-1.873v-8.169h-4.276V204h-1.86zm14.7.198c-.921 0-1.724-.211-2.41-.633s-1.219-1.012-1.598-1.77-.569-1.645-.569-2.659.19-1.909.569-2.672.912-1.355 1.598-1.777 1.489-.633 2.41-.633 1.724.211 2.41.633 1.218 1.014 1.598 1.777.569 1.653.569 2.672-.19 1.9-.569 2.659-.912 1.348-1.598 1.77-1.49.633-2.41.633zm.006-1.604c.597 0 1.091-.158 1.483-.473s.682-.735.869-1.259.288-1.102.288-1.733-.096-1.201-.288-1.726-.477-.952-.869-1.272-.886-.479-1.483-.479-1.099.16-1.496.479-.683.744-.875 1.272-.281 1.1-.281 1.726.093 1.208.281 1.733a2.82 2.82 0 0 0 .875 1.259c.397.315.895.473 1.496.473zm10.84 1.604c-.951 0-1.769-.215-2.455-.645s-1.206-1.034-1.572-1.797-.55-1.636-.55-2.62c0-.998.187-1.877.562-2.64s.904-1.366 1.586-1.796 1.485-.646 2.409-.646c.746 0 1.411.138 1.995.415s1.054.657 1.412 1.151.578 1.072.646 1.732h-1.86c-.102-.46-.337-.856-.703-1.189s-.848-.498-1.458-.498c-.532 0-.999.14-1.4.422-.396.277-.705.673-.926 1.189-.222.511-.333 1.116-.333 1.815 0 .716.109 1.334.326 1.854s.524.922.921 1.208.871.428 1.412.428c.363 0 .691-.066.985-.198a2.02 2.02 0 0 0 .748-.582c.204-.251.347-.554.428-.908h1.86c-.068.635-.275 1.202-.62 1.701s-.808.89-1.387 1.176-1.251.428-2.026.428zm7.95-2.876l4.327-7.14h2.058V204h-1.873v-7.146L143.53 204h-2.077v-9.818h1.873v7.14zm8.181 2.678l-.006-1.656h.352c.272 0 .5-.057.684-.172s.34-.32.46-.601.211-.669.275-1.163a22.17 22.17 0 0 0 .14-1.88l.173-4.346h6.852V204h-1.873v-8.169h-3.209l-.153 3.337c-.038.809-.121 1.517-.249 2.122s-.305 1.11-.544 1.515-.545.701-.92.901-.831.294-1.368.294h-.614zm14.336.217c-.622 0-1.184-.115-1.687-.345a2.84 2.84 0 0 1-1.196-1.016c-.289-.443-.434-.987-.434-1.63 0-.554.106-1.01.319-1.368a2.36 2.36 0 0 1 .863-.85c.362-.209.767-.367 1.215-.473a11.85 11.85 0 0 1 1.368-.243l1.431-.166c.367-.047.633-.122.799-.224s.25-.268.25-.499v-.044c0-.559-.158-.991-.473-1.298s-.776-.46-1.394-.46c-.643 0-1.15.143-1.521.428s-.62.595-.761.94l-1.796-.409c.213-.597.524-1.078.933-1.445.414-.371.889-.639 1.426-.805s1.101-.256 1.694-.256c.392 0 .807.047 1.246.141a3.63 3.63 0 0 1 1.24.498c.388.243.705.59.953 1.042s.37 1.029.37 1.745V204h-1.866v-1.342h-.077a2.7 2.7 0 0 1-.556.728c-.247.239-.565.437-.952.595s-.853.236-1.394.236zm.416-1.534c.528 0 .98-.104 1.355-.313a2.2 2.2 0 0 0 .863-.818c.2-.341.3-.705.3-1.093v-1.266c-.068.068-.2.132-.396.192a6.34 6.34 0 0 1-.659.147l-.722.109-.588.076a4.73 4.73 0 0 0-1.016.237c-.303.111-.546.27-.729.479s-.268.478-.268.818c0 .473.174.831.524 1.074s.795.358 1.336.358zm13.629-4.417v1.656h-5.318v-1.656h5.318zm-4.781-4.084V204h-1.873v-9.818h1.873zm6.117 0V204h-1.866v-9.818h1.866zm9.211 4.084v1.656h-5.318v-1.656h5.318zm-4.781-4.084V204h-1.873v-9.818h1.873zm6.117 0V204h-1.867v-9.818h1.867zm8.412 9.818v-8.188h-2.352c-.559 0-.993.13-1.304.39s-.467.601-.467 1.022.143.755.428 1.01.695.378 1.215.378h3.036v1.546h-3.036c-.725 0-1.351-.119-1.879-.358s-.929-.586-1.215-1.029-.422-.967-.422-1.572c0-.618.145-1.151.435-1.598s.714-.801 1.259-1.048c.55-.248 1.2-.371 1.95-.371h4.148V204h-1.796zm-6.443 0l2.767-4.96h1.956l-2.767 4.96h-1.956z" fill="#3685ff"/><path d="M221.904 200.563a1.2 1.2 0 0 0 .358.622c.18.166.407.272.649.306s.489-.008.708-.119a1.2 1.2 0 0 0 .513-.501l2.09-3.093 4.907 4.907a1.06 1.06 0 0 0 .754.313c.141 0 .279-.028.409-.082a1.06 1.06 0 0 0 .346-.231l1.047-1.047a1.06 1.06 0 0 0 .231-.346c.054-.13.082-.268.082-.409a1.06 1.06 0 0 0-.313-.754l-4.907-4.907 3.113-2.09c.216-.116.39-.295.501-.514a1.2 1.2 0 0 0-.188-1.356 1.2 1.2 0 0 0-.622-.358L218 187l3.904 13.563z" stroke="#000" stroke-width="2" stroke-linejoin="round"/></svg>