<svg xmlns="http://www.w3.org/2000/svg" width="34" height="34" fill="none"><path fill-rule="evenodd" d="M10.416 16.156V3.489c.01-.108.068-.312.221-.481.133-.147.395-.336.96-.336h13.32v4.951.005.004l-.002.032-.003.062c-.006.232.049.575.307.872.279.322.671.447 1.052.447h4.935v21.456a1.13 1.13 0 0 1-.195.538c-.1.136-.248.257-.571.257H14.81c1.733-1.384 2.914-3.43 3.16-5.754h10.959a.96.96 0 0 0 .959-.959.96.96 0 0 0-.959-.959H17.959c-.162-1.379-.654-2.657-1.394-3.754h11.183a.96.96 0 0 0 .959-.959.96.96 0 0 0-.959-.959H15.174a.96.96 0 0 0-.317.054c-1.24-1.005-2.768-1.669-4.441-1.849zm-1.828-.002V3.436l.001-.023c.023-.464.211-1.098.689-1.629.506-.561 1.276-.94 2.318-.94h14.051a1.54 1.54 0 0 1 1.119.482l5.841 6.166c.272.287.423.667.423 1.063v21.998l-.001.023c-.021.418-.164 1.021-.549 1.544-.415.565-1.092 1.003-2.044 1.003H10.244l-.75.032c-4.708 0-8.525-3.817-8.525-8.525 0-4.402 3.337-8.025 7.619-8.477zm18.156-8.937V3.961l3.085 3.256h-3.085zm-12.751 5.062a.96.96 0 0 0-.959.959.96.96 0 0 0 .959.959h13.754a.96.96 0 0 0 .959-.959.96.96 0 0 0-.959-.959H13.993zm2.113 12.353c0 3.652-2.961 6.613-6.613 6.613s-6.613-2.961-6.613-6.613 2.961-6.613 6.613-6.613 6.613 2.961 6.613 6.613zm-9.763-3.35a.64.64 0 0 1 .904 0l2.361 2.361 2.362-2.361a.64.64 0 0 1 .904 0 .64.64 0 0 1 0 .904l-2.361 2.361 2.361 2.361a.64.64 0 0 1 0 .904.64.64 0 0 1-.904 0l-2.362-2.361-2.361 2.361a.64.64 0 0 1-.904 0 .64.64 0 0 1 0-.904l2.361-2.361-2.361-2.361a.64.64 0 0 1 0-.904z" fill="#8fa3b3"/></svg>