<svg xmlns="http://www.w3.org/2000/svg" width="187" height="111" fill="none"><g filter="url(#A)"><rect x="3.963" width="179.393" height="103.086" rx="5.299" fill="#fff" shape-rendering="crispEdges"/><path d="M22.51 11.923a1.99 1.99 0 0 1 1.405.582c.373.373.582.878.582 1.405v3.974c0 .527-.209 1.033-.582 1.405s-.878.582-1.405.582-1.032-.209-1.405-.582-.582-.878-.582-1.405V13.91c0-.527.209-1.032.582-1.405s.878-.582 1.405-.582zm4.637 5.961a4.64 4.64 0 0 1-3.974 4.59v2.034h-1.325v-2.034a4.64 4.64 0 0 1-3.974-4.59h1.325a3.31 3.31 0 0 0 3.312 3.312 3.31 3.31 0 0 0 3.312-3.312h1.325z" fill="#000"/><path d="M36.768 22.047v-6.491h2.791c.705 0 1.258.142 1.66.427s.603.699.603 1.243c0 .532-.192.94-.575 1.224-.383.278-.887.417-1.512.417l.167-.278c.723 0 1.277.145 1.66.436.389.284.584.702.584 1.252 0 .556-.204.992-.612 1.308-.402.309-1.001.464-1.799.464h-2.968zm.918-.733h2.031c.495 0 .866-.09 1.113-.269.253-.185.38-.467.38-.844s-.127-.652-.38-.825c-.247-.173-.618-.26-1.113-.26h-2.031v2.198zm0-2.903h1.808c.451 0 .794-.09 1.029-.269.241-.179.362-.442.362-.788 0-.352-.121-.618-.362-.798-.235-.179-.578-.269-1.029-.269h-1.808v2.124zm5.861 3.635v-4.915h.89v3.58l3.014-3.58h.807v4.915h-.89v-3.58l-3.005 3.58h-.816zm10 0l-1.901-2.393.733-.445 2.216 2.838h-1.048zm-3.561 0v-4.915h.89v4.915h-.89zm.621-2.077v-.76h1.623v.76h-1.623zm1.845-.278l-.825-.111 1.883-2.448h.955l-2.012 2.56zm5.018 2.411c-.494 0-.933-.108-1.317-.325s-.686-.513-.909-.89c-.223-.383-.334-.816-.334-1.298 0-.488.111-.921.334-1.298a2.35 2.35 0 0 1 .909-.881c.383-.216.822-.325 1.317-.325.489 0 .924.108 1.308.325.39.21.692.504.909.881.223.371.334.804.334 1.298 0 .488-.111.921-.334 1.298a2.33 2.33 0 0 1-.909.89c-.383.216-.819.325-1.308.325zm0-.779c.315 0 .597-.071.844-.213.253-.142.451-.343.593-.603.142-.266.213-.572.213-.918 0-.352-.071-.655-.213-.909-.142-.26-.34-.461-.593-.603-.247-.142-.529-.213-.844-.213s-.597.071-.844.213a1.59 1.59 0 0 0-.594.603c-.148.254-.223.556-.223.909 0 .346.074.652.223.918a1.59 1.59 0 0 0 .594.603c.247.142.528.213.844.213zm6.442.779c-.408 0-.782-.093-1.122-.278-.334-.192-.603-.473-.807-.844-.198-.371-.297-.835-.297-1.391s.096-1.02.288-1.391c.198-.371.464-.649.797-.835.34-.185.72-.278 1.141-.278a2.55 2.55 0 0 1 1.28.315 2.32 2.32 0 0 1 .881.881c.216.371.325.807.325 1.308s-.108.94-.325 1.317-.51.671-.881.881a2.55 2.55 0 0 1-1.28.315zm-2.606 1.743v-6.714h.853v1.326l-.056 1.141.093 1.141v3.107h-.89zm2.532-2.522c.315 0 .597-.071.844-.213.253-.142.451-.343.593-.603.148-.266.223-.572.223-.918 0-.352-.074-.655-.223-.909-.142-.26-.34-.461-.593-.603-.247-.142-.529-.213-.844-.213-.309 0-.59.071-.844.213a1.59 1.59 0 0 0-.593.603c-.142.254-.213.556-.213.909 0 .346.071.652.213.918.148.26.346.461.593.603.254.142.535.213.844.213zm3.853.723v-4.915h.89v3.58l3.014-3.58h.807v4.915h-.89v-3.58l-3.005 3.58h-.816zm8.581.056c-.501 0-.949-.108-1.345-.325-.389-.216-.695-.513-.918-.89s-.334-.81-.334-1.298.111-.921.334-1.298a2.33 2.33 0 0 1 .918-.881c.396-.216.844-.325 1.345-.325.445 0 .841.09 1.187.269a1.84 1.84 0 0 1 .816.779l-.677.436c-.161-.241-.359-.417-.594-.529a1.6 1.6 0 0 0-.742-.176c-.322 0-.609.071-.862.213a1.57 1.57 0 0 0-.603.603c-.148.254-.222.556-.222.909a1.82 1.82 0 0 0 .222.918 1.57 1.57 0 0 0 .603.603c.253.142.541.213.862.213.266 0 .513-.056.742-.167.235-.117.433-.297.594-.538l.677.427c-.192.34-.464.603-.816.788-.346.179-.742.269-1.187.269zm4.066-.056v-4.368l.223.232h-2.022v-.779h4.488v.779h-2.012l.213-.232v4.368h-.89zm5.487.056c-.495 0-.934-.108-1.317-.325s-.686-.513-.909-.89c-.223-.383-.334-.816-.334-1.298 0-.488.111-.921.334-1.298s.525-.671.909-.881c.383-.216.822-.325 1.317-.325.488 0 .924.108 1.308.325.389.21.692.504.909.881.223.371.334.804.334 1.298 0 .488-.111.921-.334 1.298a2.33 2.33 0 0 1-.909.89c-.383.216-.819.325-1.308.325zm0-.779c.315 0 .597-.071.844-.213.254-.142.451-.343.594-.603.142-.266.213-.572.213-.918 0-.352-.071-.655-.213-.909-.142-.26-.34-.461-.594-.603-.247-.142-.529-.213-.844-.213s-.597.071-.844.213a1.59 1.59 0 0 0-.594.603c-.148.254-.222.556-.222.909 0 .346.074.652.222.918.148.26.346.461.594.603s.529.213.844.213zm3.836.723v-4.915h2.281c.575 0 1.026.111 1.354.334a1.04 1.04 0 0 1 .501.927 1.08 1.08 0 0 1-.473.937c-.309.216-.72.325-1.233.325l.139-.241c.587 0 1.023.108 1.308.325s.427.535.427.955a1.18 1.18 0 0 1-.482 1.002c-.315.235-.801.352-1.456.352h-2.365zm.872-.686h1.428c.371 0 .649-.056.835-.167.186-.117.278-.303.278-.556 0-.26-.087-.448-.26-.566-.167-.124-.433-.186-.797-.186h-1.484v1.475zm0-2.114h1.335c.34 0 .597-.062.77-.186.179-.13.269-.309.269-.538 0-.235-.09-.411-.269-.529-.173-.117-.43-.176-.77-.176h-1.335v1.428zm5.075 4.655c-.235 0-.464-.04-.686-.121-.223-.074-.414-.185-.575-.334l.38-.668c.124.117.26.207.408.269s.306.093.473.093c.216 0 .396-.056.538-.167s.275-.309.399-.593l.306-.677.093-.111 1.929-4.461h.872l-2.383 5.406c-.142.346-.303.618-.482.816a1.46 1.46 0 0 1-.575.417 1.81 1.81 0 0 1-.695.13zm1.168-1.697l-2.244-5.073h.927l1.91 4.377-.594.695zm3.879-.158v-4.915h2.282c.575 0 1.026.111 1.354.334a1.04 1.04 0 0 1 .5.927 1.08 1.08 0 0 1-.472.937c-.31.216-.721.325-1.234.325l.139-.241c.588 0 1.023.108 1.308.325s.426.535.426.955c0 .427-.16.76-.482 1.002-.315.235-.8.352-1.456.352h-2.365zm.872-.686h1.428c.371 0 .649-.056.835-.167.185-.117.278-.303.278-.556 0-.26-.086-.448-.26-.566-.166-.124-.432-.186-.797-.186h-1.484v1.475zm0-2.114h1.336c.34 0 .596-.062.769-.186.18-.13.269-.309.269-.538 0-.235-.089-.411-.269-.529-.173-.117-.429-.176-.769-.176h-1.336v1.428zm7.839 2.801v-1.039l-.047-.195v-1.771c0-.377-.111-.668-.333-.872-.217-.21-.545-.315-.983-.315-.291 0-.575.049-.854.148-.278.093-.513.22-.704.38l-.371-.668c.253-.204.556-.358.908-.464a3.77 3.77 0 0 1 1.123-.167c.673 0 1.193.164 1.557.492s.548.828.548 1.502v2.968h-.844zm-1.614.056a2.35 2.35 0 0 1-.964-.185c-.272-.124-.483-.294-.631-.51-.148-.223-.222-.473-.222-.751 0-.266.061-.507.185-.723.13-.216.337-.39.621-.519.291-.13.68-.195 1.169-.195h1.558v.64h-1.521c-.445 0-.745.074-.9.223a.72.72 0 0 0-.231.538.7.7 0 0 0 .287.584c.192.142.457.213.798.213a1.66 1.66 0 0 0 .871-.223c.254-.148.436-.365.547-.649l.177.612c-.118.291-.325.522-.622.695-.297.167-.671.25-1.122.25zm5.034-.056v-4.368l.223.232h-2.022v-.779h4.489v.779h-2.013l.214-.232v4.368h-.891zm3.6 0v-4.915h.89v3.58l3.014-3.58h.807v4.915h-.89v-3.58l-3.005 3.58h-.816zm8.929 0v-4.915h.919l2.114 3.635h-.371l2.17-3.635h.835v4.915h-.807v-3.913l.148.083-1.984 3.274h-.39l-1.994-3.338.177-.037v3.932h-.817zm7.399 0v-4.915h.891v4.915h-.891zm.445-5.861c-.173 0-.318-.056-.435-.167a.55.55 0 0 1-.167-.408c0-.167.055-.306.167-.417.117-.111.262-.167.435-.167s.316.056.427.167a.51.51 0 0 1 .176.399c0 .167-.055.309-.167.427-.111.111-.256.167-.436.167zm5.743 5.861l-1.901-2.393.732-.445 2.217 2.838h-1.048zm-3.561 0v-4.915h.89v4.915h-.89zm.621-2.077v-.76h1.623v.76h-1.623zm1.845-.278l-.825-.111 1.883-2.448h.955l-2.013 2.56zm5.682 2.411c-.408 0-.782-.093-1.122-.278-.334-.192-.603-.473-.807-.844-.198-.371-.297-.835-.297-1.391s.096-1.02.288-1.391c.198-.371.463-.649.797-.835.34-.185.72-.278 1.141-.278.482 0 .909.105 1.28.315s.664.504.881.881c.216.371.324.807.324 1.308s-.108.94-.324 1.317a2.32 2.32 0 0 1-.881.881c-.371.21-.798.315-1.28.315zm-2.606 1.743v-6.714h.853v1.326l-.055 1.141.092 1.141v3.107h-.89zm2.532-2.522c.315 0 .596-.071.844-.213.253-.142.451-.343.593-.603.148-.266.223-.572.223-.918 0-.352-.075-.655-.223-.909-.142-.26-.34-.461-.593-.603-.248-.142-.529-.213-.844-.213-.309 0-.591.071-.844.213-.247.142-.445.343-.594.603-.142.254-.213.556-.213.909 0 .346.071.652.213.918.149.26.347.461.594.603.253.142.535.213.844.213zm5.958.779a2.63 2.63 0 0 1-1.317-.325 2.42 2.42 0 0 1-.909-.89c-.223-.383-.334-.816-.334-1.298 0-.488.111-.921.334-1.298s.526-.671.909-.881a2.63 2.63 0 0 1 1.317-.325c.488 0 .924.108 1.307.325a2.26 2.26 0 0 1 .909.881c.223.371.334.804.334 1.298 0 .488-.111.921-.334 1.298-.216.377-.519.674-.909.89-.383.216-.819.325-1.307.325zm0-.779c.315 0 .596-.071.844-.213s.451-.343.593-.603c.142-.266.213-.572.213-.918 0-.352-.071-.655-.213-.909-.142-.26-.34-.461-.593-.603s-.529-.213-.844-.213a1.66 1.66 0 0 0-.844.213c-.247.142-.445.343-.594.603-.148.254-.222.556-.222.909 0 .346.074.652.222.918.149.26.347.461.594.603a1.66 1.66 0 0 0 .844.213zm6.766.798h-.065-.093-.055c-1.008-.012-1.79-.235-2.347-.668-.556-.439-.834-1.063-.834-1.873 0-.804.278-1.419.834-1.845.563-.433 1.354-.652 2.374-.658h.056.084.055c1.033 0 1.833.216 2.402.649.575.433.862 1.051.862 1.855 0 .816-.287 1.444-.862 1.882s-1.379.659-2.411.659zm-.019-.779c.538 0 .983-.068 1.336-.204.358-.136.627-.334.807-.594s.268-.581.268-.964c0-.377-.089-.692-.268-.946s-.449-.445-.807-.575c-.353-.13-.798-.195-1.336-.195h-.074-.065c-.525 0-.964.068-1.317.204-.346.13-.605.322-.779.575s-.259.566-.259.937c0 .377.086.695.259.955.18.26.442.457.789.593s.788.207 1.307.213h.065.074zm-.482 2.504v-8.68h.872v8.68h-.872zm7.138-1.743a2.63 2.63 0 0 1-1.317-.325 2.42 2.42 0 0 1-.909-.89c-.222-.383-.334-.816-.334-1.298 0-.488.112-.921.334-1.298s.526-.671.909-.881a2.63 2.63 0 0 1 1.317-.325c.488 0 .924.108 1.307.325a2.26 2.26 0 0 1 .909.881c.223.371.334.804.334 1.298 0 .488-.111.921-.334 1.298-.216.377-.519.674-.909.89-.383.216-.819.325-1.307.325zm0-.779c.315 0 .596-.071.844-.213s.451-.343.593-.603a1.92 1.92 0 0 0 .214-.918c0-.352-.072-.655-.214-.909-.142-.26-.34-.461-.593-.603s-.529-.213-.844-.213-.597.071-.844.213-.445.343-.594.603c-.148.254-.222.556-.222.909 0 .346.074.652.222.918.149.26.347.461.594.603s.529.213.844.213zm3.836.723v-4.915h.89v2.087h2.8v-2.087h.891v4.915h-.891v-2.059h-2.8v2.059h-.89z" fill="#0a0a0a"/><g clip-path="url(#B)"><path d="M28.825 41.885l-2.782 1.568v-2.164c0-.234-.093-.459-.259-.625s-.39-.259-.624-.259h-7.949c-.468 0-.918.186-1.249.517s-.517.781-.517 1.249v7.066c0 .469.186.918.517 1.249s.781.517 1.249.517h7.949c.234 0 .459-.093.624-.259s.259-.39.259-.624v-2.173l2.782 1.568c.071.047.154.074.239.078s.17-.013.246-.052.141-.096.187-.168.074-.154.078-.239v-6.876c-.005-.085-.033-.167-.08-.237s-.112-.128-.188-.166-.161-.055-.245-.05-.167.032-.238.078z" fill="#000"/></g><path d="M36.768 49.205v-6.492h2.791c.705 0 1.258.142 1.66.427s.603.699.603 1.243c0 .532-.192.94-.575 1.224-.383.278-.887.417-1.512.417l.167-.278c.723 0 1.277.145 1.66.436.389.284.584.702.584 1.252 0 .556-.204.992-.612 1.308-.402.309-1.001.464-1.799.464h-2.968zm.918-.733h2.031c.495 0 .866-.09 1.113-.269.253-.185.38-.467.38-.844s-.127-.652-.38-.825c-.247-.173-.618-.26-1.113-.26h-2.031v2.198zm0-2.903h1.808c.451 0 .794-.09 1.029-.269.241-.179.362-.442.362-.788 0-.352-.121-.618-.362-.797-.235-.179-.578-.269-1.029-.269h-1.808v2.124zm5.861 3.635V44.29h.89v3.58l3.014-3.58h.807v4.915h-.89v-3.58l-3.005 3.58h-.816zm10 0l-1.901-2.393.733-.445 2.216 2.838h-1.048zm-3.561 0V44.29h.89v4.915h-.89zm.621-2.077v-.76h1.623v.76h-1.623zm1.845-.278l-.825-.111 1.883-2.448h.955l-2.012 2.56zm5.018 2.411c-.494 0-.933-.108-1.317-.325s-.686-.513-.909-.89c-.223-.383-.334-.816-.334-1.298 0-.488.111-.921.334-1.298a2.35 2.35 0 0 1 .909-.881c.383-.216.822-.325 1.317-.325.489 0 .924.108 1.308.325.39.21.692.504.909.881.223.371.334.804.334 1.298 0 .488-.111.921-.334 1.298a2.33 2.33 0 0 1-.909.89c-.383.216-.819.325-1.308.325zm0-.779c.315 0 .597-.071.844-.213.253-.142.451-.343.593-.603.142-.266.213-.572.213-.918 0-.352-.071-.655-.213-.909-.142-.26-.34-.461-.593-.603-.247-.142-.529-.213-.844-.213s-.597.071-.844.213a1.59 1.59 0 0 0-.594.603c-.148.254-.223.556-.223.909 0 .346.074.652.223.918a1.59 1.59 0 0 0 .594.603c.247.142.528.213.844.213zm6.442.779c-.408 0-.782-.093-1.122-.278-.334-.192-.603-.473-.807-.844-.198-.371-.297-.835-.297-1.391s.096-1.02.288-1.391c.198-.371.464-.649.797-.835.34-.185.72-.278 1.141-.278a2.55 2.55 0 0 1 1.28.315 2.32 2.32 0 0 1 .881.881c.216.371.325.807.325 1.308s-.108.94-.325 1.317-.51.671-.881.881a2.55 2.55 0 0 1-1.28.315zm-2.606 1.743V44.29h.853v1.326l-.056 1.141.093 1.141v3.107h-.89zm2.532-2.522c.315 0 .597-.071.844-.213.253-.142.451-.343.593-.603.148-.266.223-.572.223-.918 0-.352-.074-.655-.223-.909-.142-.26-.34-.461-.593-.603-.247-.142-.529-.213-.844-.213-.309 0-.59.071-.844.213a1.59 1.59 0 0 0-.593.603c-.142.254-.213.556-.213.909 0 .346.071.652.213.918a1.59 1.59 0 0 0 .593.603c.254.142.535.213.844.213zm3.853.723V44.29h.89v3.58l3.014-3.58h.807v4.915h-.89v-3.58l-3.005 3.58h-.816zm8.581.056c-.501 0-.949-.108-1.345-.325-.389-.216-.695-.513-.918-.89s-.334-.81-.334-1.298.111-.921.334-1.298a2.33 2.33 0 0 1 .918-.881c.396-.216.844-.325 1.345-.325.445 0 .841.09 1.187.269a1.84 1.84 0 0 1 .816.779l-.677.436c-.161-.241-.359-.417-.594-.529a1.6 1.6 0 0 0-.742-.176c-.322 0-.609.071-.862.213a1.57 1.57 0 0 0-.603.603c-.148.254-.222.556-.222.909a1.82 1.82 0 0 0 .222.918 1.57 1.57 0 0 0 .603.603c.253.142.541.213.862.213.266 0 .513-.056.742-.167.235-.117.433-.297.594-.538l.677.426c-.192.34-.464.603-.816.788-.346.179-.742.269-1.187.269zm4.066-.056v-4.368l.223.232h-2.022v-.779h4.488v.779h-2.012l.213-.232v4.368h-.89zm5.487.056c-.495 0-.934-.108-1.317-.325s-.686-.513-.909-.89c-.223-.383-.334-.816-.334-1.298 0-.488.111-.921.334-1.298s.525-.671.909-.881c.383-.216.822-.325 1.317-.325.488 0 .924.108 1.308.325.389.21.692.504.909.881.223.371.334.804.334 1.298 0 .488-.111.921-.334 1.298a2.33 2.33 0 0 1-.909.89c-.383.216-.819.325-1.308.325zm0-.779c.315 0 .597-.071.844-.213.254-.142.451-.343.594-.603.142-.266.213-.572.213-.918 0-.352-.071-.655-.213-.909-.142-.26-.34-.461-.594-.603-.247-.142-.529-.213-.844-.213s-.597.071-.844.213a1.59 1.59 0 0 0-.594.603c-.148.254-.222.556-.222.909 0 .346.074.652.222.918a1.59 1.59 0 0 0 .594.603c.247.142.529.213.844.213zm3.836.723V44.29h2.281c.575 0 1.026.111 1.354.334a1.04 1.04 0 0 1 .501.927 1.08 1.08 0 0 1-.473.937c-.309.216-.72.325-1.233.325l.139-.241c.587 0 1.023.108 1.308.325s.427.535.427.955a1.18 1.18 0 0 1-.482 1.002c-.315.235-.801.352-1.456.352h-2.365zm.872-.686h1.428c.371 0 .649-.056.835-.167.186-.117.278-.303.278-.556 0-.26-.087-.448-.26-.566-.167-.124-.433-.185-.797-.185h-1.484v1.474zm0-2.114h1.335c.34 0 .597-.062.77-.185.179-.13.269-.309.269-.538 0-.235-.09-.411-.269-.529-.173-.117-.43-.176-.77-.176h-1.335v1.428zm5.075 4.655c-.235 0-.464-.04-.686-.121-.223-.074-.414-.185-.575-.334l.38-.668c.124.117.26.207.408.269s.306.093.473.093c.216 0 .396-.056.538-.167s.275-.309.399-.593l.306-.677.093-.111 1.929-4.461h.872l-2.383 5.406c-.142.346-.303.618-.482.816a1.46 1.46 0 0 1-.575.417 1.81 1.81 0 0 1-.695.13zm1.168-1.697l-2.244-5.073h.927l1.91 4.377-.594.695zm3.879-.158V44.29h2.282c.575 0 1.026.111 1.354.334a1.04 1.04 0 0 1 .5.927 1.08 1.08 0 0 1-.472.937c-.31.216-.721.325-1.234.325l.139-.241c.588 0 1.023.108 1.308.325s.426.535.426.955c0 .427-.16.761-.482 1.002-.315.235-.8.352-1.456.352h-2.365zm.872-.686h1.428c.371 0 .649-.056.835-.167.185-.117.278-.303.278-.556 0-.26-.086-.448-.26-.566-.166-.124-.432-.185-.797-.185h-1.484v1.474zm0-2.114h1.336c.34 0 .596-.062.769-.185.18-.13.269-.309.269-.538 0-.235-.089-.411-.269-.529-.173-.117-.429-.176-.769-.176h-1.336v1.428zm7.839 2.801v-1.039l-.047-.195v-1.771c0-.377-.111-.668-.333-.872-.217-.21-.545-.315-.983-.315-.291 0-.575.05-.854.148-.278.093-.513.22-.704.38l-.371-.668c.253-.204.556-.358.908-.464a3.77 3.77 0 0 1 1.123-.167c.673 0 1.193.164 1.557.492s.548.828.548 1.502v2.968h-.844zm-1.614.056a2.35 2.35 0 0 1-.964-.185c-.272-.124-.483-.294-.631-.51-.148-.223-.222-.473-.222-.751 0-.266.061-.507.185-.723.13-.216.337-.389.621-.519.291-.13.68-.195 1.169-.195h1.558v.64h-1.521c-.445 0-.745.074-.9.223a.72.72 0 0 0-.231.538.7.7 0 0 0 .287.584c.192.142.457.213.798.213a1.66 1.66 0 0 0 .871-.223c.254-.148.436-.365.547-.649l.177.612c-.118.291-.325.522-.622.696-.297.167-.671.25-1.122.25zm5.034-.056v-4.368l.223.232h-2.022v-.779h4.489v.779h-2.013l.214-.232v4.368h-.891zm3.6 0V44.29h.89v3.58l3.014-3.58h.807v4.915h-.89v-3.58l-3.005 3.58h-.816zm12.49 0l-1.901-2.393.733-.445 2.216 2.838h-1.048zm-3.561 0V44.29h.891v4.915h-.891zm.622-2.077v-.76h1.623v.76h-1.623zm1.845-.278l-.825-.111 1.882-2.448h.956l-2.013 2.56zm5.999 2.355v-1.039l-.046-.195v-1.771c0-.377-.111-.668-.334-.872-.216-.21-.544-.315-.983-.315-.291 0-.575.05-.853.148-.278.093-.513.22-.705.38l-.371-.668a2.63 2.63 0 0 1 .909-.464c.358-.111.732-.167 1.122-.167.674 0 1.193.164 1.558.492s.547.828.547 1.502v2.968h-.844zm-1.613.056c-.365 0-.687-.062-.965-.185-.272-.124-.482-.294-.63-.51a1.32 1.32 0 0 1-.223-.751c0-.266.062-.507.185-.723.13-.216.337-.389.622-.519s.68-.195 1.168-.195h1.558v.64h-1.521c-.445 0-.745.074-.899.223s-.232.328-.232.538c0 .241.096.436.287.584.192.142.458.213.798.213.334 0 .624-.074.872-.223a1.26 1.26 0 0 0 .547-.649l.176.612c-.117.291-.325.522-.621.696-.297.167-.671.25-1.122.25zm4.06-.056V44.29h.918l2.115 3.635h-.371l2.17-3.635h.834v4.915h-.807v-3.913l.149.083-1.985 3.274h-.389l-1.994-3.338.176-.037v3.932h-.816zm9.588.056c-.526 0-.99-.108-1.391-.325a2.38 2.38 0 0 1-.928-.89c-.216-.377-.324-.81-.324-1.298s.105-.921.315-1.298c.216-.377.51-.671.881-.881.377-.216.801-.325 1.27-.325.476 0 .897.105 1.262.315s.649.507.853.89c.21.377.315.819.315 1.326 0 .037-.003.08-.009.13 0 .05-.003.096-.009.139h-4.183v-.64h3.719l-.362.223c.006-.315-.059-.597-.195-.844s-.324-.439-.565-.575c-.235-.142-.51-.213-.826-.213-.309 0-.584.071-.825.213-.241.136-.43.331-.566.584-.136.247-.204.532-.204.853v.148c0 .328.075.621.223.881a1.6 1.6 0 0 0 .64.594c.272.142.584.213.936.213.291 0 .554-.049.789-.148.241-.099.451-.247.63-.445l.492.575a2.15 2.15 0 0 1-.835.593c-.328.136-.695.204-1.103.204zm6.24 0c-.408 0-.782-.093-1.122-.278-.334-.192-.603-.473-.807-.844-.198-.371-.297-.835-.297-1.391s.096-1.02.288-1.391c.198-.371.464-.649.797-.835.34-.185.721-.278 1.141-.278.482 0 .909.105 1.28.315s.664.504.881.881c.216.371.324.807.324 1.308s-.108.94-.324 1.317a2.32 2.32 0 0 1-.881.881c-.371.21-.798.315-1.28.315zm-2.606 1.743V44.29h.853v1.326l-.055 1.141.092 1.141v3.107h-.89zm2.532-2.522c.315 0 .596-.071.844-.213.253-.142.451-.343.593-.603.149-.266.223-.572.223-.918 0-.352-.074-.655-.223-.909-.142-.26-.34-.461-.593-.603-.248-.142-.529-.213-.844-.213-.309 0-.591.071-.844.213-.247.142-.445.343-.594.603-.142.254-.213.556-.213.909 0 .346.071.652.213.918.149.26.347.461.594.603.253.142.535.213.844.213zm3.967 2.578c-.235 0-.463-.04-.686-.121a1.57 1.57 0 0 1-.575-.334l.38-.668c.124.117.26.207.408.269a1.22 1.22 0 0 0 .473.093c.217 0 .396-.056.538-.167s.275-.309.399-.593l.306-.677.093-.111 1.929-4.461h.871l-2.383 5.406c-.142.346-.303.618-.482.816a1.46 1.46 0 0 1-.575.417 1.81 1.81 0 0 1-.696.13zm1.169-1.697l-2.244-5.073h.927l1.91 4.377-.593.695z" fill="#0a0a0a"/><path d="M46.909 82.427v-5.249h-2.847l-.046 1.363-.093 1.317c-.037.42-.093.801-.167 1.141a2.61 2.61 0 0 1-.315.825c-.13.216-.297.349-.501.399l-1.002-.167c.241.019.439-.062.593-.241.161-.185.284-.442.371-.77.093-.334.161-.72.204-1.159l.093-1.428.065-2.087h4.563v6.056h-.918zm-5.202 1.855l.009-2.226h7.066v2.226h-.862v-1.419h-5.342l-.009 1.419h-.862zm10.192-1.363c-.495 0-.934-.108-1.317-.325s-.686-.513-.909-.89c-.223-.383-.334-.816-.334-1.298 0-.488.111-.921.334-1.298s.525-.671.909-.881c.383-.216.822-.325 1.317-.325.488 0 .924.108 1.308.325.39.21.692.504.909.881.223.371.334.804.334 1.298 0 .488-.111.921-.334 1.298a2.33 2.33 0 0 1-.909.89c-.383.216-.819.325-1.308.325zm0-.779c.315 0 .597-.071.844-.213.253-.142.451-.343.593-.603.142-.266.213-.572.213-.918 0-.352-.071-.655-.213-.909-.142-.26-.34-.461-.593-.603-.247-.142-.529-.213-.844-.213s-.597.071-.844.213a1.59 1.59 0 0 0-.593.603c-.148.254-.222.556-.222.909 0 .346.074.652.222.918a1.59 1.59 0 0 0 .593.603c.247.142.529.213.844.213zm5.219.788c.433 0 .816-.062 1.15-.186.34-.13.609-.306.807-.529a1.17 1.17 0 0 0 .297-.788c0-.371-.158-.665-.473-.881s-.748-.325-1.298-.325l-.037.213c.322 0 .606-.052.853-.158s.445-.247.593-.427a.98.98 0 0 0 .223-.631c0-.278-.099-.519-.297-.723-.192-.204-.454-.359-.788-.464-.334-.111-.714-.161-1.141-.148-.284.006-.572.05-.863.13-.284.074-.575.182-.872.325l.241.695c.266-.13.525-.226.779-.287a3.68 3.68 0 0 1 .76-.102c.253 0 .473.028.658.084.192.056.34.136.445.241a.52.52 0 0 1 .158.38.53.53 0 0 1-.139.362c-.087.099-.21.173-.371.222a1.93 1.93 0 0 1-.566.074h-.835v.64h.89c.365 0 .649.062.853.186s.306.3.306.529a.62.62 0 0 1-.167.427 1.13 1.13 0 0 1-.482.278c-.204.068-.448.102-.733.102-.309 0-.615-.04-.918-.121a3.09 3.09 0 0 1-.807-.352l-.269.677a3.46 3.46 0 0 0 .946.417c.359.093.723.139 1.094.139zm3.607-.065v-4.915h2.281c.575 0 1.026.111 1.354.334a1.04 1.04 0 0 1 .501.927 1.08 1.08 0 0 1-.473.937c-.309.216-.72.325-1.233.325l.139-.241c.587 0 1.023.108 1.308.325s.427.535.427.955a1.18 1.18 0 0 1-.482 1.002c-.315.235-.801.352-1.456.352h-2.365zm.872-.686h1.428c.371 0 .649-.056.835-.167.186-.117.278-.303.278-.556 0-.26-.087-.448-.26-.566-.167-.124-.433-.185-.797-.185h-1.484v1.474zm0-2.114h1.335c.34 0 .597-.062.77-.186.179-.13.269-.309.269-.538 0-.235-.09-.411-.269-.528-.173-.118-.43-.176-.77-.176h-1.335v1.428zm6.93 2.856c-.495 0-.934-.108-1.317-.325s-.686-.513-.909-.89c-.223-.383-.334-.816-.334-1.298 0-.488.111-.921.334-1.298a2.35 2.35 0 0 1 .909-.881c.383-.216.822-.325 1.317-.325.488 0 .924.108 1.308.325.389.21.692.504.909.881.223.371.334.804.334 1.298 0 .488-.111.921-.334 1.298a2.33 2.33 0 0 1-.909.89c-.383.216-.819.325-1.308.325zm0-.779c.315 0 .597-.071.844-.213.253-.142.451-.343.593-.603.142-.266.213-.572.213-.918 0-.352-.071-.655-.213-.909-.142-.26-.34-.461-.593-.603-.247-.142-.529-.213-.844-.213s-.597.071-.844.213-.445.343-.593.603c-.148.254-.223.556-.223.909 0 .346.074.652.223.918a1.59 1.59 0 0 0 .593.603c.247.142.529.213.844.213zm2.983.714l.056-.751.12.018c.037.006.071.009.102.009.198 0 .352-.068.464-.204.117-.136.204-.315.26-.538.056-.229.096-.485.121-.77l.056-.853.083-1.818h3.774v4.915h-.89v-4.396l.213.26h-2.522l.204-.269-.065 1.363-.102 1.215a4.6 4.6 0 0 1-.232.992c-.099.284-.238.507-.417.668-.173.161-.399.241-.677.241-.08 0-.167-.009-.26-.028l-.287-.056zm6.757.009v-4.915h.89v3.58l3.014-3.58h.807v4.915h-.89v-3.58l-3.005 3.58h-.816zm7.413 0v-4.368l.223.232h-2.022v-.779h4.488v.779h-2.012l.213-.232v4.368h-.89zm3.6 0v-4.915h.89v3.58l3.014-3.58h.807v4.915h-.89v-3.58l-3.005 3.58h-.816z" fill="#0a0a0a"/><rect x="35.462" y="66.739" width="66.248" height="25.248" rx="1.487" stroke="#000"/><path d="M115.144 82.863v-6.492h4.896v.788h-3.978v1.855h2.021c.773 0 1.36.161 1.762.482s.603.788.603 1.4c0 .631-.219 1.116-.658 1.456-.433.34-1.054.51-1.864.51h-2.782zm.918-.733h1.827c.537 0 .942-.102 1.214-.306.279-.204.418-.507.418-.909 0-.779-.544-1.168-1.632-1.168h-1.827v2.383zm4.783.723l.055-.751.121.018a.62.62 0 0 0 .102.009c.198 0 .352-.068.463-.204.118-.136.204-.315.26-.538a5.15 5.15 0 0 0 .121-.77l.055-.853.084-1.818h3.774v4.915h-.89v-4.396l.213.26h-2.522l.204-.269-.065 1.363-.102 1.215c-.05.377-.127.708-.232.992-.099.284-.238.507-.417.668-.173.161-.399.241-.677.241-.081 0-.167-.009-.26-.028a3.25 3.25 0 0 1-.287-.056zm8.862.065a2.63 2.63 0 0 1-1.317-.325c-.384-.216-.687-.513-.909-.89-.223-.383-.334-.816-.334-1.298 0-.488.111-.921.334-1.298a2.34 2.34 0 0 1 .909-.881 2.63 2.63 0 0 1 1.317-.325c.488 0 .924.108 1.307.325a2.26 2.26 0 0 1 .909.881c.222.371.334.804.334 1.298 0 .488-.112.921-.334 1.298-.216.377-.519.674-.909.89-.383.216-.819.325-1.307.325zm0-.779a1.66 1.66 0 0 0 .843-.213 1.5 1.5 0 0 0 .594-.603c.142-.266.213-.572.213-.918 0-.352-.071-.655-.213-.909a1.5 1.5 0 0 0-.594-.603 1.66 1.66 0 0 0-.843-.213 1.66 1.66 0 0 0-.844.213 1.59 1.59 0 0 0-.594.603c-.148.254-.222.556-.222.909 0 .346.074.652.222.918a1.59 1.59 0 0 0 .594.603 1.66 1.66 0 0 0 .844.213zm7.396.723l-1.901-2.393.733-.445 2.216 2.838h-1.048zm-3.561 0v-4.915h.891v4.915h-.891zm.622-2.077v-.76h1.622v.76h-1.622zm1.845-.278l-.825-.111 1.882-2.448h.955l-2.012 2.56zm3.045 4.21c-.235 0-.463-.04-.686-.121a1.57 1.57 0 0 1-.575-.334l.38-.668c.124.117.26.207.408.269a1.22 1.22 0 0 0 .473.093c.217 0 .396-.056.538-.167s.275-.309.399-.593l.306-.677.093-.111 1.929-4.461h.871l-2.383 5.406c-.142.346-.303.618-.482.816a1.46 1.46 0 0 1-.575.417 1.81 1.81 0 0 1-.696.13zm1.169-1.697l-2.244-5.073h.927l1.91 4.377-.593.695zm3.879-.158v-4.915h2.281c.575 0 1.026.111 1.354.334a1.04 1.04 0 0 1 .501.927 1.08 1.08 0 0 1-.473.937c-.309.216-.72.325-1.234.325l.14-.241c.587 0 1.023.108 1.307.325s.427.535.427.955a1.18 1.18 0 0 1-.483 1.002c-.315.235-.8.352-1.455.352h-2.365zm.872-.686h1.428c.371 0 .649-.056.834-.167.186-.117.278-.303.278-.556 0-.26-.086-.448-.259-.566-.167-.124-.433-.185-.798-.185h-1.483v1.474zm0-2.114h1.335c.34 0 .596-.062.77-.186.179-.13.269-.309.269-.538a.59.59 0 0 0-.269-.528c-.174-.118-.43-.176-.77-.176h-1.335v1.428zm7.838 2.801v-1.039l-.046-.195v-1.771c0-.377-.112-.668-.334-.872-.217-.21-.544-.315-.983-.315-.291 0-.575.05-.853.148-.279.093-.513.22-.705.38l-.371-.668c.253-.204.556-.358.909-.464.358-.111.732-.167 1.122-.167.674 0 1.193.164 1.558.492s.547.829.547 1.502v2.968h-.844zm-1.614.056c-.364 0-.686-.062-.964-.185-.272-.124-.482-.294-.631-.51-.148-.223-.222-.473-.222-.751 0-.266.062-.507.185-.723.13-.216.337-.39.622-.519.29-.13.68-.195 1.168-.195h1.558v.64h-1.521c-.445 0-.745.074-.899.223s-.232.328-.232.538c0 .241.096.436.287.584.192.142.458.213.798.213.334 0 .624-.074.872-.223.253-.148.435-.365.547-.649l.176.612c-.118.291-.325.522-.621.695-.297.167-.671.25-1.123.25zm5.035-.056v-4.368l.222.232h-2.021v-.779h4.488v.779h-2.012l.213-.232v4.368h-.89zm3.599 0v-4.915h.891v3.58l3.014-3.58h.806v4.915h-.89v-3.58l-3.005 3.58h-.816z" fill="#7c9cac"/><rect x="107.84" y="66.571" width="64.585" height="25.586" rx="1.656" stroke="#7c9cac" stroke-width=".662"/></g><path d="M100 102v-6.5c0-.828-.641-1.5-1.48-1.5-.52 0-1.52.3-1.52 1.5m-9 4.5v-8.48V100zm12 2c0 4-3.134 6-7 6s-5.196-1-8.196-6l-1.571-2.605c-.536-.868-.107-1.994.881-2.314.323-.106.671-.109.996-.01s.612.295.822.562l2.068 2.4" fill="#fff"/><path d="M100 102v-6.5c0-.828-.641-1.5-1.48-1.5-.52 0-1.52.3-1.52 1.5m-9 4.5v-8.48M100 102c0 4-3.134 6-7 6s-5.196-1-8.196-6l-1.571-2.605c-.536-.868-.107-1.994.881-2.314.323-.106.671-.109.996-.01s.612.295.822.562l2.068 2.4" stroke="#000" stroke-width="2" stroke-linecap="round" stroke-linejoin="round"/><path d="M94 97v-3.5a1.5 1.5 0 0 1 1.5-1.5 1.5 1.5 0 0 1 1.5 1.5V97m-6 0v-4.5a1.5 1.5 0 0 1 1.5-1.5 1.5 1.5 0 0 1 1.5 1.5V97m-6 0v-8.5a1.5 1.5 0 0 1 1.5-1.5 1.5 1.5 0 0 1 1.5 1.5V97" fill="#fff"/><path d="M94 97v-3.5a1.5 1.5 0 0 1 1.5-1.5h0a1.5 1.5 0 0 1 1.5 1.5V97m-6 0v-4.5a1.5 1.5 0 0 1 1.5-1.5h0a1.5 1.5 0 0 1 1.5 1.5V97m-6 0v-8.5a1.5 1.5 0 0 1 1.5-1.5 1.5 1.5 0 0 1 1.5 1.5V97" stroke="#000" stroke-width="2" stroke-linecap="round" stroke-linejoin="round"/><defs><filter id="A" x=".368" y="0" width="186.583" height="110.276" filterUnits="userSpaceOnUse" color-interpolation-filters="sRGB"><feFlood flood-opacity="0" result="A"/><feColorMatrix in="SourceAlpha" values="0 0 0 0 0 0 0 0 0 0 0 0 0 0 0 0 0 0 127 0" result="B"/><feOffset dy="3.5949"/><feGaussianBlur stdDeviation="1.797"/><feComposite in2="B" operator="out"/><feColorMatrix values="0 0 0 0 0 0 0 0 0 0 0 0 0 0 0 0 0 0 0.25 0"/><feBlend in2="A"/><feBlend in="SourceGraphic"/></filter><clipPath id="B"><path fill="#fff" transform="translate(14.561 37.756)" d="M0 0h15.898v15.898H0z"/></clipPath></defs></svg>