<svg xmlns="http://www.w3.org/2000/svg" width="40" height="26" fill="none"><path fill-rule="evenodd" d="M4.103 2A2.1 2.1 0 0 0 2 4.103v13.95a2.1 2.1 0 0 0 2.103 2.103h14.065a1 1 0 1 1 0 2H4.103C1.84 22.157 0 20.325 0 18.053V4.103C0 1.84 1.832 0 4.103 0H30.46c2.263 0 4.103 1.832 4.103 4.103v1.893a1 1 0 1 1-2 0V4.103A2.1 2.1 0 0 0 30.46 2H4.103zm.703 9.802c0-.552.43-1 .96-1h10.08c.53 0 .96.448.96 1s-.43 1-.96 1H5.767c-.53 0-.96-.448-.96-1zm1-6a1 1 0 1 0 0 2h23.5a1 1 0 1 0 0-2h-23.5zm13 6c0-.552.285-1 .636-1h5.727c.044 0 .086.007.127.02 1.52-1.408 3.555-2.268 5.791-2.268 4.708 0 8.525 3.817 8.525 8.525s-3.817 8.525-8.525 8.525c-4.465 0-8.127-3.432-8.495-7.801H10.49c-.377 0-.683-.448-.683-1s.306-1 .683-1h12.169a8.47 8.47 0 0 1 1.054-3h-4.269c-.351 0-.636-.448-.636-1zm-14 5a1 1 0 0 1 1-1h1.549a1 1 0 1 1 0 2H5.807a1 1 0 0 1-1-1zm32.895.276c0 3.652-2.961 6.613-6.613 6.613s-6.613-2.961-6.613-6.613 2.961-6.613 6.613-6.613 6.613 2.961 6.613 6.613zm-9.763-3.35a.64.64 0 0 1 .904 0l2.361 2.362 2.362-2.362a.64.64 0 0 1 .904 0 .64.64 0 0 1 0 .904l-2.361 2.362 2.361 2.361a.64.64 0 0 1 0 .904.64.64 0 0 1-.904 0l-2.362-2.361-2.361 2.361a.64.64 0 0 1-.904 0 .64.64 0 0 1 0-.904l2.361-2.361-2.361-2.362a.64.64 0 0 1 0-.904z" fill="#8fa3b3"/></svg>