<svg xmlns="http://www.w3.org/2000/svg" width="26" height="34" fill="none"><path fill-rule="evenodd" d="M2.606 31.312V3.505c.01-.108.068-.312.221-.481.133-.147.395-.336.96-.336h13.32v4.951.005.004l-.002.032-.003.062c-.006.232.049.575.307.872.279.322.671.447 1.052.447h4.935v21.456a1.13 1.13 0 0 1-.195.538c-.1.136-.248.257-.571.257H2.606zM22.019 7.233l-3.085-3.256v3.256h3.085zM.778 33.14h1.828 20.021c.953 0 1.63-.439 2.044-1.003a2.95 2.95 0 0 0 .549-1.544l.001-.023V8.571c0-.395-.151-.776-.423-1.063l-5.841-6.166A1.54 1.54 0 0 0 17.838.86H3.787c-1.042 0-1.812.379-2.318.94-.478.531-.666 1.164-.689 1.629l-.001.023V33.14zm8.599-22.936a.64.64 0 0 1 .904 0l2.361 2.361 2.362-2.361a.64.64 0 0 1 .904 0 .64.64 0 0 1 0 .904l-2.361 2.361 2.361 2.361a.64.64 0 0 1 0 .904.64.64 0 0 1-.904 0l-2.362-2.361-2.361 2.361a.64.64 0 0 1-.904 0 .64.64 0 0 1 0-.904l2.361-2.361-2.361-2.361a.64.64 0 0 1 0-.904zm0 9.984a.64.64 0 0 1 .904 0l2.361 2.361 2.361-2.361a.64.64 0 0 1 .904 0 .64.64 0 0 1 0 .904l-2.361 2.361 2.361 2.361a.64.64 0 0 1 0 .904.64.64 0 0 1-.904 0l-2.361-2.361-2.361 2.361a.64.64 0 0 1-.904 0 .64.64 0 0 1 0-.904l2.361-2.361-2.361-2.361a.64.64 0 0 1 0-.904z" fill="#8fa3b3"/></svg>