<svg xmlns="http://www.w3.org/2000/svg" width="36" height="30" fill="none"><path fill-rule="evenodd" d="M2.746 23.662v.18c.052.354.219.878.536 1.299.308.409.736.702 1.399.702h14.205a1 1 0 0 1 .998.998 1 1 0 0 1-.998.998H4.681a3.64 3.64 0 0 1-2.994-1.497c-.588-.78-.855-1.69-.931-2.315l-.007-.059V4.59l.007-.059a4.92 4.92 0 0 1 .917-2.282C2.279 1.446 3.246.771 4.628.771h25.664l.063.008a4.9 4.9 0 0 1 2.242.912 3.54 3.54 0 0 1 1.456 2.904v3.463a1 1 0 0 1-.998.998 1 1 0 0 1-.998-.998V4.595c0-.615-.274-1.016-.663-1.311-.399-.302-.897-.464-1.234-.517H4.628a1.6 1.6 0 0 0-1.36.682 2.94 2.94 0 0 0-.522 1.265v17.58h16.048c.377 0 .683.306.683.683s-.306.683-.683.683H2.746zM12.902 7.218c.529-.521 1.293-.49 1.816-.16l7.127 4.486c.994.626.978 2.081-.031 2.684l-6.204 3.722c-.867.526-1.597.741-2.197.613a1.3 1.3 0 0 1-1.046-1.109l-.006-.044V8.22a1.13 1.13 0 0 1 .221-.631 2.68 2.68 0 0 1 .32-.371zm.96.973h0l-.096.101-.038.046v8.892c.121.01.473-.024 1.174-.449l6.213-3.727c.133-.079.135-.271.004-.354L13.99 8.214c-.04-.025-.079-.032-.103-.031-.019.001-.024.006-.025.007zm15.278 16.53v-.001l.037.002V15.14a.73.73 0 0 1 .955-.694l3.752 1.218v-2.968l-5.713-2.008v9.872c.106.212.092.484-.052.705-.182.281-.518.394-.848.357-.061-.007-.122-.019-.182-.036l-.026-.008-.036-.012a3.16 3.16 0 0 0-3.159.633 3.16 3.16 0 0 0-.703 3.784 3.16 3.16 0 0 0 3.473 1.659 3.16 3.16 0 0 0 2.501-2.924zm1.513.079l-.109-.006v-8.777l3.752 1.218a.73.73 0 0 0 .955-.694v-4.296a.73.73 0 0 0-.488-.688l-6.988-2.456a.73.73 0 0 0-.971.688v10.159a4.68 4.68 0 0 0-1.186-.058c-1.026.08-1.997.497-2.763 1.185s-1.282 1.61-1.47 2.622-.037 2.058.43 2.975 1.223 1.655 2.152 2.099 1.978.568 2.985.355 1.915-.753 2.584-1.536c.327-.382.588-.812.775-1.272a4.68 4.68 0 0 0 .34-1.52z" fill="#8fa3b3"/></svg>