<svg xmlns="http://www.w3.org/2000/svg" width="62" height="44" fill="none"><path d="M13.134 28.067c-.8-.8-1.178-1.756-1.133-2.867s.489-1.978 1.333-2.6c2.444-1.867 5.167-3.323 8.168-4.368s6.165-1.565 9.499-1.565c3.378 0 6.567.533 9.568 1.6a28.86 28.86 0 0 1 8.165 4.467c.844.622 1.278 1.478 1.301 2.568s-.368 2.032-1.168 2.832c-.756.756-1.677 1.145-2.765 1.168S44 29.022 43.067 28.4c-1.733-1.2-3.611-2.122-5.632-2.765s-4.168-.968-6.435-.968-4.411.333-6.432 1S20.689 27.245 19 28.4c-.978.667-2.011.967-3.099.901s-2.012-.479-2.768-1.235zM1.8 16.8c-.756-.756-1.133-1.678-1.133-2.768s.4-1.988 1.2-2.699C5.823 8 10.267 5.389 15.2 3.499S25.4.667 31 .667s10.867.944 15.8 2.832S56.178 8 60.134 11.333c.8.711 1.212 1.6 1.235 2.667S61 16 60.2 16.8c-.755.755-1.677 1.156-2.765 1.2s-2.079-.289-2.968-1c-3.245-2.622-6.855-4.667-10.832-6.133s-8.19-2.2-12.635-2.2-8.655.733-12.632 2.2S10.778 14.378 7.534 17c-.889.711-1.877 1.044-2.965 1s-2.012-.445-2.768-1.2zM31 43.333c-1.511 0-2.778-.511-3.8-1.533s-1.533-2.289-1.533-3.8.511-2.778 1.533-3.8 2.289-1.533 3.8-1.533 2.778.511 3.8 1.533 1.533 2.289 1.533 3.8-.511 2.778-1.533 3.8-2.289 1.533-3.8 1.533z" fill="#51a0db"/></svg>