<svg xmlns="http://www.w3.org/2000/svg" width="543" height="94" fill="none"><path d="M62.95 94c25.965 0 47.014-21.043 47.014-47S88.915 0 62.95 0 15.937 21.043 15.937 47 36.986 94 62.95 94z" fill="#eb001b"/><path d="M119.737 94c25.965 0 47.014-21.043 47.014-47S145.702 0 119.737 0 72.723 21.043 72.723 47s21.049 47 47.014 47z" fill="#f79e1b"/><path d="M91.332 9.466c11.32 8.575 18.609 22.165 18.609 37.441s-7.289 28.889-18.609 37.464c-11.32-8.575-18.609-22.165-18.609-37.464s7.312-28.865 18.609-37.441z" fill="#ff5f00"/><path d="M147.884 78.209v.398h-.867v2.249h-.422v-2.249h-.867v-.398h2.156zm3.305 0v2.648h-.422v-2.179l-.774 1.921h-.468l-.774-1.898v2.156h-.422v-2.648h.657l.773 1.898.774-1.898h.656z" fill="#f79e1b"/><path d="M539.719 48.57v.398h-.867v2.249h-.422v-2.249h-.867v-.398h2.156zm3.281 0v2.648h-.422v-2.179l-.773 1.921h-.446l-.773-1.898v2.155h-.422V48.57h.656l.774 1.898.773-1.898H543zM218.522 18.838c7.195 0 12.281 4.944 12.281 12.019v18.978h-6.633V33.036c0-5.084-2.625-7.919-7.031-7.919s-7.828 2.812-7.828 7.99v16.752h-6.632V33.059c0-5.084-2.625-7.919-7.031-7.919s-7.828 2.812-7.828 7.99v16.752h-6.632V19.658h6.562v3.678c2.437-3.561 6.187-4.475 9.281-4.475 4.617 0 8.366 2.038 10.452 5.389 2.625-4.358 7.289-5.412 11.039-5.412zm50.763.773v30.224H262.7v-3.632c-2.086 2.671-5.203 4.405-9.492 4.405-8.461 0-15.117-6.654-15.117-15.885s6.656-15.885 15.117-15.885c4.289 0 7.406 1.757 9.492 4.452v-3.678h6.585zm-15.304 5.436c-5.671 0-9.117 4.381-9.117 9.677s3.446 9.676 9.117 9.676 9.117-4.17 9.117-9.676-3.656-9.677-9.117-9.677zm48.49-2.999l-2.835 5.131c-1.829-1.125-5.578-2.577-9.328-2.577s-5.719 1.453-5.719 3.585 2.203 2.718 4.992 3.116l3.117.469c6.586.937 10.5 3.749 10.5 8.927 0 5.811-5.039 9.864-13.757 9.864-3.117 0-8.555-.609-12.961-3.889l3.07-4.944c2.18 1.663 5.039 3.093 9.961 3.093 4.5 0 6.867-1.429 6.867-3.678 0-1.71-1.641-2.835-5.226-3.35l-3.164-.398c-6.68-.914-10.242-4.007-10.242-8.856 0-5.998 4.804-9.676 12.491-9.676 4.735 0 9.117 1.171 12.234 3.186zm28.523-2.437v5.998h-11.578v13.144c0 4.077 2.156 5.647 4.804 5.647 2.039 0 4.289-.914 6.094-2.038l2.625 5.272c-2.438 1.64-5.484 2.999-9.281 2.999-6.844 0-10.851-3.678-10.851-11.738V25.609h-6.023v-5.998h6.023v-9.138h6.632v9.138h11.555zm20.342-.773c8.461 0 14.25 6.443 14.297 15.862 0 .843-.071 1.71-.118 2.46h-22.334c.89 5.436 4.71 7.685 8.999 7.685 3.023 0 6.258-1.195 8.742-3.186l3.281 4.709c-3.679 3.163-7.851 4.264-12.421 4.264-9.047 0-15.468-6.303-15.468-15.885-.024-9.489 6.14-15.909 15.022-15.909zm-.117 5.857c-4.711 0-7.312 3.022-8.015 7.451h15.679c-.727-4.709-3.469-7.451-7.664-7.451zm37.311-5.857c2.016 0 3.562.258 5.086.843l-1.57 6.537c-1.383-.726-3.399-1.101-5.016-1.101-4.195 0-7.195 2.976-7.195 8.107v16.612h-6.585V19.611h6.538v3.397c1.969-2.858 5.063-4.17 8.742-4.17zm27.304 0c8.46 0 15.116 6.654 15.116 15.885s-6.656 15.885-15.116 15.885c-4.289 0-7.383-1.734-9.469-4.381V62.44h-6.585V19.611h6.585v3.585c2.086-2.624 5.18-4.358 9.469-4.358zm-.797 6.209c-5.461 0-9.117 4.171-9.117 9.677s3.656 9.676 9.117 9.676 9.117-4.381 9.117-9.676-3.446-9.677-9.117-9.677zm52.521-5.436v30.224h-6.586v-3.632c-2.086 2.671-5.203 4.405-9.491 4.405-8.461 0-15.117-6.654-15.117-15.885s6.656-15.885 15.117-15.885c4.288 0 7.405 1.757 9.491 4.452v-3.678h6.586zm-15.304 5.436c-5.672 0-9.117 4.381-9.117 9.677s3.445 9.676 9.117 9.676 9.117-4.17 9.117-9.676-3.656-9.677-9.117-9.677zm48.49-2.999l-2.836 5.131c-1.828-1.125-5.578-2.577-9.327-2.577s-5.719 1.453-5.719 3.585 2.203 2.718 4.992 3.116l3.117.469c6.586.937 10.5 3.749 10.5 8.927 0 5.811-5.039 9.864-13.758 9.864-3.117 0-8.554-.609-12.96-3.889l3.07-4.944c2.18 1.663 5.039 3.093 9.961 3.093 4.499 0 6.867-1.429 6.867-3.678 0-1.71-1.641-2.835-5.227-3.35l-3.164-.398c-6.679-.914-10.241-4.007-10.241-8.856 0-5.998 4.804-9.676 12.491-9.676 4.734 0 9.117 1.171 12.234 3.186zm31.335 0l-2.836 5.131c-1.828-1.125-5.578-2.577-9.328-2.577s-5.718 1.453-5.718 3.585 2.203 2.718 4.992 3.116l3.117.469c6.585.937 10.499 3.749 10.499 8.927 0 5.811-5.039 9.864-13.757 9.864-3.117 0-8.554-.609-12.96-3.889l3.07-4.944c2.179 1.663 5.039 3.093 9.96 3.093 4.5 0 6.867-1.429 6.867-3.678 0-1.71-1.64-2.835-5.226-3.35l-3.164-.398c-6.68-.914-10.242-4.007-10.242-8.856 0-5.998 4.805-9.676 12.492-9.676 4.734 0 9.117 1.171 12.234 3.186zm-342.9 44.118c3.985 0 7.102 3.116 7.102 7.474s-3.117 7.474-7.102 7.474c-2.015 0-3.468-.82-4.453-2.062v1.687h-3.093V59.394h3.093v8.833c.961-1.242 2.438-2.062 4.453-2.062zm-.375 2.929c-2.554 0-4.289 1.968-4.289 4.545s1.711 4.545 4.289 4.545 4.289-2.062 4.289-4.545-1.617-4.545-4.289-4.545zm23.976-2.554l-11.226 20.22h-3.445l5.085-8.927-6.281-11.293h3.469l4.57 8.154 4.406-8.154h3.422zm26.413-.375c3.375 0 5.765 2.32 5.765 5.647v8.927h-3.117v-7.896c0-2.39-1.242-3.725-3.304-3.725s-3.68 1.312-3.68 3.749v7.872h-3.117v-7.896c0-2.39-1.219-3.725-3.305-3.725s-3.679 1.312-3.679 3.749v7.872h-3.117V66.54h3.094v1.734c1.148-1.687 2.906-2.109 4.359-2.109 2.156 0 3.937.961 4.898 2.53 1.242-2.015 3.445-2.53 5.203-2.53zm23.553.375v14.198h-3.093v-1.71c-.984 1.265-2.438 2.085-4.453 2.085-3.984 0-7.101-3.116-7.101-7.474s3.14-7.474 7.101-7.474c2.015 0 3.492.82 4.453 2.085v-1.71h3.093zm-7.195 2.554c-2.671 0-4.288 2.062-4.288 4.545s1.617 4.545 4.288 4.545 4.289-1.968 4.289-4.545c0-2.601-1.71-4.545-4.289-4.545zm22.5-1.406l-1.336 2.413a9.13 9.13 0 0 0-4.383-1.218c-1.758 0-2.695.68-2.695 1.687s1.031 1.265 2.343 1.476l1.477.234c3.094.445 4.945 1.757 4.945 4.194 0 2.718-2.367 4.639-6.468 4.639-1.477 0-4.008-.281-6.094-1.828l1.43-2.319c1.031.797 2.367 1.453 4.687 1.453 2.109 0 3.234-.656 3.234-1.734 0-.797-.773-1.336-2.461-1.57l-1.476-.187c-3.141-.422-4.828-1.874-4.828-4.17 0-2.812 2.25-4.545 5.883-4.545 2.203-.023 4.265.516 5.742 1.476zm13.101-1.148v2.812h-5.438v6.185c0 1.921 1.008 2.648 2.25 2.648.961 0 2.016-.422 2.859-.961l1.219 2.483c-1.148.773-2.578 1.406-4.359 1.406-3.211 0-5.109-1.734-5.109-5.506v-6.256h-2.836V66.54h2.836v-4.288h3.117v4.288h5.461zm9.257-.375c3.984 0 6.703 3.022 6.726 7.451 0 .398-.023.797-.07 1.148h-10.5c.422 2.554 2.203 3.608 4.219 3.608 1.43 0 2.929-.562 4.101-1.499l1.547 2.202c-1.734 1.476-3.703 1.992-5.836 1.992-4.265 0-7.265-2.976-7.265-7.474.024-4.405 2.906-7.427 7.078-7.427zm-.047 2.765c-2.203 0-3.445 1.429-3.773 3.491h7.359c-.328-2.202-1.617-3.491-3.586-3.491zm17.226-2.765c.937 0 1.664.117 2.39.398l-.75 3.069c-.656-.352-1.593-.516-2.367-.516-1.968 0-3.375 1.382-3.375 3.819v7.802h-3.093V66.54h3.07v1.593c.938-1.336 2.391-1.968 4.125-1.968zm10.851 0c2.109 0 4.054.773 5.297 2.273l-1.992 2.109c-.985-.937-2.039-1.476-3.422-1.476-2.391 0-4.195 1.874-4.195 4.545s1.804 4.545 4.195 4.545c1.359 0 2.578-.633 3.492-1.476l1.922 2.132c-1.289 1.499-3.188 2.273-5.297 2.273-4.523 0-7.476-3.21-7.476-7.474s2.953-7.451 7.476-7.451zm21.538.375v14.198h-3.094v-1.71c-.984 1.265-2.437 2.085-4.452 2.085-3.985 0-7.102-3.116-7.102-7.474s3.117-7.474 7.102-7.474c2.015 0 3.492.82 4.452 2.085v-1.71h3.094zm-7.171 2.554c-2.672 0-4.289 2.062-4.289 4.545s1.617 4.545 4.289 4.545 4.288-1.968 4.288-4.545c-.023-2.601-1.734-4.545-4.288-4.545zm18.678-2.929c.938 0 1.664.117 2.391.398l-.75 3.069c-.656-.352-1.594-.516-2.367-.516-1.969 0-3.375 1.382-3.375 3.819v7.802h-3.094V66.54h3.071v1.593c.914-1.336 2.367-1.968 4.124-1.968zm11.039 0c2.016 0 3.492.82 4.453 2.085v-8.856h3.094v21.344h-3.094v-1.71c-.984 1.265-2.437 2.085-4.453 2.085-3.984 0-7.101-3.116-7.101-7.474s3.14-7.474 7.101-7.474zm.375 2.929c-2.672 0-4.289 2.062-4.289 4.545s1.617 4.545 4.289 4.545 4.289-1.968 4.289-4.545-1.711-4.545-4.289-4.545z" fill="#fff"/></svg>