<svg xmlns="http://www.w3.org/2000/svg" xmlns:xlink="http://www.w3.org/1999/xlink" width="154" height="104" fill="none"><use xlink:href="#B" fill="#fff"/><use xlink:href="#B" stroke="#ededed" stroke-width=".95"/><path d="M48.446 38.63c-1.072 1.244-2.735 2.176-4.435 2.038-.222-1.624.628-3.386 1.589-4.457 1.035-1.244 2.883-2.142 4.398-2.211.185 1.727-.517 3.386-1.552 4.63zm1.515 2.383c-1.478-.104-2.846.415-3.918.829-.702.276-1.331.518-1.774.518-.517 0-1.146-.242-1.848-.518-.887-.345-1.922-.76-3.031-.725-2.514.035-4.842 1.416-6.136 3.628-2.624 4.422-.702 10.952 1.848 14.545 1.257 1.797 2.772 3.731 4.731 3.662.85-.035 1.479-.276 2.144-.553.739-.311 1.515-.622 2.735-.622 1.146 0 1.885.311 2.624.622.628.276 1.257.553 2.218.518 2.033-.035 3.327-1.797 4.583-3.559 1.331-1.9 1.922-3.766 2.033-4.077v-.035s-.037 0-.037-.035c-.444-.207-3.881-1.727-3.918-5.839-.037-3.455 2.735-5.217 3.179-5.493.037 0 .037-.035.037-.035-1.774-2.488-4.509-2.764-5.47-2.833zm24.395-4.975H64.081v26.706h4.251v-9.155h5.877c5.396 0 9.167-3.593 9.167-8.81s-3.696-8.741-9.019-8.741zm-1.109 14.096h-4.916V39.528h4.916c3.696 0 5.803 1.935 5.803 5.286s-2.107 5.321-5.803 5.321zm20.181-7.013c-4.509 0-7.873 2.522-7.984 5.977h3.844c.333-1.658 1.885-2.729 4.029-2.729 2.587 0 4.066 1.175 4.066 3.351v1.486l-5.323.311c-4.953.276-7.614 2.246-7.614 5.701s2.772 5.77 6.727 5.77c2.661 0 5.138-1.313 6.284-3.42h.074v3.213h3.955V49.443c-.037-3.835-3.179-6.322-8.058-6.322zm3.955 12.369c0 2.488-2.181 4.284-5.064 4.284-2.255 0-3.696-1.071-3.696-2.695 0-1.693 1.404-2.66 4.029-2.798l4.731-.276v1.486zm17.151 8.291c-1.701 4.664-3.66 6.219-7.799 6.219-.333 0-1.368-.034-1.627-.104v-3.213a13.7 13.7 0 0 0 1.257.069c1.885 0 2.92-.76 3.585-2.764l.37-1.175-7.208-19.451h4.436l5.027 15.754h.074l5.026-15.754H122l-7.466 20.418z" fill-rule="evenodd" fill="#000"/><defs ><path id="B" d="M.475 32C.475 14.589 14.589.475 32 .475h90c17.411 0 31.525 14.114 31.525 31.525v40c0 17.411-14.114 31.525-31.525 31.525H32C14.589 103.525.475 89.411.475 72V32z"/></defs></svg>